<svg xmlns="http://www.w3.org/2000/svg" viewBox="0 0 10 9.81"><defs><style>.cls-1{fill:#097dae;}</style></defs><title>abana</title><g id="Livello_2" data-name="Livello 2"><g id="Livello_1-2" data-name="Livello 1"><path class="cls-1" d="M1,0H0V2.5l.08-.18L0,2.5V9.81H2.71V9.62H2.49V7.82l.09,0L4,9.28V7.79h.22V9.62h0L5,7.76h.1l.76,1.86H5.65l.07.19H10V1.19h0V.43h0V0ZM8.87.22h.91V.43h-.7V1h.7v.21h-.7V1.9h.7v.21H8.87ZM8.28,5.49v-.2H9.45v.2H9V7.18H8.76V5.49Zm-.94-.2h.28a.74.74,0,0,1,.45.1.53.53,0,0,1-.27.94l.6.85H8.14l-.58-.82v.82H7.34Zm0-2.56h.22V4.62H7.31Zm0-2.51h.38A1,1,0,0,1,8.4.46a1,1,0,0,1,.31.71.9.9,0,0,1-.3.69,1,1,0,0,1-.72.26H7.31ZM1,.19h.09l.79,1.93H1.61l-.24-.59H.64l-.25.59H.16ZM.57,2.71H.66l.63,1.51L1.91,2.7H2l.41,1.91H2.2L1.91,3.25l-.57,1.4h-.1L.66,3.25.38,4.62H.16Zm.78,3.92A.52.52,0,0,1,1.16,7a.65.65,0,0,1-.46.14H.18V5.29H.6A.58.58,0,0,1,1,5.41a.5.5,0,0,1,.17.4A.43.43,0,0,1,1,6.16a.51.51,0,0,1,.32.47m-.06,2.8a1,1,0,0,1-.73.25H.18V7.79H.56A1,1,0,0,1,1.27,8a.94.94,0,0,1,.31.71.94.94,0,0,1-.29.69m.59.19H1.66V7.79h.22ZM2.45,5.5H1.7V6h.74v.21H1.7V7h.75v.21h-1V5.29h1Zm.91,1.68H2.67V5.29h.22V7h.47ZM2.9,2.73h.22V4.62H2.9Zm-.13-.62a1,1,0,0,1-1-1,1,1,0,0,1,1-1,1,1,0,0,1,.64.25h0V.61l-.09,0A.77.77,0,0,0,2.77.38.79.79,0,0,0,2,1.15a.73.73,0,0,0,.23.52.87.87,0,0,0,.55.23.84.84,0,0,0,.57-.25l.09,0v.18h0a.94.94,0,0,1-.64.24M4.11,7.18H3.43V5.29h.22V7h.46Zm1-1.68H4.41V6h.73v.21H4.41V7h.75v.21h-1V5.29h1Zm-.22-.88L4.7,4H4l-.25.59H3.49l.8-1.92h.09l.79,1.92Zm.3-4-.1,0A.77.77,0,0,0,4.57.38a.79.79,0,0,0-.78.77A.75.75,0,0,0,4,1.67a.87.87,0,0,0,.55.23.82.82,0,0,0,.57-.25l.1,0v.18h0a1,1,0,0,1-.64.24,1,1,0,0,1-1-1,1,1,0,0,1,1-1,1,1,0,0,1,.64.25h0Zm.13,1.51L6.16.2h.1l.79,1.92H6.82l-.25-.59H5.84l-.24.59Zm.27.61H6A1,1,0,0,1,6.74,3a1,1,0,0,1,.3.71,1,1,0,0,1-.29.7A1,1,0,0,1,6,4.62H5.64Zm0,4.45.79-1.92h.1l.79,1.92H7.1l-.24-.59H6.12l-.24.59Zm.6,1.59H6.1v.85H5.88V7.73h.37a.62.62,0,0,1,.43.12.49.49,0,0,1,.18.4.51.51,0,0,1-.17.4.67.67,0,0,1-.44.12m1.56.94a1,1,0,1,1,1-1,1,1,0,0,1-1,1m2-.09h-.9V7.79h.21V9.43h.47V7.79h.22Zm0-2.44H9.55V5.29h.23Z"/></g></g></svg>