<svg xmlns="http://www.w3.org/2000/svg" viewBox="0 0 437.49 127.6">
  <defs>
    <style>
      .cls-1 {
        fill: #ffd400;
      }

      .cls-2 {
        fill: #fff;
      }
    </style>
  </defs>
  <title>about_us</title>
  <g id="Livello_2" data-name="Livello 2">
    <g id="footer_2" data-name="footer 2">
      <g>
        <polygon class="cls-1" points="415.56 110.81 19.92 109.77 19.51 24.54 415.73 12.71 415.56 110.81"/>
        <path d="M29.84,16.7a.76.76,0,0,1,0-1.51L215.3,9.47a.73.73,0,0,1,.77.73.76.76,0,0,1-.73.78L29.87,16.7Z"/>
        <path d="M178.25,117.66c-.69-.6-.81-1.34-.67-1.54a.74.74,0,0,1,.62-.33l108.13-.08h0a.75.75,0,0,1,.75.76.74.74,0,0,1-.75.75l-106.64.44"/>
        <path d="M59.38,127.37a.62.62,0,0,1-.19,0l-45.9-11.56a.75.75,0,0,1-.57-.73l-.19-41.92a.75.75,0,0,1,.75-.75h0a.75.75,0,0,1,.76.75l.19,41.33,45.33,11.42a.75.75,0,0,1-.18,1.48Z"/>
        <path d="M421,117.86h0l-48.19-.49a.76.76,0,0,1-.75-.76.77.77,0,0,1,.76-.75h0l47.43.48.07-43.56a.76.76,0,1,1,1.51,0l-.08,44.32a.75.75,0,0,1-.75.75Z"/>
        <path d="M432.78,30.58a4.7,4.7,0,1,1,4.71-4.69A4.71,4.71,0,0,1,432.78,30.58Zm0-7.89A3.19,3.19,0,1,0,436,25.88,3.19,3.19,0,0,0,432.8,22.69Z"/>
        <path d="M230.45,9.4a4.7,4.7,0,1,1,4.71-4.69A4.71,4.71,0,0,1,230.45,9.4Zm0-7.89a3.19,3.19,0,1,0,3.19,3.19A3.18,3.18,0,0,0,230.46,1.51Z"/>
        <path d="M.75,61.86a.69.69,0,0,1-.37-.1A.76.76,0,0,1,0,61.1v-7a.78.78,0,0,1,.38-.66.79.79,0,0,1,.76,0l6.09,3.53a.77.77,0,0,1,.37.66.73.73,0,0,1-.38.65l-6.1,3.51A.75.75,0,0,1,.75,61.86Zm.77-6.48V59.8l3.84-2.21Z"/>
        <path d="M335.66,127.6a.76.76,0,0,1-.38-.11L329.19,124a.76.76,0,0,1,0-1.31l6.11-3.51a.75.75,0,0,1,.75,0,.77.77,0,0,1,.38.66l0,7a.77.77,0,0,1-.37.66A.86.86,0,0,1,335.66,127.6Zm-4.58-4.29,3.83,2.22v-4.42Z"/>
        <path d="M41.69,10.05a.76.76,0,0,1,0-1.51L169,4.13a.77.77,0,0,1,.78.73.76.76,0,0,1-.73.78L41.72,10.05Z"/>
        <g>
          <g>
            <path d="M104.82,85.94l-1.22-.32-1-.84-.45-.83.26-.19ZM108,85.1v.58l-2-1.28-1.34-1L103.21,82l.13-.32.84.65L106,83.76Zm3.53-.13-.07.39-.83-.39L109,83.56l-1.16-.83-1.41-.9-1.15-1.22-1.09-1,.06-.25.13-.2,1.22,1,1.34,1.15,1.41,1,1.16.77,1.41,1.41Zm.9-2.3V83l-.13.25-1.22-1-1.22-1-2.18-1.8-1.8-1.41-.7-.9.26-.32,1.09.83,2.18,1.93,1.28,1,1.15,1Zm1.15-2.44.06.19-.12.19-.33.13-1.6-1.34-1.73-1.35-1.28-.77-1.48-1.48-.9-1,.26-.25,1.35,1.09,2,1.73,2.37,1.66Zm1.73-1.73-.7.13L113,77.47l-2.18-1.79-1.28-.84-1.16-1.15-1.34-1,.13-.33.06-.12,1.54,1,1.15,1.22,1.48,1,2.56,2.12Zm4.17.19-.71.06-2-1.34-1.22-1.09-3.59-2.63-2.38-2L108,70.16l.13-.45,1.35,1.09,1.15.9,1.22,1L113,73.82l1.54,1,1.34,1,2.31,1.93Zm10.71,5.71-.45.19L128,83.31l-1.22-1-1.09-1-2.31-1.79-2.63-2.18-2.37-1.73-1.48-1.35-2.3-1.86-1.48-1.16-2.37-2-1.28-.77-.52-.52.32-.38.9.51,1.16.77,1.34,1.22,1.09,1,1.16,1,2,1.35,1.93,1.8L121,76.89l1.73,1.41,2.25,2,2.56,2,1.09.84ZM130,80.87l-.13.83L127.65,80l-2.57-2.31-2-1.28-4.24-3.53-1.34-1.15-1.61-1.09-1.34-1.22L112.9,68l-1-.83-1.15-.9-.77-.9.19-.32,1,1L115,68.88,116.3,70l1.28,1,1.22,1,1.28,1,1.09,1,2,1.67,2.18,1.54,1.35,1,1.86,1.8ZM117.58,67.79V68l-.19.32-1.22-.71-1.09-.83-3.4-2.82-.64-.51-.26-.26.13-.58.45.2,1.22,1.15,1.09,1,1.73,1.41,1.41.84Zm.9-2.38-.07.13-.12.52-1.16-.77-1.09-.9-1-.9-1.66-1.35-1.22-1-.39-.32.07-.51,1.34.83,1.1.9,1.15,1.09,1,.83,1.28,1,.71.38Zm.38-2.82.26.64-.19.2-.84-.64-1.66-1.22-2.31-1.93-1.48-1.41.32-.32,1.48,1.28,1.41,1.16,2,1.6Zm-5.19-6.73,1.22.64,1.09,1,2.56,1.93L120,60.8l-.25.38-.64-.58-.84-.83L115,57.33l-1.35-1.21Zm1-2.5.13-.13.64.51,1.28.9,1.54,1.28L120,57.4l.77.9-.26.32-1.41-1.16-1.8-1.54-1.6-1.22-1.09-1ZM129.51,62l.13.58-.13.06-1.48-1-1.41-1.16-2.5-2.11-1.28-1-1.22-1-2.31-1.73-2.37-2-1.48-1.28.39-.32,1.22,1,1.15.9,1.16,1,2.5,1.86,2.69,2.18L125.85,59l2,1.6.9.71Zm-.19-3.08.13.39-.2.13-3-2.5-2-1.54-2.5-1.93-2.69-2.31-1.86-1.54-.65-.44.32-.26,1.42.77,2.24,1.92,2.25,1.86,1.41,1.09,1.34,1.09,2.38,1.86,1.15,1Zm0-3.27V56l-.26.19-.64-.58-1.54-1.34-1.48-1-.77-.77-1-.77-3.72-3-1.16-1-1.21-1.16.32-.19,1.41,1.09,1.34,1,2.06,1.73,1.34,1,1.09.83,1,.9,1.86,1.35Zm-.07-3.27-1.15-.19-1.22-.9-2.57-2.11-1.79-1.35-1.41-1.35-1.16-1-1.28-1.16.19-.32,1.41,1,1.35,1,1.73,1.73,1.8,1.22,2.31,1.92Zm-.06-2.76-.13.2h-.26l-1.34-1.22-1.35-1.09L124,45.66l-2-1.47-1.6-1.48-.64-.77.38-.25.9.89,1.8,1.48,3.71,2.82,1.74,1.6.77.77Zm-9,21.36.58-.45,2,1.86,2.82,2.18,1,.77,1.22.71,1,1L130,78.24l-.07.51-1.28-1.21-1.54-1.22-.7-.52-1.35-1-1-.77-1.73-1.6-1.09-.9Zm4.1,14.88-.7.26L122.33,85l-.84-.64-.06-.57Zm-2.82-4.68.13-.39,3.85,2.82,2.88,2.25-1-.13-1.66-1.15-1.1-.84-1.92-1.41Zm.13-15.52v-.32l.26-.07.77.58,1.09.9L125.47,68l2.24,1.8,1.41,1.28.65.77.06.38-1-.77-2.43-1.86L124.44,68,123,67l-1.22-1.09ZM129.89,75l-.32.19-1.09-.9-1.41-1-.77-.77-1.41-1.22-2.24-1.66-1-1.16.13-.32,3.53,2.7,2.37,2,1.67,1.15.57.45Zm-.12-6.67-.32.45-2.51-2L124.57,65l-1.15-1L122,62.91l-.2-.64.07-.38,1.47,1.22,2.5,2.11,1.09.84,1.22.89Zm-.2-3.14.07.51-1.35-.7-2.37-2.18-2.18-1.74-1.29-1-.57-.64v-.64L123.42,60l2.82,2.25,1.22,1.22L129,64.64Zm-7.44-24,.32-.07.65-.06,1.28,1.15,1.28,1.22L128,45l1,1.09v.39l-1.47-1.09Zm6.54,1.47-.44.39L125.73,41l.12-.12.77.12,1.09.71Z"/>
            <path d="M137.65,85.17l.45.9-.51-.13-.77-.64-1.16-1.09-1-.52-.45-.51.26-.39.7.39,1.09.9Zm4.94.7-1,.13-2-1.47-1.15-1L137,82.35l-2.12-1.93L135,80l.51.39,1,.7.83.84L138.74,83l1.09.9Zm3.59.26L145.8,86l-3.47-2.44-1.22-1-1.28-1.22-1.67-1.15-2-1.86-.83-.83.19-.32,1.28,1,1.09.83,1.22,1,1.35,1,2.24,2,1.22.83,1.93,1.35.64.57-.07.2Zm3.59-.51.2.45-.65-.07-1.41-1.15-1.28-1.16L143,81.06l-1.22-1.22-2.12-1.6L138,76.89l-1.41-1-.71-1,.19-.32.32.19.84.77,1.34,1,1.67,1.35,1.16.83,1.21,1,1.09,1.09L146,82.41l2.18,1.8ZM136.43,72l1.22.77,1.22.9,1.28,1,1.16.9,1.22,1,1.28,1,2.37,1.92,2.37,2.05,1.22,1,1.22.9,1.16,1.09,1,1.09-.39.07-1.41-1-1.54-1.28-1.22-1.16-1.09-.89-1.28-.9-2.05-1.73-2-1.67-1.09-.9-2.18-1.67-1.09-.89-1.35-1Zm8.21,3.14v.19l-.06.45-1.73-1.28-1.29-1.15-2-1.54-1.67-1.22-1-1.09.06-.32,1.54,1.15,1.47,1,3.4,3ZM137.27,67l.13-.25.06-.32.38.25,1.09,1,1.54,1,1.29,1.09,2.05,1.6,1.34,1.35L145,73l-1.34-1.09-1.41-1-1.48-1.09-1-1L138,67.66Zm8.27,3.27-.13.13-1.22-1-1.22-.9-1.28-1-1.22-1.09-1.28-1L138,63.88l.19-.26,1.1.83,2.24,1.86,1.09,1,2,1.54,1,1Zm-7.12-8.78.13-.26.26-.25,1.34,1.21,1.35,1.09L143,64.58l.9.64,2.25,1.86-.2.45-1.28-.77-1.28-1.28-.9-.58-1-.77Zm12.51,6.09-.77-.06-1.41-.64-1.41-1.22-2.06-1.54-1.92-1.8-1.22-.77-1.47-1.41-1.74-1.35.13-.44,1.16.83,1.15.77L142.65,61l1.16,1,1.28,1,1.35,1.34,1.54,1,1.86,1.6Zm10.45,5.26.07.19v.26l-.26.26-.26-.26-1.15-.64-.84-.9-1.6-1.15-2.56-2.12-1.22-1-2.5-1.86-1.16-.9-2.37-2-1.22-1-1.35-.9-1.15-1L141,57.53l-1.48-1.74.07-.25,1.53,1.22,2.83,2.37,1.41,1,1.6,1.16,1.16,1.21,1.28,1,1.15,1,1.28.9,1.93,1.54,3.14,2.63,1.28,1.09,1.09.7,1.42,1.22ZM140,52.91l1.16.83,6.09,4.88,1.22.89,2.37,1.93,7.06,5.64,3.46,3,.07.38-.52-.06-1.86-1.61-1.47-1.34-1.35-.9-2.69-2.18-2.7-2.12-4.49-3.59-1.15-.9L143,55.92l-2-1.54-1.15-1ZM147.85,56l.06.45-.32.06-1.41-1.09-1.28-1-2.63-2.24-1.73-1.41.06-.51,1.48,1.08,1.41,1.1,2.82,2.3Zm-7.06-8.15.07-.45.51.2,1.41,1.21,1.48,1.09,2.63,2.25,1.41,1.35-.19.32-1.35-.9-2.57-2.31L142,48.8l-.9-.77Zm8,2.57.13.25-.26.26-1.47-1.09-1.54-1.28-1.54-1.09-1.28-1.16-1.35-1.41.19-.25,1.61,1.28,1.41,1.34,1.47,1,1.28,1.15Zm1.41-2-.64.06-1.28-.83-1.41-1-1-.83-1.6-1.35-1.86-1.28-.64-.84.13-.32,1.67,1.22,1.6,1.28,1,.77,1.28,1Zm-5.9-6.93.45-.32,2,1.28,2.56,2.18,3.79,3.08,2,1.54,1.09.9,1,.77,1.28,1.21,2,1.61,1.09.77,1.22,1.22-.19.25-1.15-.9-1.22-.76-1.16-.9L158,52.2l-1.47-1.15-1.8-1.22L152.59,48l-.89-.7-2-1.67-1.41-1-1.22-1.22L145.22,42ZM147.14,78h.9l2.18,1.67L151.76,81l1.35,1,1.73,1.42,1,.7-.45.32-1.54-1.28-1.34-1L151,81.06,149.77,80ZM148,41.17h1l1.35,1,1.41,1.35,2.25,1.6,1.09,1,1.28,1,2.56,2.12,1.67,1.54,1.54,1,1.15,1.41-.12.26-.45-.32-1.35-1.22-1.22-.77-1.47-1.28L156.51,48l-3.21-2.44L151,43.61l-2-1.73ZM160.8,67.08l-1.21-1-2.38-1.8-2.5-2-1.15-1.22-1.16-.83-1.86-1.41-.19-.58,2.18,1.35,1.73,1.22,1,1,1,1,.19.19,1.41,1L159.07,65l1.54,1.54Zm-3.07,15.46-.07.19-.32.26-1.6-1.16-1.48-1.47-1.54-.9-1.15-1-1.22-1.28.32-.33,2.63,2.18,1.54,1,2,1.8Zm1.41-1.93-.07.26-.25.19-1.54-1.22-1.41-1.09-2.76-2.24L151.7,75l.12-.32,1.35,1,1.16,1,1.21,1,1.22,1.09,1.29.77ZM152,68.94l.9.32,4.55,3.66,1.67,1.15.83,1,.83,1-.06.39-1.09-.77-1.09-1.16-1.41-1.09-1.61-1.35-1-.64-1.22-1-1-.71Zm.32,3.85v-.45l.19-.13.71.52.77.7,1.09.83,1.79,1.42,1.16.83,1.6,1.28.58.84-.32.12-1.09-1L156.44,76l-1.6-1.35-1.22-.71-.83-.89Zm.38-15.9.2-.07,1.21,1.09,1.29,1,1.15,1,1.67,1.09.38.38-.38.32-1.8-1.28-1.41-1-1.92-1.54-.64-.64Zm10.91-6.29-1.22-.83-1.16-.9-1.22-1-2.24-1.92L156,44.51l-1.21-1-1.54-1.15-.65-1,1.42,1,1.73,1.22,1.47,1.16,1.09.83,1.22,1.22,1,.77,2,1.54,1.15,1Zm-9.69,4.68v-.13l.07-.45,1.53,1.16,1.16.83L158.17,58l1.35,1,.83.71-.19.32-1.28-.64-2-1.93-2.05-1.41Zm.77-3,.9.51,1.86,1.48,2,1.53,1.47,1.29,1,.51-.32.58-.25-.13-4.94-3.85L155.16,53l-.58-.39Zm8.72-5.52v.39l-3.72-2.76-1.28-1.09-1.28-1-1.09-1,1.15.26L159,43.1l2.24,1.66L162.86,46Z"/>
            <path d="M179.27,86.77l-.32-.06-1.48-1-1.41-1-1.73-1.34-.77-.84L172,81.32,170.55,80l-1.16-.71-3.2-2.82v-.45l1.22.77,1.15.9,1.16,1.15,1.09.64,1.79,1.61,1.28.83,1.48,1.41,2.31,1.6,1.47,1.1.39.51ZM166.44,73l1.16.9,1.67,1.35.7.45,5.13,4.23,1.22.83.9.77,1,.77,1.22,1.16,1.09.89,1.6,1.22.58.39-.06.13-.65.06-3.07-2.31-1.22-1.22-1.8-1.41L174.27,80l-3.4-2.7-1.09-.89-1.28-1-.84-.9-1.28-.9Zm.07-2.37.06-.26.19-.32,1.54,1.28,1.42,1.16,1.28.9,1,1,1.86,1.54,1,.77,1.6,1.34,1.09.84,2.31,1.67,1.8,1.66,1.47,1.16,1.22.9.77.64-.45.25-1.34-.83-2.06-1.8-1.15-1-1.35-1.16-1.6-1-1.28-1-1.29-1.22-1.34-1-1.16-1-3.08-2.7-2.5-1.86Zm9.17,16.1-.64-.13-2-1.35-2.51-2-1.41-1-2-1.86-.33-.71,2.57,1.93,1.28,1.09,2.57,1.92Zm-.39-12.57.26.51-.13.06-.89-.64-1.74-1.6-2.56-1.86-2.89-2.5-.32-.39.19-.51,2.89,2.44,2.37,1.92,1.29,1Zm.26-3.08.06.45-.19.13-1.41-1-1.22-1.09-2.56-2.12-1.41-1-1.54-1.48.19-.32,1.41,1,2.44,1.93,2,1.79,1.15.84Zm-7.76-9.24,1.41.84,2.37,1.86,2,1.73,1.73,1.34.77.84-.19.38-1.6-1.22-2.18-1.85-1.86-1.48-1.16-.9-1.28-1.09Zm8.79,3.66v.26l-.2.25-1.6-1.22-1.67-1.41-3.46-2.63-1.41-1.47.38-.13.39.19,1.67,1.48,1.6,1.28,1.48,1L175,64.32Zm.45-2.89-.26.52L175,61.89l-1.35-1.09-1.41-1.09-1.22-1-1.67-1.28-.51-.58.19-.58,2.63,2.31,5.13,4Zm.32-1.86-.45-.25-.84-.84L174.4,58.3l-1.22-1.16-1.22-.7-1.15-1.16-.84-.51-.58-.84.13-.38,1,.83,1.35.9.51.71,1.48,1,1.54,1.41,1.28.83.77,1.09Zm.64-3.46.06.19-.13.39-.89-.58-1.09-.9L174.08,55,171.64,53l-1.41-1.48.25-.32,1.16,1,3.59,2.82,1.28,1.09Zm.51-2.57.13.39-.26.06L177,54.06l-1.22-1-1.28-1-2.31-1.79-1-1.28.25-.2,1.29,1L174,50.92l1.22.9,2.24,1.92Zm-6.16-8.08.2-.06,1.09.9,1,.77,1.29,1.09.83.64,1.47,1.28,1,1.09-.19.26-1.41-1-1.35-1.29-.9-.64-2.63-2.11-.57-.52Zm1.22-1.92.26-.06,1.22,1,1.28,1,2.25,1.86,1.47,1,.26.71-.2.13-.7-.65-1.73-1.09-2-1.6-2.18-1.8ZM175.29,43l.32-.13L177,44.06l1.41,1.09,4.17,3.33.06.13-.64.07-1.54-1.16-1.22-1-1.09-.83-1.22-1-1.41-1.09-.32-.19Zm19.57,12.19-.07.13v.25l-.32.13-1.28-1.15L192,53.74l-1.28-.9-2.63-2.3-2.31-1.93-1.41-1-1-.9-2.95-2.38-1.16-.83L178,42.33l-.64-.52.45-.32.89.64,1,.84,1.67,1.41,1.41,1.09,1.09.77.9.9,1.41,1L190,51.3l1.48,1.1,2.37,1.86ZM187,83.12l-.13.38-.84-.26-1.15-1.15-1.92-1.28-2-1.67L179.66,78l.51-.19,1.15.84,2.31,1.86,1.86,1.41.9.89Zm-7.06-42.2.58-.2,2.82,2.06,1.16,1,2.37,1.86,1.28.9,1.54,1.34,1.6,1.22,1.16,1.09,1.22,1.09L195,52.59l-.06.32-.51-.32-1.54-1.22-1-.83-1.35-1.29L188.7,48l-1-1-2.18-1.66-4.11-3.34Zm8.53,40.4-.13.19-.38.26-1.22-1.16-1.09-1-2.24-1.73L182,76.7l-.45-.51.26-.32,1,.77,1.86,1.66,2.44,1.8Zm-6.16-7.44V73.5l.33-.13,5.06,3.91.9,1,1.09.71v.39l-.26.19-.12-.13-1.61-1.22-2.95-2.44-2.05-1.54Zm.45-2.95.07-.19.25-.13,1.29,1.09L188,74.52l1.29,1.09L190.62,77l-.38.32-.84-.77-1-.83-1.15-.9-4.43-3.59ZM195,49.06l.13.51-.13.13-1-.77-2.25-1.79-1.34-1.22-1.67-1.28-1.09-.77-1.86-1.54-2.5-1.8.13-.26,1,.07,2.11,1.73,1.41,1.41,1.61,1.09,2.76,2.31,1.28,1ZM191.26,74.2v.19l-.12.39-.84-.58-1.09-1.09-1.86-1.54-1.41-1-1.73-1.42-.71-.51.13-.51.9.51,1.86,1.67,3.27,2.5,1,.9Zm.71-2.63-.07.32-.19.19-.77-.44-1.54-1.29-1.47-1.41-2.44-1.67-1.6-1.66.13-.39,1.15,1,3.66,2.69,1.47,1.35,1.54,1.15Zm.64-2.56.06.38-.25.19L191,68.43l-1.16-1-2.31-1.8-2.11-1.73-1-1,.13-.45,1.28,1,1.22.9,1.16,1,2.3,1.8,1,.9Zm-7.76-9.3,1.35,1,2.37,1.93,1.15,1,2.18,1.54,1,1,.19.39-.06.38-.45-.26-1.74-1.54-3-2.24-1.28-1.22-1.67-1.41Zm8.72,3.91.07.19-.07.45-.77-.51-2.63-2.18-2.31-1.8-1.34-1-1.28-1.34.06-.39,3.08,2.38,1.67,1.21,1.09.9,1,.77,1,.84Zm-7.89-9.43h.07l1.34.77,1.8,1.67,1.86,1.47L192,59.19l1.22.84.84,1-.13.2-2.57-1.74-1.34-1.34L188,56.69l-1.47-1.22-.84-.83ZM194.47,58l.06.45-.32.13-1.21-1-2.06-1.92-1.54-1-2.31-1.86-1.21-1.15.19-.45,1.28,1.16,1.35,1,1.35,1.09,1.6,1.09,2,1.79Zm-.06-12-1.22-.9L192,44.31l-1.22-1-1.15-.83-1.28-1-1.09-1,.13-.06,1.34.45,1.54,1.15,1,.9,1.48,1.15L194,45l.25.58Z"/>
            <path d="M198.19,74.46l-.13-.52.19-.06,1.22.9,1.09.83,1.15.84,1.35,1.34,1.54,1.28,1.86,1L209,82.47l3.14,2.31.57.64.26.32-.26.2-3.65-2.57-1.22-1.15-2.18-1.86-1.35-.84-1-.7-1.09-.9-1.47-1.35-1.74-1.34Zm0,2.82.06-.71,3.46,3.15,1.29,1,5.13,4,1.54,1.41-.52.06-1.73-1.28-4-2.89-2.57-2.3-1.22-1Zm.32-5.77-.07-.07.13-.45.64.39,1.73,1.28,1.29,1.22,2.63,2.05L206,77l2.44,1.86,2.31,1.86,1.15,1.09,2.25,1.67,1.47.9.45.51-.51.26-.9-.64-2-1.35-1.15-1-2.31-1.79-1-.9L206,77.66l-3.53-2.75-3.27-2.7ZM207.42,75v.51l-.13.07-2.69-2-3.85-3.27-1.47-1.16-.45-.44.06-.52,1.28,1,1.09.9,2.38,1.86,1.15,1,1.22.9Zm.07-3.14v.32l-.32.19-.84-.58-1.47-1.09-.84-1L202.8,69,202,68,200.5,67l-1.22-1.21.06-.33,1.28.84,1.67,1.28,1,1,1,.57,1.6,1.48Zm-2.25,13.72-.45.19-2-1.28-3.21-2.76V81l1.22,1,1.16.9,1.6,1.29Zm2.63-16.61.06.52-.19.06-1.15-1-1.35-.9-.9-.57-4-3.4-.64-.77.19-.32,1.35,1.09,1.22,1,1.41,1,.77.77,1.15.83,1.16,1Zm-7.76-8.46.06-.39.13-.19L201.78,61l1.41,1,.83.77,1.09,1,1.61,1.34,1.47,1.35V67l-1-.7L205.75,65l-1-.9L203.32,63l-2.12-1.67Zm.58-2.76-.07-.13-.06-.38.32-.13.77.7.9.84,1,.7,1,.9,1.09.77,1.15,1,1.35,1,.58,1-.32.19-.19-.06-.84-1-1.28-1-.77-.64-1-.77-1.09-.83-1-.84-1.15-.9Zm8.66,3.14v.39H209l-1.93-1.54-1.67-1.16-2.75-2.37-1.74-1.35.2-.38,1.41,1,1.28.9,4.43,3.59Zm.12-2.12L209,58.3l-.65-.58L207,56.5l-2.24-1.8-1.61-1-.83-1-.77-.71.26-.32.83.51,1,1,4.49,3.33,1.47,1.54v.45Zm.65-3.14L209,55.15,206.4,53l-4-3.21-.26-.64.06-.45L203.32,50l1.22,1,1.28.83,2.11,1.67,1.48,1.22.77.58Zm.57-3,.07.06-.2.52-1-.71-1.22-1.16-1.15-.64-1.48-1.28-2.24-1.86-1.09-1.15.13-.39L204,47.14l1.6,1.34,2.18,1.74,1,.7,1.15,1Zm.58-2.18-1.15-.64-1-1-4.49-3.46-1.6-1.6.19-.39,1.35,1.16,1.92,1.6,1.8,1.28,1.86,1.54,1,1Zm-7.44-9.17.32-.07,1.73,1.29,4.56,3.78,1.34.9-.25.57-.2-.25-1.41-.84-1.22-1.09-2.3-1.86-1-.77L204,41.81l-.25-.25Zm3.4-.07.64-.06,1.8,1.35,1.21,1,1.35,1.28-.06.45-.9-.77-2.44-1.86Zm2.69,36.43.13-.51,2.82,2,1.09,1.1,1.16.64,1.41,1.34,1.73,1.41-.32.33-1.67-1.29-1.54-1.28-1.47-.9L212,79.27Zm1-36.43.9-.06.64.64.13.77Zm8.79,40.6.07.19-.39.26-1.28-1.16-1.16-1-1.21-1-1.16-1L212.74,77l-.25-.71.25-.25,3.53,2.69,2,1.92ZM221,79.46l-.12.26-.26.12-1.28-1-1.16-1-2.37-1.74-1.09-.83-1.09-1.22.19-.25,1.41,1,1.35,1,2.82,2.24ZM222,77.28l-.12.19-.33.19-.51-.32-1.54-1.47-1.15-1-1.48-.84-1.28-1.22-1.35-1.21.13-.39,1.48,1,1.79,1.47.77.45,1,.83,1.09,1,.9.83Zm-7.12-8.79.13-.06.65.51,1.15,1,1.28,1,3.08,2.63,1.48,1.22-.26.38-1.67-1.22-2.12-1.73-.89-.9-1.67-1.21-1.16-1.35Zm.58-2.82.07.07.83.7,1.8,1.48,1.15.89,1.48,1.09,1.86,1.61.51.64-.13.38-1.41-1.15-1.41-1.22L218.45,69l-2.63-2.25-.38-.7Zm.39-1.86-.07-.45.32-.19,1.29,1,2.69,2.11,1,.77,1.47,1.28,1.28,1.29-.19.38-1.35-1.15-1.92-1.61-.64-.38-1.22-1.09-1.22-1Zm8.53,3,.06.32-.19.32L223.9,67l-1.15-1-2.25-1.61-1.28-1.09-1.41-1.09-1.35-1.47.07-.39,4,3.27L222,64.77l2,1.48Zm.64-2.63-.07.25-.19.26-1.28-1.16-2.5-2-1.35-1.16-1.09-.77-1.09-1L217,58l.13-.32.77.64,1.09.83,1.47,1.16,1.09,1,1.54,1.22,1.09,1Zm.32-2.83.06.39-.19.13-1.54-1.29-4.49-3.52-1.28-1.16-.45-.57.13-.33,3.33,2.7,2.12,1.67,1.6,1.28Zm.45-2.5-1.54-1-1.67-1.41-1-.65-3.27-2.62-.44-.45.12-.45,1.54,1,1.29,1,1.34,1.21,1.28,1.09,2.38,1.86Zm.57-3,.13.51-.19.07-1.6-1.22-1.61-1.35-1.09-.7-1.66-1.48-1.48-1.22-.45-.7.07-.45,1.28,1.15,1.6,1.09,1.29,1.28,1.41,1,1.6,1.35Zm.52-2.82.13.13-.13.38-1.73-1-5.33-4.23-1-1.15v-.39l.64.32L221,48.23,223.2,50l2.31,2.24Zm.7-2.44v.45l-.25.06-1.48-1.22-1.15-1-1.29-1-2.18-1.73-1.34-1.29-.64-.77.25-.25L220.7,45,223,46.75l1.15.84,2.24,1.92Zm.2-3.08.38.39-.19.51-.9-.58-1.73-1.54-1.35-1-2.37-1.86-1.28-1.22-.52-.64.32-.32,1.29,1.15,2.69,2.31,2.57,1.92Zm-5.13-6.35.12-.13.9.07,1.93,1.47,2.05,1.8,1,1.15-.06.26-1.8-1.28L225.19,43l-1.41-1.09Zm4.1-.06h.64l1.86,1.67-.38.25-1.16-1Z"/>
            <path d="M233.39,49.13l.26.83-1-.71-.58-.77.19-.38Zm4.81.83-.7.06L236,48.68l-1.86-1.29-1-.89-.52-.52.13-.57,2.44,2.05,1.73,1.22Zm-1.6,35.85-.64.13-1.73-1.09-1.16-1,.13-.51,1.15.9,1,.7Zm-3.46-43,.51.19,1.8,1.67,1.66,1,1.29,1.22,2.69,2.18,1.35,1,1.21,1,2.57,2.12,1.54,1.41-.26.26-1.35-1.09-1.41-1-1.41-1.09-1.41-1.28-1.6-.9-3.78-3.27L235.06,45l-1.28-1.28-.64-.39Zm7.44,43.09h-.77l-.77-.45-1-.64-1.6-1.34-1.67-1.35-1.09-1,.13-.45,1.6,1.22,3.08,2.57,1.22.83Zm1.28-2.05L242,84l-.07.39-.32.13-.58-.45-1.66-1.41-4-3.34-1.22-1.15.32-.32,1.41,1.21,2.5,2.06,1.16.89,1.09.84Zm-7.25-8.4.58.19,1.15.84,1.48,1.09,2,1.73,1.21,1,1.48,1.35-.26.38-4-3.33-3-2.18-.71-.58Zm13.66-23.28-.19.19-.83-.83L246,50.6l-1.47-1.28-2.5-2-1.16-1-1.28-1.09-1.28-1-2.12-1.73-1.47-1.15.19-.32,1.86,1.22,1.28,1,2.31,2,2.44,1.92,1.47,1,1.41,1.09,1,1,1.35,1ZM235.12,72.47l1.16,1,1.73,1,1.41,1.28,1.16,1L242.44,78l.38.77-.19.39-2.63-2-1.16-1-1.41-1.28-1-.71-1.35-.89Zm8.41,3.59-.07.32-.13.19-.32-.25L240.26,74l-2.19-1.67-1.73-1.41-.77-.83.32-.32,1.22,1,2.7,2L242.37,75Zm.57-2.69-.06.25-.13.32-.45-.32-1.6-1.28L240.26,71l-1.42-1.09-2-1.66-.77-.84.19-.32,1,.71,1.92,1.54,1.16.89,1.22,1,1.86,1.48Zm.26-3.08.26.45-.32.19-.33-.32-1.53-.9L240.64,68l-1-.64L238.14,66l-1.41-1.28.19-.32,1.6,1.09L240.26,67l.83.64,1.6,1.54Zm.7-2.5-.06.45-.26.12-1.47-1.28L242,66l-1.48-1.09-1.79-1.41L237.11,62l.19-.38,1.22,1,1.16,1,1.66,1.35Zm-7.31-8.6.9.45,1.41,1.09,1,.71,1,.9,1.74,1.41,1.28,1,.38.32-.06.45-.71-.38-1.66-1.35-1.41-1-1.22-1.09-1.29-1-1.34-1.16Zm8.34,3.53-.26.26-1.66-1.54-1.67-1.16L241,59l-2.11-1.67-.71-.83.2-.32.44.26,1.54,1.21,1.54,1.16,1.48,1.35,1.92,1.53Zm3.46-13.08V50l-.7-.07-.9-1-1.22-.83-.83-.71-1-.77-1-.89-1-.9-1-.77L240.19,43,238.27,41h.51l1.28,1,1.09.77,1,.7,1,1,1.16.77,1,.9,1,.83,1,.71,1.15.9Zm-3,10.2.06.38-.25.13-1.29-1.09-1.92-1.73L241,55.86l-1.73-1.28-.39-.9.07-.32L240,54.45l1.79,1.22L244,57.46l1,1,1.35,1Zm.51-2.89-1-.26L243.59,55l-1.22-1-2.18-1.86-1-1.22.19-.26,2.5,2.25,2.31,1.79,1.09.71,1.22,1Zm-5.38-15.78h.83l1.92,1.16,1.22,1,1.28.9,2.31,1.86,1.22,1,3.66,2.82h-.71l-1.86-1.15-2.37-1.92-1.22-1-1.28-1-1.22-1L243.2,42.2Zm4.81-.13.25.07,1.54,1.09,2.82,2.11,1.09,1.22,2.18,1.67,1.16,1-.19.32-1.35-1-1.22-.84-1.15-1-1.41-1.22-2.63-2.12-1.42-1.09-.06-.13.32-.06Zm3.65,0,.71.13,1.47,1.29,2.37,1.85,1.1.9.25.45-.25.39-1.1-1L253.53,44l-1.73-1.15-1.54-1.41-.39-.19v-.13Zm3.85.13.38-.06,1.29,1,.7.84-.06.32Z"/>
            <path d="M270.14,74.46l-.13-.52.19-.06,1.22.9,1.09.83,1.16.84L275,77.79l1.54,1.28,1.86,1L281,82.47l3.14,2.31.58.64.25.32-.25.2L281,83.37l-1.22-1.15-2.18-1.86-1.35-.84-1-.7-1.09-.9-1.47-1.35L271,75.23Zm0,2.82.06-.71,3.47,3.15,1.28,1,5.13,4,1.54,1.41-.52.06-1.73-1.28-4-2.89-2.57-2.3-1.22-1Zm.32-5.77-.07-.07.13-.45.64.39,1.74,1.28,1.28,1.22,2.63,2.05L278,77l2.44,1.86,2.31,1.86,1.15,1.09,2.25,1.67,1.47.9.45.51-.51.26-.9-.64-2-1.35-1.15-1-2.31-1.79-1-.9-2.24-1.8-3.53-2.75-3.27-2.7ZM279.37,75v.51l-.13.07-2.69-2-3.85-3.27-1.47-1.16-.45-.44.06-.52,1.29,1,1.09.9,2.37,1.86,1.15,1,1.22.9Zm.07-3.14v.32l-.32.19-.84-.58-1.47-1.09-.84-1-1.21-.7-.84-1L272.45,67l-1.22-1.21.06-.33,1.28.84,1.67,1.28,1,1,1,.57,1.6,1.48Zm-2.25,13.72-.45.19-2.05-1.28-3.21-2.76V81l1.22,1,1.16.9,1.6,1.29Zm2.63-16.61.07.52-.2.06-1.15-1-1.35-.9-.9-.57-4-3.4-.64-.77.2-.32,1.34,1.09,1.22,1,1.41,1,.77.77,1.16.83,1.15,1Zm-7.76-8.46.07-.39.12-.19L273.73,61l1.41,1,.83.77,1.09,1,1.61,1.34,1.47,1.35V67l-1-.7L277.71,65l-1-.9L275.27,63l-2.12-1.67Zm.58-2.76-.07-.13-.06-.38.32-.13.77.7.9.84,1,.7,1,.9,1.09.77,1.16,1,1.34,1,.58,1-.32.19-.19-.06-.84-1-1.28-1-.77-.64-1-.77-1.09-.83-1-.84-1.15-.9Zm8.66,3.14v.39H281l-1.93-1.54-1.67-1.16-2.75-2.37-1.73-1.35.19-.38,1.41,1,1.28.9,4.43,3.59Zm.12-2.12L281,58.3l-.65-.58-1.41-1.22-2.24-1.8-1.6-1-.84-1-.77-.71.26-.32.83.51,1,1,4.49,3.33,1.47,1.54v.45Zm.65-3.14-1.16-.45L278.35,53l-4-3.21-.26-.64.06-.45L275.27,50l1.22,1,1.28.83,2.12,1.67,1.47,1.22.77.58Zm.57-3,.07.06-.19.52-1-.71-1.22-1.16-1.15-.64-1.47-1.28-2.25-1.86-1.09-1.15.13-.39,1.41,1.16,1.6,1.34,2.18,1.74,1,.7,1.15,1Zm.58-2.18-1.15-.64-1-1-4.49-3.46-1.6-1.6.19-.39,1.35,1.16,1.92,1.6,1.8,1.28,1.86,1.54,1,1Zm-7.44-9.17.32-.07,1.73,1.29,4.56,3.78,1.34.9-.25.57-.2-.25-1.41-.84-1.21-1.09-2.31-1.86-1-.77L276,41.81l-.25-.25Zm3.4-.07.64-.06,1.8,1.35,1.22,1,1.34,1.28-.06.45-.9-.77-2.44-1.86Zm2.69,36.43.13-.51,2.82,2,1.09,1.1,1.16.64,1.41,1.34,1.73,1.41-.32.33-1.67-1.29-1.54-1.28-1.47-.9L284,79.27Zm1-36.43.89-.06.65.64.12.77Zm8.78,40.6.07.19-.39.26L290,81.06l-1.16-1-1.21-1-1.16-1L284.7,77l-.26-.71.26-.25,3.52,2.69,2.06,1.92Zm1.28-2.31-.12.26-.26.12-1.28-1-1.16-1-2.37-1.74-1.09-.83-1.09-1.22.19-.25,1.41,1,1.35,1,2.82,2.24Zm1.1-2.18-.13.19-.32.19-.52-.32-1.54-1.47-1.15-1-1.48-.84-1.28-1.22-1.34-1.21.12-.39,1.48,1,1.79,1.47.77.45,1,.83,1.09,1,.9.83Zm-7.12-8.79.12-.06.65.51,1.15,1,1.28,1,3.08,2.63,1.48,1.22-.26.38-1.67-1.22-2.11-1.73-.9-.9L288,70.1l-1.15-1.35Zm.57-2.82.07.07.83.7,1.8,1.48,1.15.89,1.48,1.09,1.86,1.61.51.64-.13.38-1.41-1.15-1.41-1.22L290.4,69l-2.63-2.25-.38-.7Zm.39-1.86-.07-.45.32-.19,1.29,1,2.69,2.11,1,.77,1.47,1.28,1.29,1.29-.2.38-1.34-1.15-1.93-1.61-.64-.38-1.22-1.09-1.22-1Zm8.53,3,.06.32-.19.32-.38-.45-1.16-1-2.24-1.61-1.29-1.09-1.41-1.09-1.34-1.47.06-.39,4,3.27,1.41,1.09,2,1.48ZM297,64.2l-.06.25-.2.26-1.28-1.16-2.5-2-1.35-1.16-1.09-.77-1.09-1L289,58l.13-.32.77.64,1.09.83,1.48,1.16,1.09,1,1.54,1.22,1.09,1Zm.32-2.83.06.39-.19.13-1.54-1.29-4.49-3.52-1.28-1.16-.45-.57.13-.33,3.33,2.7L295,59.39l1.6,1.28Zm.45-2.5-1.54-1-1.67-1.41-1-.65-3.27-2.62-.45-.45.12-.45,1.54,1,1.29,1,1.34,1.21,1.29,1.09,2.37,1.86Zm.58-3,.12.51-.19.07-1.6-1.22-1.6-1.35-1.09-.7-1.67-1.48-1.48-1.22-.45-.7.07-.45,1.28,1.15,1.6,1.09,1.29,1.28,1.41,1,1.6,1.35Zm.51-2.82.13.13-.13.38-1.73-1-5.33-4.23-1-1.15v-.39l.64.32,1.47,1.16L295.15,50l2.31,2.24Zm.7-2.44v.45l-.25.06-1.48-1.22-1.15-1-1.28-1-2.18-1.73-1.35-1.29-.64-.77.25-.25L292.65,45,295,46.75l1.15.84,2.25,1.92Zm.2-3.08.38.39-.19.51-.9-.58-1.73-1.54-1.35-1-2.37-1.86-1.28-1.22-.52-.64.33-.32,1.28,1.15,2.69,2.31,2.57,1.92Zm-5.13-6.35.12-.13.9.07,1.93,1.47,2.05,1.8,1,1.15-.06.26-1.8-1.28L297.14,43l-1.41-1.09Zm4.1-.06h.64l1.86,1.67-.38.25-1.16-1Z"/>
            <path d="M300.34,73.18v-.33l.26-.12,1.41,1,1.22,1,1.15.84,3.4,2.82,2.89,2.24,2.5,2.12,1.34,1,2.51,2-.45.26L315,85l-3.21-2.5L310,80.81,307.52,79,305,76.83l-1.34-1-2.18-1.73Zm13.85,13.4h-.64l-.64-.39-1.09-.64-1.35-1.22-1.41-1-1.47-1-1-.9-1.41-1.28-1.09-.83-1.61-1.16-1.09-1-1-1.09.06-.45,1.15,1,2,1.61,3.53,2.88.83.58,1.41,1.22,1.93,1.41.83.7Zm-4.93-9.81-.52-.07-1-.7-1.09-.9L305,73.69l-3.65-2.89-.58-.45.38-.32.84.58,1.73,1.28,1,.84,1.34,1L307.4,75l1.47,1.09ZM309,85.55l.19,1-1.73-1.6-3.21-2.31-1.66-1.34-.84-.84-.77-.64,1,.19,1.09.9,1.28,1,1.16.9,1.15,1,1.22,1Zm-4.68-.45-.58-.45L302.46,83l3.27,2.75Zm-.71-15.39h.84L307.52,72l1.35,1.41v.19l-2.56-1.86Zm18.92-.77-3.46-2.5-3.59-2.95-1.67-1.41-1-.71-1-.83-1.6-1.22L308,57.4l-3.47-2.76-.51-.32.07-.64.7.51,2.25,1.6,2.5,2.25,1.47,1.15,1.09.9,1,.84,1.16.64L316,63l3.14,2.63,1.41,1.09,1.8,1.48Zm-2-4.74-1-.77-1.15-.84-1.54-1-1.22-1.09-2.05-1.74-2.06-1.53-1.41-1.09L308,54.32l-2.12-1.6-1.35-1.09-.44-.45v-.64h.12l1,.89,1.86,1.41,2.56,2,2.95,2.44,2.69,2.12.9.83,1.48,1.22,1.66,1.15,1.1,1.35ZM314,56.05l-1-.7-2.18-2-1.61-1-3.08-2.7-1.34-1.34L305,48l1.29,1.22,1.41,1L309.9,52l1.34.9L312.53,54l1.28,1.41Zm-9,1.67.39-.13.7.71,1.48,1.28,1.28.9,2.05,1.66,1.73,1.48,2.51,1.92,2.69,2.25,1.41,1,2.25,1.74,1.21,1.09.64.7-.19.45-.64-.45-3.53-3-1.15-.83-5-4-2.31-1.79-1.09-1-1.35-.9-1.28-1.35-1.35-1.09Zm7.63-6.29-1.41-.77-1.47-1.15-1.28-1-2.12-1.66-.83-.77.25-.32,1.22.77,1.16,1,1.09,1,1.41,1,1,.84,1,.7Zm.77-3-.06.32-.26.33-1.15-1-2.69-2-1.93-1.6L307,43.8l.19-.19,1.16,1L312,47.33Zm-6.15,21.17h.9l.7.51.07.71-.39-.26ZM325.1,54.77,325,55l-.45.19L323.17,54l-2.56-1.93-1.09-1-1.67-1.34-1.09-1.29-1.09-.7-.64-.19-1.22-1.16-2.44-1.79-2-1.54-.7-.77.45-.2,1.09,1,2.43,1.66,1.42,1.09,1.41,1.35,1.73,1.09,1.28,1.41,1.41,1,2.5,1.86,1,.9,1.35,1.16ZM311.05,65.48l.77.51,1.67,1.41,1.09.77,2.24,1.8,1.09,1,1.09.83L320.42,73l1,.77,1,.9.7.83-.13.45-.89-.77-1-1-1.54-1-3.33-2.82-1.22-.9-2.18-1.67-1.29-1.47ZM325.42,52l.06.39-.19.12-1.35-.89-1.28-1-1.35-1.28-1.28-1-1.41-1-4.94-4.17-1.28-1-1.16-1.09.07-.07h.45l1.66,1.09,1.16,1,1.09,1,1.15.9,2.31,1.92,1.22.84,1.73,1.54,1.28,1.09,1.35,1ZM311.56,79l.07-.38.58.06,1.34,1.15,2.5,2.12,1.61,1.22,1.6,1.35-.38.25-1.67-1.15-1.35-1.16-1.22-1Zm2.25-2L314,77l1.28,1.09,1.42,1,2.75,2.25,1.54,1.6-.25.2-1.35-1-1-.83-2.31-1.92-1.09-1-1.28-1Zm.19-5.45-.06-.58h.13l1.34,1,1.29,1,2.11,1.67L320,75.74,321.76,77,323,78.37l-.19.26-1-.77-1-.9-1.6-1-2.7-2.44-1.73-1.35Zm.07-31,.57-.12,2,1.28,2.5,2.12L320.67,45l1.54,1,1.28,1,1.41,1.29.58.51.07.58-.07.12-1-.89L322.15,47l-2.38-2-2.63-2-1.47-1Zm.25,33.87,1.09.64,1.16.9,1.22,1,1.09.9,1.21.89,1.61,1.42.45.83-.13.32L320.61,80l-4.11-3.2-1.79-1.35-.39-.45ZM322,55.28l-.71.13-3.4-2.57-.38-.51.06-.32,1,.51,2.18,1.67Zm2.82-10,.38,1.09-3.52-2.89-1-.77-1-1-1.22-1h.83L321,42.2l1.35.9,1,1Z"/>
          </g>
          <g>
            <path class="cls-2" d="M97.74,86l-.45-.06-4.68-.07L92,85.74l-.13-.51.13-.45.06-.38.39-.77.51-.84.64-1.92L94,80.1l.32-.77.7-1.54L95.3,77l.51-1.16.13-.38.32-.45.32-.77.13-.38.06-.45L97,73l.32-.83.19-.45.45-.9.13-.45.13-.57.32-.52.38-.77L99,68l.38-.89.07-.39.19-.45.19-.38.32-.9.2-.39.51-1.79.19-.51.45-.84.32-1.09.39-.7.19-.39.19-.83.32-.45.19-.83.13-.32.39-.84.19-.9.32-.45.26-.38.51-1.35.32-.83.19-.39.39-.57.19-.64.19-.45.58-1.16.13-.45.19-.38.13-.39.13-.45.38-.7.26-.38.13-.33.38-1.15.45-.83.58-1.16.19-.45.19-.38.26-.71.45-.06h.64l1.22.06.64-.06h1l1.22-.07H116l.45.13.58-.06h1l.32.13.45.32.19,2.75v1.42l.13.38v1.15l.07,2.31v.9l.06.83.13,1.29v.9l.06,1-.06.45v1.41l.13.9v1.28l.06.9-.06.38.06.83V61l.07,1,.12.7v2.5l.07.77.06.52v1.92l.07,2.95v.45l.06,1-.06,1,.06.9-.06.45.12,2.44v.38l.07.83.06.45v1l-.06.89.06.52v.57l.07,1.41v1.35c.06.26.13.83-.2,1a2.73,2.73,0,0,1-.7,0l-.45.06-.51-.06h-.9l-1.41.06h-.51l-.77-.06-.45.06-.64.07-.84-.07h-1l-.26-.19-.12-.64L111.46,84l-.06-.64.06-.64v-3l-.06-.52L110,79.14,109,79,106.14,79h-1.73l-.32.7-.45.84-.13.44-.19.45-.26.77-.64,1.22-.39,1-.19.71-.19.32-.26.45-.38.26L99.21,86l-.51.07ZM111.2,70.61l.39-.32.06-.9-.06-.51.06-.52V66.7l.07-.45V65.16l.13-.52-.07-1.53.07-2.44.06-2.31-.06-1.47-.52.19-.25.83-.32,1-.2.64-.32,1-.25.52-.26.64-.06.45-.26.45-.19.57-.2.45-.19.58-.38,1.41-.07.45-.32,1-.25.45-.33,1.09-.12.45-.13.58-.19.45.44.38H108l.7.07.58.06Z"/>
            <path class="cls-2" d="M131.08,85.87h-.51l-1,.07h-2.63l-.38-.07H126l-1-.06-.57-.07-.45-.38.06-.51.13-.64v-1l.19-.51.13-.58.13-.89.13-.77.06-.45.26-.84.13-.9.06-.89.13-.39.06-.45.13-.45.07-.51.19-.51.06-.39.13-1,.13-1,.26-.65-.07-.64.19-.89.2-.52.12-.51.07-.39v-.44l.19-.84.13-.83.06-.45.2-.77v-.39l.06-.25.13-.64.26-.9.06-.9.13-.32.25-.83.07-.52.25-.89.13-.9v-.52l.07-.44.12-.45.2-.58.06-.58.07-.77.12-.45.07-.38.19-.51.06-.58.07-.39v-.44l.13-.39.06-.38.13-1,.26-.89.12-2.06.2-1,.19-.83.38-1.54.2-.84V43.8l.06-.45.06-1,.13-.58.2-.32.57-.51.9-.06h1.6l.39.06.7-.06h1.35l3.14.12,2.57-.06.9.06h1.92l.71.13.64.07,1,.25.77.2.64.32.58.25.7.58.84.9.57.51.26.39L153,45l.26.77.38.89.07.52v.45l.13.51.12.77-.06,1-.06.39v.44l-.07.39-.13.45v.38l-.12.84-.07.45-.26.83.07.38-.13.45L153,55l-.07.45-.13.39-.12.45-.2.38-.25.58-.45.7-.45.65-.51.77-.84.83-.32.26-.32.38-.32.26-.45.25-.77.45-.77.32-.57.26v.39l.64.25.7.39.58.25.77.52.38.44.39.39.38.64.26.45.32.71.13.64.19.38.13.84.26.83-.07.83.13.64-.06.58v.83l-.07.45-.13,1-.19,1-.19.83-.07.45-.19.9-.13.38-.12.45-.13.39-.13.45-1,2.05-.57.77-.39.7-.32.32-.45.39-.26.32-.51.32-.38.19L146,84l-.45.26-.32.26-.32.19-.45.19-.52.26-.7.19-.51.19-.39.07-.58.06-.83.19-.39-.06-1,.19-1-.06-.45-.07-.45.07L136,86l-.83-.06-.52-.07h-.89l-.52.07h-.19l-1,.06Zm4.75-8.33,1.6.19h1.22l.45-.19h.45l.45-.2.57-.45.45-.38.39-.58.06-.51.32-.71.13-.45.07-.51.32-.83.12-1.16-.06-1.09.06-.83-.57-1.54-.71-.64-1.22-.45-.64-.13-.51-.13h-.9l-.7-.06h-.9l-.19.58L136,68.62l-.13.51-.13.26-.13,1-.13.45v.45l-.12.39-.07.51-.13.9-.12.45-.2,1v.45l-.13.89-.12.52-.07.51-.25.83,1,.07ZM140.25,58l.77-.13.52-.32.7-.45.77-.64.32-.58.52-.64.32-.9.19-.77.13-.38.06-.51.26-.65-.07-.7-.06-.45-.06-.77-.39-.77-.19-.32-.51-.45-.39-.06-.58-.13-1.15-.13h-1.6l-.52.13v.45l-.19.58L139,50l-.07.45-.19.77v.45l-.19.83-.07.45-.13.39L138,56.5l-.13.51-.07.64V58h.84l.77.06Z"/>
            <path class="cls-2" d="M166.8,86.77l-.83.07-.45-.07-.58-.06-1.47-.45-.52-.07-1-.25-.45-.26-.89-.58-1.16-1-.9-1-.19-.33-.32-.32-.19-.38-.32-.45-.52-.83v-.39l-.19-.45-.06-.38-.13-.32-.13-.39-.06-.45-.13-.38-.07-.9-.06-.38L156,75.48l.13-.45V73.82l.19-.64-.07-.52v-.45l.13-1.41.26-.9v-.51l.13-.9V68l.25-.89-.12-.32.12-.84.13-.45.19-1.15.2-.77v-.83l.19-.77v-.45l.19-.39.13-.45v-.38l.13-.45-.07-.39.39-.64.13-.45v-.89l.13-.77.19-.45.06-.39.13-.9.26-1.6.32-.45.13-.83.38-.84.19-.44.26-.77.32-.9.38-.77.26-.45.58-.83.06-.45.26-.39.51-.83.52-.77.44-.32.32-.39.9-1,.84-.57.51-.2.45-.32.77-.45.77-.38,1-.26.38-.06,1-.26.64-.06,1.15-.2.9-.06.77-.06,1.15.06.39.06.7.07,1,.13.51.19.52.06.38.13,1,.45,1.16.77.51.32.32.39.71.57.7.64.32.39.2.45.38.83.19.39.13.38.13.45.19,1,.13,1.22.06.51V50l-.06.84-.06.38.06.83v.45l-.06.84-.13.45-.07.38.07.45v.64l-.07.39-.12.89-.07,1-.06,1-.13.45-.13,1,.06.64-.32.7.07.77-.26.84-.13.83-.19.83-.06.77-.2.84-.19.38-.19,1.16v.57l-.13.45-.13.9-.19.39-.64,2.24.06.39-.32.77-.19.38-.06.71-.32.7-.2.77v.45l-.19.71-.32.44-.06.64-.45.9-.52,1.16-.32.45-.57.83-.26.38-.32.39-.13.38-.77.77-.38.33-.32.38-.77.58-.77.51-.26.19-1.48.58-.44.06-.52.13-.9.19-.44.07-.71.19-1.41.19Zm2-8.53.9-.26.58-.25.89-.64.45-.9.39-.9.13-.45v-.51l.19-1,.13-.45.12-.9.2-.51.06-.9.19-.45.2-.83.06-.52.19-.38v-.51l-.06-.2.19-.57.19-1,.13-1.47.19-.58.2-.51.12-1.22.2-.38-.07-1.09.26-1,.13-.77.13-.51.12-.45-.06-.45.06-.83.13-.51.19-.9.13-.58v-.83l.13-1.16.06-.83.13-.9L175.72,50l-.26-.39L175,49l-1-.45-1.22.06-.52.13-1,.39-.64.57-.45.71-.26.77-.26.45-.38.83-.13.45-.13.51-.38,1.35v.13l-.07.51-.19.9-.06.38-.26.9-.19.9-.19,1-.07.45-.13.45-.12,1-.2.52-.25,1-.13.45-.13.9v.45l-.06.45.06.51-.19.45-.32.9.06.51L166,68l.07.26-.13.57v.52l-.13.45v.51l-.19,1v.45l-.19.45.19.45-.07.77-.25.64.19.45v1.79l.19.45.13.26.38.58.33.32.51.19.51.13.39.06Z"/>
            <path class="cls-2" d="M195.34,86l-.45-.13-.26-.13-1.09-.38-.45-.19-.38-.2-1.28-.76-.65-.65-.38-.44-.32-.39-.32-.51-.07-.2-.51-1-.51-.9-.26-1-.06-.89L188.09,76l.06-.39.07-2.18.13-.58.25-1.73.07-.83.06-1,.13-.77.13-.64v-.84l.26-.77.06-.45.06-.38.2-.77-.07-.45.07-.45.19-.77.13-.45v-.83l.25-.83.07-.9.19-.84.26-.89v-.52l.06-.89.19-.39.2-1.8.12-.38.13-.83V53l.07-.39.32-.83.06-.45.06-.51.2-.9.06-.51v-.52l.19-.9v-.44l.13-.39.19-1.79.33-.84.12-.32.13-.64.13-.9.26-.9.12-.51.39-.13,1.09-.06h.32l.58-.07,2.69.07,1.54-.13.58.06,1,.07.58.45.06,1v.9l-.12.38-.13.45.06.9-.13.45-.12.58-.13.51-.07.45-.12.38V48l-.26.77-.13.83-.06.52v.64l-.07.45-.32.89-.06.52-.2,1-.12,1-.07.39-.19.45-.06.64-.07.45-.13.51v.45l-.32.9-.06.38.13.83-.26.58-.06.58-.07.51-.13.45-.12.39-.2.77v.83l-.25.83-.13.77-.32,2.31-.19,1.28-.07.9-.19.84-.19,1.53-.07.58-.06.39-.07.45.07,1v.71l.06.77.71.83.7.19,1.35.2,1.48-.2.64-.51.38-.51.19-.39.45-1,.32-.65.13-.57.13-.39.32-1.28.19-.9.13-.45.07-.64.12-.38.13-.58.07-.58.12-.45.13-.51.07-.45.12-.83.13-.64.26-1.16.06-.77.13-.45.32-.89V61.5l.13-.83.19-.83.13-.77.26-.9.06-.52.26-.89v-.52l.13-.89.06-.33v-.89l.39-.64-.07-.71.26-.9.06-.51.13-.9.07-.51.19-.9.13-.9.12-.83-.06-.45.32-.7.06-.39.07-.77.06-.38.2-.84.19-.9.19-.83.06-.51.2-.45,1.92-.07h.45l.45.07L214.9,41h.45l.45.07h.51l.45-.07.64.07.45-.07.58-.06.51.06.51.52.07,1-.39.9-.06,1-.13.51-.13.9-.06.51-.26.9-.06.45-.13.51-.07.45-.25.84.06.38-.26.77V51l-.19.71-.13.58-.19.57-.13.58-.19.77v.45l-.13.45-.06.38-.13.45.06.45-.44,1.41-.2,1v.39l-.19.9-.06.38-.13.9-.07.9-.25.9v.44l-.13.9L215,65l-.06.83-.13.77-.19.83-.26.9-.06.45-.2.9v.13l-.25.77-.19.83v.38l-.13.45-.19.71-.13.58v.44l-.13.39-.13.45-.26.77-.25.83-.2,1.09-.32.39-.19.83-.45.83-.25.39-.39.9-.26.45-.32.44-.25.58-.39.58-.57.45-.52.64-.57.32-.52.32-.77.32-.32.26-1,.38-.39.13-.77.19-.58.13-.38.13-1.28.13h-1.48l-1,.06H198Z"/>
            <path class="cls-2" d="M224,85.94h-.45l-.57-.52.12-1,.07-1.34.45-1.35.13-.45.06-1,.13-.39.06-.9v-.44l.32-.9.07-.45-.07-.51.32-1.35v-.51l.2-.77.19-1,.13-.45.06-.45.13-.84.13-.38.06-.9.32-.64-.13-.64.07-.45.13-.45.32-.9.25-1,.13-.45-.13-.45.32-.77.13-.38v-.9l.19-.64V62l.13-.45.26-.38v-.45l.13-.39.19-1-.06-.45.32-.7v-.64l.13-.32v-.52l.06-.45.13-.45.32-1,.06-.39V54l.07-.45v-.38l.19-.84.13-.45.13-1,.06-1h-3.46l-.9-.06-.45.06H224l-.64-.06h-.51l-.58-.19-.19-.58.13-.77.19-.51v-.52l-.06-.44.25-.9.13-.39.06-.89.26-.84.19-.38v-.9l.07-.39.32-.7.58-.45.44-.06h1.67l.32.06h.45l.45-.06h4.75l.44.06h1.42l4.1-.06,1,.06,1.35-.06.58.06h4l.9.06.58.13.13.52v.38l-.07.45-.13.51v.45l-.06.39-.13.44v.39l-.13.77-.13.45-.06.38-.06.77-.26.84-.13.45-.06.89-.26.58-.64.06-.58-.06h-.77l-.57.06H242l-2.69-.06-.58.06-.13.45.07.39-.19.45v.38l-.13.39-.13.83-.06.45-.26,1.15-.26.52.13.32-.32.9-.26.83v.38l-.06.77-.06.39v.45l-.33.77-.12,1-.13.45-.19.9-.2.38v.45l-.06.83-.19.77-.26.45-.06.9-.13.38v.39l-.19.9-.2,1-.13.58v.64l-.06.38-.13.39-.06.45-.26.77-.06.44-.07.39.07.45-.19.9-.2,1-.25.84-.07.44-.19.84-.32,1.34-.13.52-.19.9.06.51-.32,1.41-.38,1.8-.13.89-.19.9-.13.39-.77.32h-5.58l-.77.19Z"/>
            <path class="cls-2" d="M267.29,86l-.45-.13-.26-.13-1.09-.38-.45-.19-.38-.2-1.28-.76-.64-.65-.39-.44-.32-.39-.32-.51-.06-.2-.52-1-.51-.9-.26-1-.06-.89L260,76l.07-.39.06-2.18.13-.58.25-1.73.07-.83.06-1,.13-.77.13-.64v-.84l.26-.77.06-.45.06-.38.2-.77-.07-.45.07-.45.19-.77.13-.45v-.83l.25-.83.07-.9.19-.84.26-.89v-.52l.06-.89.19-.39.2-1.8.12-.38.13-.83V53l.07-.39.32-.83.06-.45.07-.51L264,50l.06-.51v-.52l.19-.9v-.44l.13-.39.2-1.79.32-.84.12-.32.13-.64.13-.9.26-.9.13-.51.38-.13,1.09-.06h.32l.58-.07,2.69.07,1.54-.13.58.06,1,.07.58.45.07,1v.9l-.13.38-.13.45.06.9-.12.45-.13.58-.13.51-.07.45-.12.38V48l-.26.77-.13.83-.06.52v.64l-.07.45-.32.89-.06.52-.19,1-.13,1-.07.39-.19.45-.06.64-.07.45L272,57v.45l-.32.9-.06.38.13.83-.26.58-.06.58-.07.51-.12.45-.13.39-.2.77v.83l-.25.83-.13.77-.32,2.31-.19,1.28-.07.9-.19.84-.19,1.53-.07.58-.06.39-.06.45.06,1v.71l.06.77.71.83.7.19,1.35.2,1.48-.2.64-.51.38-.51.2-.39.44-1,.32-.65.13-.57L276,73l.32-1.28.19-.9.13-.45.07-.64.12-.38.13-.58.07-.58.13-.45.12-.51.07-.45.13-.83.12-.64.26-1.16.07-.77.12-.45.32-.89V61.5l.13-.83.19-.83.13-.77.26-.9.06-.52.26-.89v-.52l.13-.89.06-.33v-.89l.39-.64-.07-.71.26-.9.06-.51.13-.9.07-.51.19-.9.13-.9.12-.83-.06-.45.32-.7.07-.39.06-.77.06-.38.2-.84.19-.9.19-.83.07-.51.19-.45,1.92-.07h.45l.45.07,1.86-.07h.45l.45.07h.51l.45-.07.64.07.45-.07.58-.06.51.06.51.52.07,1-.39.9-.06,1-.13.51-.13.9-.06.51-.26.9-.06.45-.13.51-.07.45-.25.84.06.38-.25.77V51l-.2.71-.13.58-.19.57-.13.58-.19.77v.45l-.13.45-.06.38-.13.45.07.45-.45,1.41-.2,1v.39l-.19.9-.06.38-.13.9-.07.9-.25.9v.44l-.13.9-.26.52-.06.83-.13.77-.19.83-.26.9-.06.45-.19.9v.13l-.26.77-.19.83v.38l-.13.45-.19.71-.13.58v.44l-.13.39-.13.45-.26.77-.25.83-.19,1.09-.32.39-.2.83-.45.83-.25.39-.39.9-.25.45-.32.44-.26.58-.39.58-.57.45-.52.64-.57.32-.52.32-.77.32-.32.26-1,.38-.39.13-.77.19-.57.13-.39.13-1.28.13h-1.48l-1,.06h-1.28Z"/>
            <path class="cls-2" d="M299.74,86.64l-.45-.06h-.64l-.71-.13-.64-.13-.45-.13-1-.45-.71-.25-.64-.45-.77-.51-.64-.84-.64-.77-.58-.9-.45-1.09-.13-.51-.45-1.15-.06-.39-.19-.9-.07-.38-.13-1V74.65l.07-1.09-.07-.45.13-1,.07-.51.12-.45.2-1,.89-.45,1.54-.13.77.07h3.6l.83.06.51.9V73l-.06.45v1.35l.13,1.41.19.64.45,1,.64.64.83.2h.58l.51-.13.71-.2.32-.32.32-.57.26-.45.25-.77.13-.77.07-.64v-.45l-.07-.9v-1L304,71.25v-.38l-.19-1-.51-.89-.51-.77-.45-.9-.26-.39-.13-.32-.19-.32-.45-.45-.32-.51-.71-.83L300,64.2l-.25-.39L299,63l-.77-.84-.57-.83L297,60.6l-.64-.51-.32-.45L295.7,59l-.39-1-.25-.58-.32-.45-.2-.45-.13-.51-.25-.83-.07-.84-.06-.51.06-.45V51.56l.13-1.28.19-.45.07-.9.26-.45.19-.64.06-.64.39-.83.25-.52.2-.44.19-.33.51-.57.19-.26.39-.64.38-.39.77-.64,1.16-.83,1-.39.71-.38,1.22-.26,1.09-.32h2l1.6.07h.45l.57.12,1,.07,1.09.32.45.06.25.2.77.38.45.39.51.19.71.64.19.26.64.7.2.32.44.71.26.38.13.71.19.45.39,1.54v1.41l.06,1.28-.06,1.09-.26,1.8-.26,1.41-.77.38-1.15.07h-3.59l-.9-.07h-.9l-.51-.45L307.3,54l.13-.51.2-2V50l-.13-.77-.2-.38-.57-.58-.64-.51-.84-.13-.77.26-.7.32-.32.45-.2.45-.25.64-.07.45-.19.64-.06.89v.84l.06.45.45,1.22.51.89.26.52.45.83.7.9.84,1,.26.39.32.32.25.51.26.32.38.26.64.51.2.39.32.19.19.32.58.64.32.58.77.77.45,1.09.57.7.07.33.51,1.28.39.83.38,1.35.06.45.07.51.06.45.32,1.09.13.38-.06.9-.07.39.07.45-.07.44v1.8l-.19.9-.06.38v1l-.26.84-.13.51-.13.58-.32.9-.57,1.09-.39.25-.32.65-.32.25-.51.58-.32.26-.52.44-.64.39-.58.45-.77.19-.38.26-1,.32-.51.06-.84.26-.45.06-.57-.06-.45.06h-.71l-.45.07-.7.06Z"/>
          </g>
        </g>
      </g>
    </g>
  </g>
</svg>
