<svg xmlns="http://www.w3.org/2000/svg" viewBox="0 0 438.41 124.52">
  <defs>
    <style>
      .cls-1 {
        fill: #db7cb2;
      }

      .cls-2 {
        fill: none;
        stroke: #000;
        stroke-linecap: round;
        stroke-linejoin: round;
        stroke-width: 2px;
      }

      .cls-3 {
        fill: #fff;
      }
    </style>
  </defs>
  <title>contatti</title>
  <g id="Livello_2" data-name="Livello 2">
    <g id="footer_2" data-name="footer 2">
      <g>
        <path d="M67.44,9.4a4.7,4.7,0,1,1,4.71-4.69A4.71,4.71,0,0,1,67.44,9.4Zm0-7.89A3.19,3.19,0,1,0,70.64,4.7,3.19,3.19,0,0,0,67.46,1.51Z"/>
        <path d="M118.65,115a.87.87,0,0,1,.38.11l6,3.64a.76.76,0,0,1,0,1.31l-6.16,3.4a.76.76,0,0,1-.76,0,.74.74,0,0,1-.36-.66l.14-7a.77.77,0,0,1,.39-.64A.75.75,0,0,1,118.65,115Zm4.5,4.37-3.79-2.29-.09,4.42Z"/>
        <path d="M431.65,30a.87.87,0,0,1,.38.11l6,3.64A.76.76,0,0,1,438,35l-6.16,3.4a.76.76,0,0,1-.76,0,.74.74,0,0,1-.36-.66l.14-7a.77.77,0,0,1,.39-.64A.75.75,0,0,1,431.65,30Zm4.5,4.37-3.79-2.29-.09,4.42Z"/>
        <path d="M36.18,124.34a.76.76,0,1,1,0-1.51l73.95-.14h0a.76.76,0,0,1,0,1.51l-74,.14Z"/>
        <path d="M356.23,15.47a.76.76,0,0,1,.11-1.51l73.75,5.61h0a.75.75,0,0,1-.12,1.5l-73.74-5.6Z"/>
        <path d="M0,115H0L.48,66.76A.76.76,0,0,1,1.25,66a.75.75,0,0,1,.74.75H2l-.47,47.43,43.55.07a.76.76,0,1,1,0,1.51L.75,115.71A.75.75,0,0,1,0,115Z"/>
        <polygon class="cls-1" points="402.55 108.85 6.91 107.81 6.49 9.52 428.49 25.52 402.55 108.85"/>
        <polyline class="cls-2" points="368.49 123.52 401.49 119.52 418.49 90.52"/>
        <g>
          <g>
            <path d="M129.47,85.35l.2.65-1.5-1-.92-.91L125.62,83l-2-1.64-.66-.65L121.83,80l-1-.92-1.64-1-1.63-1.5-.53-.66.13-.46.72.53,1.83,1.63,1.7,1.24.72.59,1.18.79.91,1,1.7,1.24,1.44,1.12Zm3.8.13h-.4l-1.5-1.11L130,83.13,127.19,81l-1.31-1.18-1.51-1.11L123,77.77l-1.17-1-2.23-1.9-1.7-1.37-.72-.85.13-.46,1.31,1.05,2.49,2,2.09,1.77,2.22,1.7,2.48,2,4.19,3.46.91.66.53.52Zm-8.11-.59.52,1L124,84.83l-1.3-1-1.51-1.25L119,80.91l-1.5-1.51-.07-.59L119,80l3.2,2.55.85.85Zm-7.58-14.71-.13-.52.19-.13,1.24.85,1.38,1.05,1.17,1.11L125,75.22l2.62,2.29,2.55,1.83,2.15,1.83,1.44,1,1.77,1.7.52.52-.39.26-1.77-1.44-2.68-2.28-1.76-1.44-1.24-.72-2-1.57-2.42-2.09-3.08-2.36-1.43-1.37Zm.26-3.85,1,.72,2.1,1.83,1.17,1.17,2.49,1.83,1.3,1.31-.06.33-2.55-2-1.18-.85-2.74-2.29-1.51-1.63Zm8.43,3.72.07.53-.33.06-1.18-1.17-3.72-2.88-1.44-1-1.37-1.43v-.53l.19.13,1.57,1.44,1.57,1.11,2.55,1.9,1,.91Zm-7.58-8.49.13-.53,1.89,1.31,4.38,3.53,1.57,1.57-.19.39-.26-.26-.92-.72-2.61-2-1.25-1Zm8.37,2.81v.32l-.14.33-1-.78-1.83-1.64-1-.91-1.64-1.11-1.17-1-1-1,.26-.33L121,59.27l1.43,1.17,2,1.57,1.5,1.38Zm.52-2.75v.46h-.33l-1.37-1.31L123,58.55l-2.48-1.83-.66-1,.07-.32.33.19,1.3,1.18,2.49,1.83,1.44,1.18,1.76,1.5Zm-7.13-8.89h.13l1.7,1.18,4.38,3.59L128,59.07l-.07.26L125,57l-1.89-1.76-1.7-1-.92-1.05Zm8.3,3.4-.06.26-.26.13-1.11-.91-2.49-1.83-2.55-2.1L121,50.44l.13-.26,1.18.85,1.11.92,2.16,1.57,2.15,1.63Zm.72-2.68h-.06l-.07.33-.26.13-1.57-1.31-1.37-1.11-2.62-2-1.17-1-.39-.66.06-.26.66.39,1.63,1.25,2.35,1.83,1.24,1.11,1.51,1.18Zm-6.6-8.37.2.07.65.52,3.53,3,1.37,1L130.06,51l-.13.46-1.24-1-2.22-1.7-2.42-2-1.31-1.37ZM124.05,43l.19-.13L125.55,44l1.24,1,2.55,2.16,1.57,1.57-.26.26-.85-.78L128,46.72l-2.62-2.09-1.5-1.31Zm8.89,3.73.13.46-.46.13-2.74-2.16-2.81-2.35-1.64-1.31.13-.33,1.7.92,1.24,1.11,1.31,1.11,1.24,1ZM144,52.47l.06.13-.06.26-.27.13-1.5-1.31-1.37-1.11-2.55-1.76-2.42-2-1.31-1.17-2.87-2.29-1.44-1.11-2-1.64-.52-.59.33-.19L129.47,41l1.31.84,2.75,2.1,1.24,1.17,2.55,2,2.29,1.76,1,.92,2.29,1.7ZM130.26,76.66l.26-.13,1.37,1.11,2.68,2.09,1.24.91,1.7,1.44.53.52-.26.33-1.44-1-1.18-.85-1.24-1-2.35-2L130.19,77Zm14.18-27.07V50h-.26l-2.61-1.83-1.31-1.25-1.77-1.37-.91-.78-4.12-3.08-1.18-1.11-1.5-1.17v-.33l.59-.07,1.5,1.31,1.24,1.11,2.49,2,1.18.85,2.61,2L142,47.63l1.31,1Zm-5.23,30.6v.39l-.19.26-1.57-1.11-1.37-1L134,77.11l-2.41-2v-.4l.13-.26,1.43,1.25,2.16,1.5Zm-6.86-8.37.07.13,1.63,1.11,1.44,1.18,3.14,2.35,1.5,1.7-.2.39-1.37-1.37-1.31-1-1.44-1.11-2.48-1.76-1.05-1.11Zm8.43,3.46.07.2v.2l-.33.13-.33-.2-1.3-1-1.31-.91-1.24-1.05L134,70.71l-1-1.31.19-.33.92.72,1.83,1.57,1.11,1,2.42,1.9Zm.59-2.15-1.44-.92-4.18-3.46-1.37-1.25H135l1.18.79,1.77,1.5,3.46,2.75ZM138.3,57.44l-.52.13-1.57-1.11L135,55.15l.2-.33,1.43,1.24Zm6-10.92-.46.2-1.69-1.44-1.25-1-1.11-.92-1.17-1L137,41.16l-.78-.59-1-.85V39l1.24,1.12,1.31.78,1.5,1.24,1.31,1.18,1.37,1,1.7,1.44Zm-2.22,11-.46.06-1.17-1-1.25-.79-1.63-1.5-1.77-1.18-.26-.65.07-.33,1.57,1,1.5,1.24,1,.92,1.24.85ZM136,49.72l.33-.32,2,1.63,2.75,2.09,1.24,1.05,1.18,1.37-.2.26L142.16,55l-3.67-3.07-1.76-1.44Zm2.55,18h.72l1.44,1.17,1.11,1-.07.4-1.17-.79Zm4.9-25.24.46,1.18-3.27-2.81L139.34,40l-.32-.26h.46l1.3.53,1.18,1Z"/>
            <path d="M159,86.26l-.33-.06-1.5-1-1.44-1L154,82.74l-.78-.85-1.63-1.18-1.44-1.31L149,78.68l-3.27-2.87v-.46l1.24.78,1.18.92,1.18,1.17,1.11.66,1.83,1.63,1.31.85L155,82.8l2.35,1.63,1.51,1.12.39.52ZM145.94,72.21l1.18.92,1.7,1.37.72.46,5.23,4.31,1.24.85.92.79,1,.78,1.24,1.18,1.11.91L161.89,85l.59.4-.06.13-.66.06-3.13-2.35L157.38,82l-1.83-1.44-1.63-1.18-3.47-2.74-1.11-.92-1.3-1-.85-.91-1.31-.92Zm.07-2.42.07-.26.19-.33,1.57,1.31,1.44,1.18,1.31.91,1,1,1.9,1.57,1,.79,1.64,1.37,1.11.85,2.35,1.7,1.83,1.7L163,82.74l1.24.91.78.65-.46.27-1.37-.85-2.09-1.83-1.18-1-1.37-1.18-1.63-1-1.31-1-1.31-1.24-1.37-1-1.18-1-3.14-2.75-2.54-1.89Zm9.35,16.41-.66-.13-2.09-1.37-2.55-2.1-1.44-1-2-1.89-.33-.72,2.62,2,1.3,1.11,2.62,2ZM155,73.39l.26.52-.13.07-.92-.66-1.76-1.63-2.62-1.9-2.94-2.55-.33-.39.2-.52,2.94,2.48,2.42,2,1.31,1Zm.26-3.14.06.46-.19.13-1.44-1-1.24-1.11-2.62-2.16-1.44-1L146.79,64l.2-.32,1.44,1,2.48,2,2,1.83,1.18.85Zm-7.91-9.41,1.44.85,2.41,1.89,2,1.77L155,66.72l.78.85-.2.39-1.63-1.24-2.22-1.9-1.9-1.5-1.18-.91-1.3-1.12Zm9,3.72v.26l-.19.27-1.64-1.25-1.7-1.43-3.53-2.68-1.44-1.51.4-.13.39.2,1.7,1.5,1.63,1.31,1.51,1,1.24,1.25Zm.46-2.94-.26.52L154.7,60.9l-1.37-1.11-1.44-1.11-1.24-1-1.7-1.3-.52-.59.19-.59,2.68,2.35,5.23,4.06Zm.33-1.89-.46-.27-.85-.85-1.7-1.37-1.24-1.18-1.24-.71-1.18-1.18-.85-.52L149,52.8l.13-.4,1,.85,1.38.92.52.72,1.5,1L155,57.31l1.31.85.78,1.11Zm.65-3.53.07.19-.13.39-.92-.58-1.11-.92-1.9-1.44-2.48-2-1.44-1.5.26-.33,1.18,1.05L154.9,54l1.31,1.11Zm.52-2.62.13.39-.26.07-1.44-1.11-1.24-1-1.3-1.05-2.36-1.83-1-1.31.26-.19,1.31,1,1.3,1.11,1.24.92,2.29,2ZM152,45.34l.19-.06,1.12.91,1,.79,1.31,1.11.85.65,1.5,1.31L159,51.16l-.2.26-1.44-1L156,49.14l-.91-.66-2.68-2.15-.59-.53Zm1.24-2,.26-.06,1.24,1,1.31,1,2.29,1.9,1.5,1,.26.71-.19.14-.72-.66-1.77-1.11-2-1.63-2.23-1.83Zm1.77-1.7.32-.13,1.44,1.18,1.44,1.11,4.25,3.4.06.13-.65.07-1.57-1.18-1.24-1-1.11-.85-1.25-1-1.43-1.11-.33-.19ZM174.9,54.1l-.06.13v.27l-.33.13-1.31-1.18L172,52.6l-1.31-.92L168,49.33l-2.35-2-1.44-1-1-.92-3-2.42-1.18-.85L157.71,41l-.65-.53.45-.32.92.65,1,.85,1.7,1.44,1.43,1.11,1.11.78.92.92,1.44,1,3.85,3.21,1.51,1.11,2.42,1.89Zm-8,28.44-.13.39-.85-.26-1.17-1.18-2-1.3-2-1.7-1.31-1.18.52-.2,1.18.85,2.35,1.9,1.9,1.44.91.91Zm-7.19-43,.59-.2,2.88,2.09,1.17,1,2.42,1.9,1.31.91,1.57,1.38,1.63,1.24,1.18,1.11,1.24,1.11L175,51.42l-.06.33-.53-.33-1.56-1.24-1-.85L170.46,48l-1.83-1.24-1-1-2.23-1.7-4.18-3.4Zm8.7,41.18-.14.2-.39.26L166.6,80l-1.11-1-2.29-1.77L161.83,76l-.46-.52.26-.33,1.05.79,1.89,1.7,2.49,1.83Zm-6.28-7.58v-.4l.33-.13,5.16,4,.92,1,1.11.72v.39l-.26.19-.13-.13-1.64-1.24-3-2.48-2.09-1.57Zm.46-3,.06-.2.26-.13,1.31,1.11,3.73,2.88,1.31,1.11,1.37,1.44-.39.33-.85-.79-1-.85-1.18-.91-4.51-3.66ZM175,47.83l.13.52-.13.13-1-.78-2.29-1.83-1.37-1.24-1.7-1.31-1.11-.79L165.62,41l-2.55-1.84.13-.26,1,.07,2.16,1.76,1.44,1.44,1.63,1.11,2.81,2.36,1.31,1Zm-3.79,25.62v.2l-.13.39-.85-.59-1.11-1.11-1.9-1.57-1.43-1-1.77-1.44-.72-.52.13-.53.92.53,1.89,1.7L169.61,72l1,.92Zm.72-2.68-.06.33-.2.2-.78-.46-1.57-1.31-1.51-1.44-2.48-1.7-1.64-1.7.14-.39,1.17,1,3.73,2.74,1.5,1.38,1.57,1.17Zm.65-2.61.07.39-.26.2L171,67.57l-1.18-1-2.35-1.83L165.29,63l-1-1,.13-.46,1.31,1,1.24.91,1.17,1,2.36,1.83,1,.91Zm-7.9-9.48,1.37,1,2.42,2,1.17,1,2.23,1.57,1,1,.19.39L173,66l-.46-.26-1.77-1.57-3.07-2.29-1.31-1.24-1.69-1.44Zm8.89,4,.06.19-.06.46-.79-.52-2.68-2.22-2.35-1.83-1.38-1-1.3-1.37.06-.4,3.14,2.42,1.7,1.24,1.11.92,1,.78,1,.85Zm-8-9.61h.06l1.37.78,1.83,1.7,1.9,1.51L172,58.16l1.24.85.85,1-.13.2-2.62-1.77L170,57.11l-2.09-1.5-1.51-1.24-.84-.85ZM174.51,57l.07.46-.33.13-1.24-1-2.09-2-1.57-1L167,51.68l-1.24-1.17.2-.46,1.3,1.18,1.38,1L170,53.32l1.63,1.11,2.1,1.83Zm-.07-12.22-1.24-.92L172,43l-1.25-1-1.17-.85-1.31-1-1.11-1,.13-.06,1.37.46,1.57,1.17,1,.92,1.51,1.18,1.24.91.26.59Z"/>
            <path d="M179.87,85.09l-.85.19-1.7-1.37-1-.91.13-.46,1,.72L179,84.5Zm2.87-.79.46,1L181,83.78,178,81.43,176.86,80l.13-.33.26.26,1.44,1.25,1.37,1Zm2.75-.91.07.33-.2.26-.26-.13-1.57-1.18-1.31-1-1.18-1-1.3-1.17L178,78.16l-.46-.72.07-.33,1.24.79,3.92,3.4,1.44,1Zm.46-2.88-.07.33-.13.33-.46-.4-3.72-3-1.44-1.24-1.37-.85-.92-1,.26-.52,1.25,1.18L181,76.46l4.18,3.4ZM178.3,72l.85.06,1.31.79,1.76,1.57L185,76.66l1.31,1.43-.07.27-1.24-1-2-1.44-1.76-1.44-1.77-1.5ZM186.93,75v.2l-.13.46-1.11-.79-1.64-1.44-1.11-.78-2.42-2.16-1.63-1.24.06-.65.4.26,1.3,1.11,2.49,1.89,2.22,1.77,1.11,1.11Zm.39-2.74.13.45-.26.13-1.18-1-2.55-2.15-1.57-1.18-2-1.44-.45-.78.13-.39,1.5,1.24,2.94,2.29,1.31,1.17,1.5,1.24Zm-7.39-9.09.13-.06,1.51,1.3,2.55,2.09,2.42,1.7,1.17,1.25-.13.32-1.24-1-2.94-2.09-1.83-1.5-1-.79-.65-.91Zm8.17,3.33.07.4-.26.06-1.64-1.18-1.37-1.17-2.42-1.9-1.57-1.37-.45-.72.19-.33.26.13,1.44,1.44,1.7,1.31,1.51,1.24,1.17,1Zm-7.19-8.43v-.46l.27-.06,1.5,1.37,1.5,1.24,2.88,2,1.5,1.5-.06.33-3.4-2.61-1.57-1-1.18-1.17Zm7.85,2.42v.72l-1.11-.65-1.77-1.38-3.2-2.68-1.31-1.37.13-.33.39.26,3.27,2.55,1.9,1.51,1,.91Zm.26-2.68-.13.2-.07.19-.78-.65-1-.79-1.37-1-1.76-1.5-1.38-1-.59-.91.14-.26.39.19.85.66,1.44,1.3,1.56,1.25,1.25.85.91.85Zm8.3,3.86-1-.72-1.11-.72-2.48-2.16-4.19-3.27L186,52.67l-1.44-1.18-1.17-.72-.92-1.18.07-.39.52.52.72.59,1.5,1,1.11.85L188.69,54l1.25,1,1.69,1.38,1.44,1.17,2.42,2,1.7,1.31Zm-.39-3.27-.33-.26L195.1,57l-2.49-2.09-2.48-2-2.48-2-2.81-2.09-.92-.85-1-1.24.2-.26,1,.85,1,.91,1.44,1.18,5.55,4.38,2.36,1.83L196.21,57l.65.92Zm-.52-3.79-.33-.2L194.25,53l-1.64-1.11-1.5-1.37-1.7-1.24L188,48.09,186.8,47,185,45.74l-.85-.85-.78-.72.19-.53.85.79,1.12.91,1.69,1.31,1.18,1,1.64,1.31,3.72,2.94,1.9,1.31.65,1.11Zm-.53-3.47-.45-.26-3-2.48-2.74-2.09-1.5-1.44-1.7-1.18-2-1.63-.58-.72.13-.39,1.5,1.24,1.63,1.3,1.64,1.12,1.31,1,4.44,3.79,1.18,1.31Zm-9.61-11,.13-.59,1.31,1.11,1.51,1.18,3.79,3,.91.91,1.11,1-.06.4-1.18-.72-2-1.83-1.9-1.51L188.5,42l-1.11-.78Zm11.51,24.64-.46.2-1.83-1.57-1.76-1.18L192.48,61,191,59.92l-1.5-1.5-.07-.52,1,.85,1.18.91,1.31.92,1.76,1.56,1.18.79,1,.91Zm-8.3-25,.59-.19L192,41l1.57,1.11.72.59.13.91-2.55-2.09ZM190.07,62l1.56.72,3,2.62,2,1.63,1,.66.65.65v.59l-1.5-1-4.19-3.33-1.83-1.57-.65-.46Zm.45,3.66.79.07,2,1.7,1,.72,2.16,1.76,1.05.92,2.55,2.09,3.07,2.29,1.63,1.57-.13.32-1.37-.91-1.18-1-1.24-.85-2.48-2L196,70.12l-2.62-2-1.24-1Zm.46,3.47.07-.46.45.39.72.72L193.79,71,199,75.09l1.37,1L203,78.22l1.31,1.31-.27.26-1.43-1-1.25-1-1.3-1-1.25-1-1.17-1-3.47-2.75L191.63,70Zm.52,3.59.33-.19,2,1.63,2.88,2.22,1.31,1,1.3,1.11,1.38,1,2.15,1.76.79,1.11-.07.33-.65-.46-1.7-1.43-2.36-1.84L196,76.72l-2.88-2.29Zm.59,4.06.59-.33,1.63,1.24,1.31.92.85.91,1.05.79,1.5,1.24,2.42,2,1.37,1-.19.26-1-.33-1.9-1.56-1.24-1.05-2.42-1.9L193.79,78Zm.52,3.46-.06-1,2.88,2.49,1.3,1,2.88,2.35-1.18-.06-1.76-1.5-1.18-1Zm6.15-11,.46-.26,1.44,1.31,2.09,1.5,1.37,1.11.85.53.26.39-.13.52-.39-.32-1.64-1.12-1.3-1.11-2-1.5Zm7.12,2-.06.52-1.57-1-1.24-1-1-1-1.63-1.31-.72-.46-.59-.72v-.59h.07l.85.79,1.63,1,1.7,1.63,1.24,1.05Zm.59-2.88-.06.46h-.2l-.65-.33-1.05-.85-1.17-.85-1.05-.65-1-1-1.24-.78-.85-1.11.06-.46.46.32.85.85,1.31.72.85.92,1,.85,1.31,1,1,.59Zm.46-2.55.07.52-.27.07-1-1-2.22-1.64-1.12-.85-1.24-1-1.3-1.37-.4-.65.07-.33.91.72,2,1.89,2.29,1.7L206.15,65Zm.33-2.81.13.46-.2.13-1.31-1.11-1.24-1.12-2.35-1.89L200.39,58l-.65-.92.07-.33.45.33,1.51,1.11,2.55,2.09,1.43,1.25Zm-6.93-8.83,1.24.92,1.18.85,2.15,1.7,1.9,1.7,1.11,1-.19.27-1.31-.85-.92-.92-2.29-1.7-2-1.63-1.05-1.11Zm8,3.21.06.45-.26.14-1.44-1.18-1.24-1-2.42-1.83-1.76-1.5-.65-.85.13-.39,1.3,1.17L204.32,54l2.55,2Zm.59-2.42-1.51-.72-1.3-1.11-2.49-2-1.89-1.37-.85-.92.19-.32,2,1.3,1.31.92.79.85,1,.85,1.37,1,1,.78.4.4Zm.45-3.27.07.46-.26.06L207.85,51l-3.66-2.68-1.9-1.44-.79-1,.14-.4.39.46,1.31.92,1.76,1.37L207.26,50l1.63,1.24Zm.46-2.75v.66l-.85-.59-1.63-1.37-1.18-.85-2.48-2-1.7-1.5.13-.46,1.31.91,1.24,1,1.11,1,2.48,1.83,1.25,1.18Zm.59-2.68.13.14-.13.39-1.76-1-1.12-1-2.41-2-2.55-2.15.26-.26.78.32,4.58,3.86,1,.85Zm-5-6.53.52-.2,1.83,1.31,2,1.7,1.3,1.17-.13.46-1-.85-2.15-1.63Zm4,0,.72-.07,1.11,1.11-.06.59Z"/>
            <path d="M216.21,47.89l.26.85-1-.72-.59-.78.2-.39Zm4.9.85-.72.07-1.56-1.37-1.9-1.31-1-.92-.52-.52.13-.59L218,46.19l1.77,1.25Zm-1.63,36.54-.65.14-1.77-1.12-1.18-1,.13-.52,1.18.91,1.05.72ZM216,41.42l.52.2,1.83,1.7,1.7,1,1.31,1.25,2.75,2.22,1.37,1,1.24,1L229.28,52l1.57,1.44-.26.26-1.37-1.11-1.44-1-1.44-1.11-1.44-1.31-1.63-.91-3.86-3.34-1.5-1.11L216.6,42.4,216,42Zm7.58,43.93h-.78l-.79-.46-1-.65-1.64-1.37-1.7-1.38-1.11-1,.13-.46,1.64,1.24,3.13,2.62,1.25.85Zm1.31-2.09.13.19-.07.4-.32.13-.59-.46-1.7-1.44-4.12-3.4-1.24-1.17.33-.33,1.43,1.24,2.55,2.09,1.18.92,1.11.85Zm-7.39-8.57.59.2,1.18.85,1.5,1.11,2,1.77,1.24,1,1.5,1.37-.26.39-4-3.4-3-2.22-.72-.59ZM231.38,51l-.2.19-.85-.85L229,49.4l-1.5-1.31-2.55-2-1.18-1L222.49,44l-1.31-1L219,41.23l-1.5-1.18.19-.33,1.9,1.25,1.31,1,2.35,2,2.48,2,1.51,1,1.44,1.11,1,1,1.37,1ZM218,71.69l1.17,1,1.77,1L222.35,75l1.18,1,1.9,1.24.39.78-.2.4-2.68-2.1-1.17-1L220.33,74l-1.05-.72-1.37-.91Zm8.56,3.66-.07.33-.13.19-.32-.26-2.82-2.35L221,71.56l-1.76-1.44-.79-.85.33-.33L220,70l2.75,2.09,2.61,2.16Zm.59-2.75-.07.26-.13.33-.46-.33-1.63-1.3-1.64-1.38-1.43-1.11-2-1.7-.78-.85.19-.32,1,.72,2,1.56,1.18.92,1.24,1,1.9,1.5Zm.26-3.13.26.45-.33.2-.32-.33-1.57-.91-1.83-1.7-1-.66-1.5-1.43-1.44-1.31.2-.33,1.63,1.11,1.76,1.57.86.66,1.63,1.56Zm.72-2.55-.07.45-.26.13-1.5-1.3L225,65.09,223.47,64l-1.83-1.43L220,61l.2-.39,1.24,1,1.18,1,1.7,1.37Zm-7.45-8.76.91.45L223,59.73l1.05.71,1,.92,1.77,1.44,1.3,1,.39.33-.06.46-.72-.39-1.7-1.38-1.44-1-1.24-1.11-1.31-1-1.37-1.18Zm8.49,3.59-.26.26-1.7-1.57-1.7-1.17L224,58l-2.16-1.7-.72-.85.2-.33.46.27,1.57,1.24,1.56,1.17,1.51,1.38,2,1.57Zm3.53-13.33v.32l-.72-.06-.91-1-1.24-.85-.85-.72-1.05-.79-1-.91-1-.92-1-.78-1.76-1.11-2-2h.52l1.31,1,1.11.78,1,.72,1,1,1.17.79,1,.91,1,.85,1,.72,1.18.92Zm-3.07,10.39.07.39-.27.13-1.3-1.11-2-1.76-2.23-1.7-1.76-1.31-.39-.91.06-.33,1.11,1.11,1.83,1.24L227,56.39l1,1,1.37,1Zm.52-2.94-1-.26-2.49-1.77-1.24-1L223.14,51l-1-1.25.19-.26,2.55,2.29,2.36,1.83,1.11.72,1.24,1Zm-5.49-16.08h.85l2,1.18,1.25,1,1.3.92,2.36,1.89,1.24,1,3.72,2.88h-.71l-1.9-1.18-2.42-2-1.24-1-1.31-1-1.24-1-2.29-1.7Zm4.91-.13.26.06,1.57,1.11L234.25,43l1.11,1.24,2.23,1.7,1.17,1-.19.33-1.38-1L236,45.47l-1.18-1-1.43-1.24L230.66,41l-1.44-1.11-.07-.13.33-.07Zm3.72,0,.72.13,1.5,1.31L237.91,43l1.11.92.27.45-.27.4-1.11-1-1.17-1.12L235,41.49l-1.57-1.44-.39-.2v-.13Zm3.92.13.4-.07,1.3,1.05.72.85-.06.33Z"/>
            <path d="M234.19,85.42l-1.25-.33-1-.85-.46-.85.26-.2Zm3.2-.85v.58l-2-1.3-1.37-1-1.44-1.37.13-.33.85.66,1.9,1.43Zm3.59-.14-.06.4-.85-.4L238.43,83l-1.17-.85-1.44-.92L234.64,80l-1.11-1,.07-.26.13-.2,1.24,1,1.37,1.18,1.44,1.05,1.18.78L240.39,84Zm.92-2.35v.33l-.13.26-1.24-1-1.25-1-2.22-1.83-1.83-1.43-.72-.92.26-.33,1.12.85,2.22,2,1.3,1L240.59,81Zm1.18-2.48.06.19L243,80l-.33.13-1.63-1.37-1.77-1.37-1.3-.79-1.51-1.5-.91-1,.26-.27L237.19,75l2.09,1.76,2.42,1.7Zm1.76-1.77-.72.13-1.63-1.17L240.27,75,239,74.11l-1.18-1.18-1.37-1,.13-.33.06-.13,1.57,1,1.18,1.24,1.5,1,2.62,2.16Zm4.25.2-.72.06-2-1.37-1.24-1.11-3.66-2.68L239,70.84l-1.57-1.5.13-.46L239,70l1.17.91,1.25,1,1.17,1.11,1.57,1,1.37,1,2.36,2ZM260,83.85l-.46.19-1.77-1.3-1.24-1-1.11-1-2.35-1.83-2.68-2.22L248,75l-1.5-1.38-2.36-1.89-1.5-1.18-2.42-2-1.31-.78-.52-.52.33-.39.91.52,1.18.78,1.37,1.25,1.11,1,1.18,1,2,1.37,2,1.83,2.22,1.7,1.76,1.44,2.29,2,2.62,2,1.11.85Zm-.13-3.6-.14.85-2.28-1.76L254.84,77l-2-1.3-4.32-3.6-1.37-1.18-1.64-1.11-1.37-1.24-1.7-1.44-1-.85-1.18-.91-.79-.92.2-.32,1,1L244.51,68l1.38,1.17,1.3,1,1.25,1,1.3,1,1.11,1.05,2,1.7,2.22,1.57,1.38,1,1.89,1.83ZM247.19,66.92v.19l-.19.33-1.24-.72-1.12-.85L241.18,63l-.65-.52-.26-.26.12-.59.46.2L242.1,63l1.11,1L245,65.41l1.44.85Zm.92-2.42-.07.13-.13.52-1.17-.78-1.12-.92-1-.91-1.7-1.38-1.24-1-.39-.32.06-.53,1.37.85,1.11.92L245,62.21l1,.85,1.31,1,.72.39Zm.39-2.88.26.65-.19.2-.85-.65L246,60.58l-2.36-2-1.5-1.43.33-.33,1.5,1.31,1.44,1.17,2,1.64Zm-5.29-6.86,1.24.65,1.11,1,2.61,2,1.44,1.44-.26.39-.65-.59-.85-.84-3.34-2.49L243.14,55Zm1-2.55.13-.13.65.52,1.31.92,1.57,1.3,1.83,1.51.78.91-.26.33-1.44-1.18-1.83-1.57-1.63-1.24-1.11-1ZM259.35,61l.13.59-.13.06-1.5-1-1.44-1.18-2.55-2.16-1.31-1-1.24-1L249,53.52l-2.42-2L245,50.18l.39-.33,1.24,1,1.18.91,1.17,1,2.55,1.9,2.75,2.22L255.63,58l2,1.63.92.72Zm-.19-3.14.13.39-.2.13-3-2.55L254,54.23l-2.55-2-2.74-2.35-1.9-1.57-.65-.46.33-.26,1.43.79,2.29,2,2.29,1.89,1.44,1.12,1.37,1.11,2.42,1.89,1.17,1Zm0-3.33v.39l-.27.19-.65-.58-1.57-1.38-1.5-1-.79-.78-1-.79-3.79-3-1.18-1-1.24-1.18.33-.19,1.43,1.11,1.38,1.05,2.09,1.76,1.37,1,1.11.85,1,.92,1.9,1.37Zm-.07-3.34L257.91,51l-1.24-.92-2.61-2.16-1.83-1.37-1.44-1.37-1.18-1L248.31,43l.19-.33,1.44,1.05,1.37,1,1.77,1.76,1.83,1.24,2.35,2ZM259,48.35l-.14.2h-.26l-1.37-1.24-1.37-1.12-2.16-1.83-2.09-1.5L250,41.36l-.65-.79.39-.26.92.92,1.83,1.5,3.79,2.88,1.77,1.63.78.78Zm-9.16,21.77.59-.46,2.09,1.9,2.88,2.22,1,.78,1.24.72,1,1,1.18,1.31-.07.52-1.3-1.24-1.57-1.24-.72-.52-1.37-1-1.05-.79L252,71.69l-1.12-.92Zm4.19,15.16-.72.27L252,84.43l-.85-.65-.06-.59Zm-2.88-4.77.13-.39L255.23,83l3,2.28-1-.13L255.5,84l-1.12-.85-2-1.44Zm.13-15.82v-.32l.26-.07.79.59,1.11.91,1.76,1.31,2.29,1.83L259,70.25l.65.78.07.4-1.05-.79-2.48-1.89-2-1.64-1.5-1L251.44,65Zm8.43,9.55-.32.19-1.11-.91-1.44-1-.79-.79-1.43-1.24-2.29-1.7-1.05-1.17.13-.33,3.6,2.74,2.42,2.1,1.7,1.17.58.46Zm-.13-6.8-.32.46-2.55-2.1L254.32,64l-1.18-1L251.7,62l-.19-.66.06-.39,1.51,1.24,2.55,2.16,1.11.85,1.24.92Zm-.19-3.2.06.52L258.11,64l-2.42-2.22-2.22-1.77-1.31-1-.59-.65v-.66l1.57,1.18L256,61.23l1.24,1.24,1.57,1.24Zm-7.59-24.52.33-.06.66-.07,1.3,1.18L255.43,42l2.35,1.7,1,1.11v.39l-1.5-1.11Zm6.67,1.51-.45.39-2.55-2,.13-.13.78.13,1.11.72Z"/>
            <path d="M266.67,47.89l.26.85L266,48l-.59-.78.2-.39Zm4.9.85-.71.07-1.57-1.37-1.9-1.31-1-.92-.52-.52.13-.59,2.48,2.09,1.77,1.25Zm-1.63,36.54-.65.14-1.77-1.12-1.17-1,.13-.52,1.17.91,1.05.72Zm-3.53-43.86.52.2,1.83,1.7,1.7,1,1.31,1.25,2.75,2.22,1.37,1,1.24,1L279.75,52l1.56,1.44-.26.26-1.37-1.11-1.44-1-1.44-1.11-1.43-1.31-1.64-.91-3.85-3.34-1.51-1.11-1.31-1.31-.65-.39ZM274,85.35h-.78l-.79-.46-1-.65-1.64-1.37-1.69-1.38-1.12-1,.13-.46,1.64,1.24,3.14,2.62,1.24.85Zm1.31-2.09.13.19-.06.4L275,84l-.59-.46-1.7-1.44-4.12-3.4-1.24-1.17.33-.33,1.44,1.24,2.55,2.09,1.17.92,1.11.85Zm-7.39-8.57.59.2,1.18.85,1.5,1.11,2,1.77,1.24,1L276,81l-.26.39L271.64,78l-3-2.22-.72-.59ZM281.84,51l-.2.19-.85-.85-1.31-.91L278,48.09l-2.55-2-1.17-1L273,44l-1.31-1-2.16-1.76L268,40.05l.2-.33L270.07,41l1.31,1,2.35,2,2.49,2,1.5,1,1.44,1.11,1,1,1.37,1Zm-13.4,20.72,1.17,1,1.77,1L272.82,75l1.17,1,1.9,1.24.39.78-.19.4-2.69-2.1-1.17-1L270.79,74l-1.05-.72-1.37-.91ZM277,75.35l-.06.33-.14.19-.32-.26-2.81-2.35-2.23-1.7-1.76-1.44-.79-.85.33-.33,1.24,1,2.75,2.09,2.61,2.16Zm.59-2.75-.07.26-.13.33-.45-.33-1.64-1.3-1.63-1.38-1.44-1.11-2-1.7-.78-.85.19-.32,1,.72,2,1.56,1.17.92,1.24,1,1.9,1.5Zm.26-3.13.26.45-.33.2-.32-.33-1.57-.91-1.83-1.7L273,66.52l-1.5-1.43-1.44-1.31.2-.33,1.63,1.11,1.77,1.57.85.66,1.63,1.56Zm.72-2.55-.07.45-.26.13-1.5-1.3-1.31-1.11L273.93,64l-1.83-1.43L270.46,61l.2-.39,1.24,1,1.18,1,1.7,1.37Zm-7.45-8.76.91.45,1.44,1.12,1,.71,1,.92,1.77,1.44,1.3,1,.4.33-.07.46-.72-.39-1.7-1.38-1.44-1-1.24-1.11-1.3-1-1.38-1.18Zm8.49,3.59-.26.26-1.7-1.57L276,59.27,274.45,58l-2.16-1.7-.72-.85.2-.33.46.27,1.57,1.24,1.57,1.17,1.5,1.38,2,1.57Zm3.53-13.33v.32l-.71-.06-.92-1-1.24-.85-.85-.72-1.05-.79-1-.91-1-.92-1-.78-1.77-1.11-2-2h.52l1.31,1,1.11.78,1.05.72,1,1,1.17.79,1,.91,1,.85,1.05.72,1.17.92Zm-3.07,10.39.07.39-.26.13-1.31-1.11-2-1.76-2.22-1.7-1.77-1.31-.39-.91.06-.33,1.11,1.11,1.84,1.24,2.22,1.83,1,1,1.38,1Zm.53-2.94-1.05-.26-2.48-1.77-1.25-1L273.6,51l-1-1.25.2-.26,2.55,2.29,2.35,1.83,1.11.72,1.24,1Zm-5.5-16.08H276l2,1.18,1.24,1,1.31.92,2.35,1.89,1.24,1,3.73,2.88h-.72l-1.9-1.18-2.42-2-1.24-1-1.31-1-1.24-1-2.29-1.7Zm4.91-.13.26.06,1.57,1.11L284.71,43l1.11,1.24,2.23,1.7,1.17,1-.19.33-1.37-1-1.25-.86-1.17-1-1.44-1.24L281.12,41l-1.44-1.11-.07-.13.33-.07Zm3.72,0,.72.13L286,41.1,288.37,43l1.12.92.26.45-.26.4-1.12-1-1.17-1.12-1.77-1.17-1.57-1.44-.39-.2v-.13Zm3.93.13.39-.07,1.3,1.05.72.85L290,42Z"/>
            <path d="M293.73,47.89l.26.85L293,48l-.58-.78.19-.39Zm4.91.85-.72.07-1.57-1.37-1.9-1.31-1-.92-.52-.52.13-.59,2.48,2.09,1.77,1.25ZM297,85.28l-.65.14-1.77-1.12-1.17-1,.13-.52,1.17.91,1.05.72Zm-3.53-43.86.52.2,1.83,1.7,1.7,1,1.31,1.25,2.75,2.22,1.37,1,1.24,1L306.81,52l1.56,1.44-.26.26-1.37-1.11-1.44-1-1.44-1.11-1.43-1.31-1.64-.91-3.85-3.34-1.51-1.11-1.31-1.31-.65-.39Zm7.58,43.93h-.78l-.79-.46-1-.65-1.64-1.37-1.7-1.38-1.11-1,.13-.46,1.64,1.24,3.14,2.62,1.24.85Zm1.31-2.09.13.19-.06.4-.33.13-.59-.46-1.7-1.44-4.12-3.4-1.24-1.17.33-.33,1.44,1.24,2.55,2.09,1.17.92,1.11.85ZM295,74.69l.59.2,1.18.85,1.5,1.11,2,1.77,1.24,1L303,81l-.26.39L298.7,78l-3-2.22-.72-.59ZM308.9,51l-.2.19-.85-.85-1.31-.91L305,48.09l-2.55-2-1.18-1L300,44l-1.31-1-2.16-1.76L295,40.05l.2-.33L297.13,41l1.31,1,2.35,2,2.49,2,1.5,1,1.44,1.11,1,1,1.37,1ZM295.5,71.69l1.17,1,1.77,1L299.88,75l1.17,1,1.9,1.24.39.78-.2.4-2.67-2.1-1.18-1L297.85,74l-1.05-.72-1.37-.91Zm8.56,3.66-.07.33-.13.19-.32-.26-2.81-2.35-2.23-1.7-1.76-1.44-.79-.85.33-.33,1.24,1,2.75,2.09,2.61,2.16Zm.59-2.75-.07.26-.13.33-.46-.33-1.63-1.3-1.63-1.38-1.44-1.11-2-1.7-.78-.85.19-.32,1,.72,2,1.56,1.17.92,1.24,1,1.9,1.5Zm.26-3.13.26.45-.32.2-.33-.33L303,68.88l-1.83-1.7-1.05-.66-1.5-1.43-1.44-1.31.2-.33L299,64.56l1.77,1.57.85.66,1.63,1.56Zm.72-2.55-.07.45-.26.13-1.5-1.3-1.31-1.11L301,64l-1.83-1.43L297.52,61l.2-.39,1.24,1,1.18,1,1.7,1.37Zm-7.45-8.76.91.45,1.44,1.12,1.05.71,1,.92,1.77,1.44,1.3,1,.4.33-.07.46-.72-.39-1.7-1.38-1.44-1-1.24-1.11-1.3-1-1.38-1.18Zm8.5,3.59-.27.26-1.7-1.57L303,59.27,301.51,58l-2.16-1.7-.71-.85.19-.33.46.27,1.57,1.24,1.57,1.17,1.5,1.38,2,1.57Zm3.53-13.33v.32l-.72-.06-.92-1-1.24-.85-.85-.72-1.05-.79-1-.91-1-.92-1-.78-1.77-1.11-2-2h.52l1.31,1,1.11.78,1.05.72,1,1,1.18.79,1,.91,1,.85,1.05.72,1.17.92Zm-3.08,10.39.07.39-.26.13-1.31-1.11-2-1.76-2.22-1.7-1.77-1.31-.39-.91.06-.33,1.12,1.11,1.83,1.24,2.22,1.83,1,1,1.38,1Zm.53-2.94-1.05-.26-2.48-1.77-1.25-1L300.66,51l-1-1.25.2-.26,2.55,2.29,2.35,1.83,1.11.72,1.24,1Zm-5.5-16.08H303L305,41l1.24,1,1.3.92,2.36,1.89,1.24,1,3.73,2.88h-.72l-1.9-1.18-2.42-2-1.24-1-1.31-1-1.24-1-2.29-1.7Zm4.91-.13.26.06,1.57,1.11L311.77,43l1.12,1.24,2.22,1.7,1.17,1-.19.33-1.37-1-1.25-.86-1.17-1-1.44-1.24L308.18,41l-1.44-1.11-.06-.13.32-.07Zm3.72,0,.72.13L313,41.1,315.44,43l1.11.92.26.45-.26.4-1.11-1-1.18-1.12-1.77-1.17-1.57-1.44-.39-.2v-.13Zm3.93.13.39-.07,1.31,1.05.71.85-.06.33Z"/>
            <path d="M316.81,85.42l-.46-.14-1.18-.78-.85-.91.13-.27,2.09,1.51.46.45-.06.07Zm3.13-.85.72.91-.65-.13-.72-.59-1.05-1-1.7-1.31-1.7-1.37.14-.59.39.26,1.7,1.25,1.57,1.3Zm3.86-.07.07.26-.27.2-.91-.59-2-1.77-1.11-.84-2.29-2-1.5-1.17-.46-.66.13-.39,1.24,1L318,79.66l1.24.92,2.62,2.35,1.76,1.37Zm.72-2.88-.07.14-.13.45-1.57-1-1-.85L320.2,79l-1.5-1.18-1.5-1.24-.85-.59-.59-.45L316,75l.85.59,1.5,1.11,3.14,2.61,2,1.77,1,.52Zm-8-8.69.2-.52,2.75,2,1.43,1.18,1.57,1.5,1.24.85,1.18,1-.13.46-2.68-2-1.31-1-1.24-1-1.7-1.51-.72-.32Zm8.83,3.2-.2.59-1.17-1-1.51-1.31-1-.72L318.11,71,317,69.92v-.45l1.7,1.24,2.16,1.7,1,.78,1.24.85,1.44,1.31.85.65Zm.52-2.68v.26l-.13.33-1.24-1-5.36-4.38-1.24-.85-.46-.72.06-.46L319,67.83l2.09,1.57L323,71.1l1.31,1.05,1.5,1.17Zm-8-9-.07-.53.13-.13.46.33,1.31,1,1.5,1.3,2.22,1.57,1.9,1.7.91.66-.13.45-1.37-.78-2-1.83-2.16-1.37L319,65.28Zm8.76,3-.2.59-1.37-1-1.11-1-1.18-.85-1-.91-1.64-1.05-1.63-1.44-.33-.59.33-.26,1.05,1,1.44,1.12,1.11.71,1,.92,2,1.44Zm.45-2.68.07.33-.2.33-1.24-1.24L320.2,60l-1.43-1.31.19-.46.46.46L321.06,60l1.3.85,1.24,1L326,63.71Zm.59-2.68.13.13-.13.2-.19.2-1.64-1.24-2-1.7L321,57.44l-1.64-1.64.07-.39.85.65L322,57.7l1.3.78,1.31,1.18,1.24,1,1.57,1.18Zm-8-9v-.33l.13-.19,1,.72,1.18.78.78.78,2.29,1.77,2.28,1.89.86,1.12-.07.32-.91-.65-2-1.77-1.24-1-1.7-1.37-.79-.72-1.17-.85Zm.59-2.75.06-.32.26-.2L322,51.1l1.17.85,1.18.91,2.68,2.22,1.57,1.64-.13.39-1.18-1-1.05-.85-2.61-2.16-2.48-1.89Zm.39-2.94,1.11.26,1,1,1.57.92,1.31,1.18,1.63,1.37,1.18.85.72,1-.13.33-.27-.14-1-.91-1.24-.85-1.25-1.18-1.11-1-1.7-1.24-.91-.78Zm.46-2.87.91.32,2.29,1.7,1.44,1.24,2.68,2,1.11,1.31v.26l-.33-.2-1.24-.85-4.51-3.72-1.83-1.31-.39-.39Zm9,3.66.06.13-.13.26-.2.06-1.3-1L326.41,46l-2-1.77-1.18-.85L321.77,42l.27-.52,1.11,1,1.17.85,1.11,1,2.16,1.77,2,1.37Zm-6.61-8.5.59.19L325.3,41l1.31,1L328,43.38l1.9,1.38.72.71-.07.59-.65-.59-.65-.65-1.64-1-1.7-1.51-1-.78-1-.85-.72-.59v-.13Zm3.6.19.13-.19.59.06,1.11.92,1.11.78,1.18,1.25-.07.39-2.55-2Z"/>
          </g>
          <g>
            <path class="cls-3" d="M117.38,86.17h-.46l-.45-.07-.72-.06-.53-.07-.39-.06-.65-.07-.46-.13-.39-.07-.85-.32-.79-.26-.39-.33-.65-.39-.33-.26-.39-.27-.85-.65-.26-.33-.33-.32-.46-.92-.58-.85-.2-.85-.13-.39-.13-.85-.13-.46V77l-.07-.52v-.59l.07-.46v-1.7l.06-1.37.07-.52.06-.92.13-.91V69.5l.07-.39.13-1.38.26-.91-.06-.59.13-.52.19-.72-.06-.33.19-1.18.27-.39v-.91l.06-.2v-.26l.2-.72.13-.72.19-.65.07-.79v-.39l.19-.39v-.92l.33-1.3.13-.46.13-.72.07-.65.2-.4.06-.45.13-.46.07-.39.06-.46.2-.46.19-.85.46-1.31.39-1.3.27-.92.39-1.11.32-.78.4-.92.26-.72.46-.39.45-.65.53-.66.91-.91.39-.33.85-.39.4-.2,1.37-.59,1.11-.19.85-.2.46-.06h1l1.24-.07h1l1.63.2.59.19h.65l.92.13.39.07.46.13.45.07.27.19.71.13.92.33.85.65.72.66.13.32.33.59.19.33.13.46.33.65.13.72.07.78.06.85.07.59.06,1V49.3l-.06.65-.13.53-.13,1-.14,1-.39,2.55-.13.52-.33,1.7-.26.27-.78.06-.92.07-4.11-.07-1.9-.26-.46-.72v-.91l.13-.46.26-1.18.14-.91.39-1.44.06-.85.13-.92V49l-.39-1.17-.72-.4-.91-.26h-.72l-.79.13-.72.26-.58.72-.2.4-.2.45-.26,1.11-.32.85-.4,1.12v.39l-.26.78-.19,1-.2.79-.2.59-.06.45-.07.39-.13.46-.13.92-.33,1-.52,2.61-.06.53-.27,1-.06.46-.13.85-.13.52-.2,1v1.38l-.19.45-.07.46v.52l-.06.46-.14.46.07.46-.2,1.37V72l-.19.92-.07.91v.66l.07.39v.46l.26,1,.52.45,1,.33,1-.13h1l.91-.59.27-.32.52-1.18.33-.92.26-.85.06-.39.07-.33.19-.78.2-1,.13-.59.07-.46.32-.85.13-.65.46-.52.52-.07,1.7.07h1.38l3.2.19.78.07.46.46.26.45v.72l-.13.4v.45l-.13.85-.06.72-.13.33-.07.46-.07.26L131,74.27l-.13.39-.39,1.64-.2.78-.07.46-.13.46-.19.39-.39,1-.33.79-.2.46-.26.39-.33.39-.19.39-.13.4-1,1.17-1,.85-1,.66-.46.19-1.7.39-.78.2-.79.13-.85.2h-1l-.85.06-.65.13Z"/>
            <path class="cls-3" d="M146.27,86.3l-.85.06L145,86.3l-.59-.07-1.51-.46-.52-.06-1-.26-.46-.26L140,84.6l-1.18-1-.91-1.05-.2-.32-.33-.33-.19-.39-.33-.46-.52-.85v-.39l-.2-.46-.07-.39-.13-.33-.13-.39-.06-.46-.13-.39-.07-.92-.06-.39-.2-1.31.13-.45V73.09l.2-.65-.07-.52v-.46l.13-1.44.26-.91v-.53l.13-.91v-.46l.27-.91-.13-.33.13-.85.13-.46.19-1.18.2-.78v-.85l.2-.78v-.46l.19-.39.13-.46v-.39l.13-.46-.06-.39.39-.66.13-.45v-.92l.13-.78.2-.46.06-.39.13-.92.26-1.63.33-.46.13-.85.39-.85.2-.46.26-.78.33-.92.39-.78.26-.46.59-.85.07-.46.26-.39.52-.85.52-.78.46-.33.33-.39.91-1,.85-.59.53-.2.45-.32.79-.46.78-.39,1-.27.4-.06,1-.26.65-.07,1.18-.19.91-.07.79-.07,1.17.07.39.07.72.06,1,.13.52.2.53.06.39.13,1,.46,1.18.79.52.32.32.4.72.58.72.66.33.39.2.46.39.85.19.39.13.39.14.46.19,1,.13,1.24.07.52v.46l-.07.85-.06.39.06.85v.46l-.06.85-.13.46-.07.39.07.46v.65l-.07.39-.13.92-.07,1-.06,1-.13.45-.13,1,.06.65-.32.72.06.79-.26.85-.13.85-.2.85-.06.78-.2.85-.19.39-.2,1.18v.59l-.13.45-.13.92-.2.39-.65,2.29.06.39-.32.79-.2.39-.06.72-.33.72-.2.78v.46l-.19.72L160,77l-.07.65-.45.91L159,79.76l-.32.46-.59.85-.26.39-.33.39-.13.4-.78.78-.4.33-.32.39-.79.59-.78.52-.26.2-1.51.58-.46.07-.52.13-.91.2-.46.06-.72.2-1.44.19Zm2-8.7.91-.26.59-.26.92-.65.46-.92.39-.91.13-.46v-.52l.19-1,.13-.46.14-.92.19-.52.07-.91.19-.46.2-.85.06-.53.2-.39v-.52l-.06-.2.19-.58.2-1,.13-1.5.19-.59.2-.52.13-1.24.2-.39L154.18,60l.26-1,.13-.78.14-.52.13-.46-.07-.46.07-.85.13-.52.19-.92.13-.58V53l.13-1.18.07-.85.13-.92-.26-1.3-.26-.4-.46-.58-1-.46-1.24.06-.52.13-1.05.4-.65.58-.46.72-.26.79-.26.46-.39.85-.13.45-.13.53-.4,1.37v.13l-.06.52-.2.92-.06.39-.27.91-.19.92-.2,1.05-.06.45-.13.46-.13,1-.2.52-.26,1-.13.46-.13.91v.46l-.07.46.07.52-.2.46-.33.91.07.53-.13.45.06.27-.13.58v.53l-.13.46v.52l-.19,1v.46l-.2.45.2.46-.07.79-.26.65.2.46v1.83l.19.46.13.26.39.59.33.32.52.2.53.13.39.06Z"/>
            <path class="cls-3" d="M166.21,85.45l-.33-.79.13-.52v-1l.13-1,.26-.92.07-.45.2-.92.13-.33.19-.91.13-.59.2-1v-.46l.13-.53v-.85l.26-.45.07-.79.06-.46.2-.78.06-.39-.06-.46.13-.85.26-1,.13-.79.13-.59.2-.72L169,67l.06-.46.13-.39.07-.85.07-.39v-.39l.32-.79.07-.39.06-.46.07-.91.06-.66.33-.78.13-.53.13-.65v-.91l.07-.53.19-.52v-.52l.2-.46V55.9l.13-.46.13-.85.2-.71.19-.59V52.5l.07-.45.13-.4.33-1.83v-.46l.26-.58.13-.59.06-.85.07-.46.06-.39.07-.46.13-.39.07-.46.13-.85.13-.78.19-.85v-.53l.2-.85.13-.39.2-.32.39-.72.65-.13.92-.07,1.11.07h.59l.85-.07,1.24.07.78-.07,1,.07h.92l.72.19.39.59.07.46.26.65.13.79.06.71.26.92.27,1.57.19,1,.2,1.12.19.91.27,1.31.13.52.06.46.13,1,.2.85v.39l.19.72v.46l.07.72.2,1,.13,1.11.19,1.11.07,1,.13.91.13.52.2,1.77.26,1.5.13,1.44V66l.13.46.13.78.2,1.77.19,1.43h.2l.06-1.3.13-1.57v-.92l.2-3.14.2-1.37V59.89l.19-.92.07-.39.06-.46.07-.52.06-.91.13-.4.14-.91V55l.26-.85v-.79l.06-.78v-.46l.39-.78-.06-.46.2-1.18V49.3l.19-.85.07-.46.13-.39.13-.92.06-.52.2-.91.13-.46.2-.52v-.59l.06-.39.2-1,.26-1.37.52-.92.26-.19,1.25-.27,1.37.14.46-.07h.65l1.5.07H199l.91-.07.92.2.39.19.06.52V41l-.19.91.06.53-.19,1.43-.13.92-.4,1.57-.19.72-.2,1.17-.13.53-.19,1.37-.27,1.05-.13,1-.19.59-.13.52-.13.46v.85l-.13.46-.27,2-.19.59-.07.72-.06.45-.13.53-.2.85-.13.45-.2.85-.13.92-.13.52.07.59-.13.39-.07.46-.13.39-.06.46-.07.39v.85l-.2.39-.19.92-.13.59-.07.59-.06.39-.07.46-.06.39v.39l-.27.91-.13.92-.13.65-.26.59-.26.79-.07.72-.06.85-.13.85-.2.52-.26.91v1.05l-.33.85v.39l-.13.46-.19.85L193.27,84l-.59.78-.65.46-.92.07-.72.13h-.26l-1.24-.07-.46.07-.65-.07-.39.07h-1.31l-.85-.07h-1.11l-.52-.45-.53-1.05-.32-.92-.07-.32-.07-.79-.06-.39-.13-1.37-.07-.39-.26-1.38-.06-.39L181.9,77l-.07-1-.2-.72-.19-1v-.4l-.2-.91-.06-.39-.2-.92-.06-.39v-1L180.65,69l-.13-1.24L180.26,66l-.33-2.09-.19-1.83-.39-2.36-.4-2.48h-.19L178.69,59l-.06,1.31-.07.72-.13,1.11-.06,1.63L177.91,67l-.26,2.55-.13.39-.2.85.13.46-.2.78-.13.46.07.46-.07.39-.13.92-.26,1-.26,1.3-.13.92-.07.39-.13.46-.26,1.89-.19.85-.07.46v.85l-.13.39-.2,1.18-.26.78-.19.66-.72.26h-6.93Z"/>
            <path class="cls-3" d="M206.6,85.45h-.46l-.58-.52.13-1,.06-1.37.46-1.37.13-.46.07-1,.13-.39.06-.92V78l.33-.92.06-.46-.06-.52.33-1.37v-.52l.19-.79.2-1,.13-.46.06-.46.14-.84.13-.4.06-.91.33-.66-.13-.65.06-.46.13-.46.33-.91.26-1,.13-.46-.13-.46.33-.78.13-.39v-.92l.2-.65V61l.13-.46.26-.39v-.46l.13-.39.19-1-.06-.46.33-.72v-.65l.13-.33v-.52l.06-.46.13-.46.33-1,.07-.39v-.4l.06-.45v-.39l.2-.85.13-.46.13-1,.06-1h-3.53l-.91-.06-.46.06h-.59l-.65-.06h-.52l-.59-.2-.2-.59.13-.78.2-.53V46l-.07-.46.26-.91.13-.39.07-.92.26-.85.2-.39v-.92l.06-.39.33-.72.59-.45.46-.07H209l.32.07h.46l.46-.07H215l.46.07h1.44l4.18-.07,1,.07,1.37-.07.59.07h4.05l.91.06.59.13.13.52v.4l-.06.45-.13.53v.45l-.07.4-.13.45v.4l-.13.78-.13.46-.07.39-.06.79-.26.84-.13.46-.07.92-.26.59-.65.06-.59-.06h-.79l-.59.06H225l-2.74-.06-.59.06-.13.46.06.39-.19.46v.39l-.13.39-.14.85-.06.46-.26,1.18-.26.52.13.33-.33.91-.26.85v.39l-.07.79-.06.39v.46l-.33.78-.13,1-.13.46-.2.92-.19.39v.46l-.07.84-.19.79-.27.46-.06.91-.13.39v.4l-.2.91-.19,1-.13.59v.65l-.07.4-.13.39-.07.46-.26.78-.06.46-.07.39.07.46-.2.91-.2,1-.26.85-.06.46-.2.85-.32,1.37-.14.52-.19.92.06.52-.32,1.44-.4,1.83-.13.91-.19.92-.13.39-.79.33H208l-.79.19Z"/>
            <path class="cls-3" d="M226.93,85.51l-.46-.06-4.77-.07-.59-.13-.13-.52.13-.46.07-.39.39-.79.52-.84.66-2,.39-.78.33-.78.72-1.57.26-.85.52-1.18.13-.39.33-.46.32-.78.14-.4.06-.45.2-.4.32-.85.2-.45.46-.92.13-.46.13-.58.33-.53.39-.78.13-.46.39-.91.07-.4.19-.45.2-.4.32-.91.2-.39.52-1.83.2-.53.46-.85.32-1.11.4-.72.19-.39.2-.85.33-.46.19-.85.13-.32.39-.85.2-.92.33-.46.26-.39.52-1.37.33-.85.19-.39.4-.59.19-.66.2-.45.59-1.18.13-.46.19-.39.13-.39.14-.46.39-.72.26-.39.13-.33.39-1.17.46-.85.59-1.18.19-.46.2-.39.26-.72.46-.06h.65l1.25.06.65-.06h1l1.24-.07h.59l.45.13.59-.06h1.05l.32.13.46.32.2,2.81v1.44l.13.39V46l.06,2.35v.92l.07.85.13,1.31v.91l.06,1-.06.46v1.44l.13.91v1.31l.07.92-.07.39.07.85V60l.06,1,.13.71v2.55l.07.79.06.52v2l.07,3v.46l.06,1-.06,1,.06.91-.06.46.13,2.49v.39l.06.85.07.45v1l-.07.92.07.52v.59l.07,1.44V84.4c.06.26.13.85-.2,1a2.89,2.89,0,0,1-.72,0l-.46.06-.52-.06h-.92l-1.43.06h-.53l-.78-.06-.46.06-.65.07-.85-.07h-1l-.26-.19-.14-.66-.06-1.17-.07-.66.07-.65V79.11l-.07-.53-1.43-.06-1-.13-2.88-.07h-1.76l-.33.72-.46.85-.13.46-.19.46-.26.78-.66,1.24-.39,1-.2.72-.19.33-.26.46-.4.26-1.83-.07-.52.07Zm13.73-15.68.39-.33.07-.92-.07-.52.07-.52v-1.7l.06-.46V64.27l.13-.52-.06-1.57.06-2.49.07-2.35-.07-1.5-.52.19-.26.85-.33,1-.2.65-.32,1.05-.26.52-.27.65-.06.46-.26.46-.2.59-.19.45-.2.59-.39,1.44-.07.46-.32,1-.27.46-.32,1.11-.13.46-.14.58-.19.46.46.39h.52l.72.07.59.07Z"/>
            <path class="cls-3" d="M257.06,85.45h-.45l-.59-.52.13-1,.06-1.37.46-1.37.13-.46.07-1,.13-.39.06-.92V78l.33-.92.07-.46-.07-.52.33-1.37v-.52l.19-.79.2-1,.13-.46.07-.46.13-.84.13-.4.06-.91.33-.66-.13-.65.06-.46.14-.46.32-.91.26-1,.13-.46-.13-.46.33-.78.13-.39v-.92l.2-.65V61l.13-.46.26-.39v-.46l.13-.39.2-1-.07-.46.33-.72v-.65l.13-.33v-.52l.06-.46.13-.46.33-1,.07-.39v-.4l.06-.45v-.39l.2-.85.13-.46.13-1,.07-1H259l-.92-.06-.46.06h-.59l-.65-.06h-.52l-.59-.2-.2-.59.13-.78.2-.53V46l-.07-.46.27-.91.13-.39.06-.92.26-.85.2-.39v-.92l.07-.39.32-.72.59-.45.46-.07h1.7l.32.07h.46l.46-.07h4.84l.45.07h1.44l4.19-.07,1,.07,1.37-.07.59.07h4.05l.92.06.58.13.13.52v.4l-.06.45-.13.53v.45l-.07.4-.13.45v.4l-.13.78-.13.46-.06.39-.07.79-.26.84-.13.46-.07.92-.26.59-.65.06-.59-.06h-.78l-.59.06h-.66l-2.74-.06-.59.06-.13.46.06.39-.19.46v.39l-.13.39-.13.85-.07.46-.26,1.18-.26.52.13.33-.33.91-.26.85v.39l-.07.79-.06.39v.46l-.33.78-.13,1-.13.46-.2.92-.19.39v.46l-.07.84-.19.79-.26.46-.07.91-.13.39v.4l-.2.91-.19,1-.13.59v.65l-.07.4-.13.39-.06.46-.27.78-.06.46-.07.39.07.46-.2.91-.19,1-.26.85-.07.46-.2.85-.32,1.37-.13.52-.2.92.07.52-.33,1.44-.39,1.83-.13.91-.2.92-.13.39-.79.33h-5.68l-.79.19Z"/>
            <path class="cls-3" d="M284.12,85.45h-.45l-.59-.52.13-1,.06-1.37.46-1.37.13-.46.07-1,.13-.39.06-.92V78l.33-.92.07-.46-.07-.52.33-1.37v-.52l.19-.79.2-1,.13-.46.07-.46.13-.84.13-.4.06-.91.33-.66-.13-.65.06-.46.14-.46.32-.91.26-1,.13-.46-.13-.46.33-.78.13-.39v-.92l.2-.65V61l.13-.46.26-.39v-.46l.13-.39.2-1-.07-.46.33-.72v-.65l.13-.33v-.52l.06-.46.13-.46.33-1,.07-.39v-.4l.06-.45v-.39l.2-.85.13-.46.13-1,.07-1h-3.53l-.92-.06-.46.06h-.59l-.65-.06H283l-.59-.2-.2-.59.13-.78.2-.53V46l-.07-.46.27-.91.13-.39.06-.92.26-.85.2-.39v-.92l.07-.39.32-.72.59-.45.46-.07h1.7l.32.07h.46l.46-.07h4.84l.45.07h1.44l4.19-.07,1,.07,1.37-.07.59.07h4.05l.92.06.58.13.14.52v.4l-.07.45-.13.53v.45l-.07.4-.13.45v.4l-.13.78-.13.46-.06.39-.07.79-.26.84-.13.46-.07.92-.26.59-.65.06-.59-.06h-.79l-.58.06h-.66l-2.74-.06-.59.06-.13.46.06.39-.19.46v.39l-.13.39-.13.85-.07.46-.26,1.18-.26.52.13.33-.33.91-.26.85v.39l-.07.79-.06.39v.46l-.33.78-.13,1-.13.46-.19.92-.2.39v.46l-.07.84-.19.79L296,64l-.07.91-.13.39v.4l-.2.91-.19,1-.13.59v.65l-.07.4-.13.39-.06.46-.27.78-.06.46-.07.39.07.46-.2.91-.19,1L294,75l-.06.46-.2.85-.32,1.37-.13.52-.2.92.06.52-.32,1.44-.39,1.83-.13.91-.2.92-.13.39-.79.33H285.5l-.79.19Z"/>
            <path class="cls-3" d="M310.66,85.51h-1.89l-.92-.13h-.52l-.46.07-.72-.07-.46-.06-.52.06-.52-.13-.52-.46-.07-1,.33-.91.06-1,.13-.46.13-.91.07-.53.2-1,.06-.46.13-.52.07-.46.26-.85-.07-.39.2-1.17.19-.72.14-.59.19-.59.13-.59.13-.78v-.46l.13-.46.07-.39.13-.46-.06-.46.45-1.43.13-1v-.4l.13-.45.07-.46.06-.39.14-.92v-.91l.26-.92v-.46l.13-.91.26-.53v-.84l.13-.79.2-.85.32-.91.2-1.38v-.91l.19-.46.14-.91.06-.4-.06-.45.26-.79.06-.39L310,51l.06-.46.27-.85-.07-.46.07-.52.06-.85.13-.33.13-.91.2-.85.06-.39.13-.4.07-.78.13-.72.26-.72.13-1,.13-.39.07-.46.46-.65.45-.2.4-.26.45-.06,1-.07.59.07h.92l.46-.07H320l.46-.06.72.19.26.65-.07.4v.85l-.13.19-.06.72.06.39-.19.27v.58l-.2.33-.13.92-.26.58v.53l-.07.39v.46l-.06.39-.33,1.7-.13.72-.13.39-.13.78-.07.46-.06.79-.07.45-.13.85-.19.79-.2.85-.07.32-.19.92-.2.59v.59l-.06.45-.07.53v.45l-.13.85-.2.66-.32,2-.27.91-.19.46v.53l-.2.84-.13.85-.13.79-.26.91v.53l-.26.91v.53l-.13.91-.07.33V72l-.32.66.06.71-.2,1-.06.52-.26.85v.52l-.2.92-.13.91-.13.85v.46l-.2.72-.26,1.57-.19.85-.13.91-.2.85-.07.52-.19.59-.72.2h-1.7Z"/>
          </g>
        </g>
      </g>
    </g>
  </g>
</svg>
