<svg xmlns="http://www.w3.org/2000/svg" viewBox="0 0 26.12 8.29"><defs><style>.cls-1{fill:#71c9c4;}.cls-2{fill:#4ab8af;}.cls-3{fill:#26aa9d;}.cls-4{fill:#6d6d6c;}</style></defs><title>disintegrati</title><g id="Livello_2" data-name="Livello 2"><g id="Livello_1-2" data-name="Livello 1"><path class="cls-1" d="M1.15,0A1.16,1.16,0,0,0,0,1.15v6a1.16,1.16,0,0,0,2.31,0v-6A1.16,1.16,0,0,0,1.15,0"/><path class="cls-2" d="M5,2.84,4,2.75l.69-1.17L4.58,1A1.13,1.13,0,0,0,3.2.17a1.14,1.14,0,0,0-.86,1.38L3.71,7.38A1.15,1.15,0,1,0,6,6.85Z"/><path class="cls-3" d="M7.33,3.3,6.17,1.77V7.14a1.16,1.16,0,0,0,2.31,0V2.44l-1,.42Z"/><path class="cls-4" d="M10.5,3.45a.67.67,0,0,1,.66.67.62.62,0,0,1-.19.46.63.63,0,0,1-.92,0,.61.61,0,0,1-.19-.45.63.63,0,0,1,.19-.48.61.61,0,0,1,.45-.2m.67,0A.87.87,0,0,0,11,3.28a.81.81,0,0,0-.49-.15.93.93,0,0,0-.73.33,1,1,0,0,0-.26.67.91.91,0,0,0,.31.7.92.92,0,0,0,.65.27A.91.91,0,0,0,11,5a.75.75,0,0,0,.16-.15v.27h.33V2.6h-.33Z"/><rect class="cls-4" x="11.82" y="2.6" width="0.32" height="0.47"/><rect class="cls-4" x="11.82" y="3.18" width="0.32" height="1.88"/><path class="cls-4" d="M13.24,4l-.16,0a.65.65,0,0,1-.25-.11.17.17,0,0,1-.07-.13.27.27,0,0,1,.08-.16A.19.19,0,0,1,13,3.45h0a.25.25,0,0,1,.19.07.23.23,0,0,1,.08.17v.06h.33V3.69a.47.47,0,0,0-.17-.38A.61.61,0,0,0,13,3.15a.58.58,0,0,0-.43.17.53.53,0,0,0-.16.38.46.46,0,0,0,.14.34,1,1,0,0,0,.42.2l.14,0a.32.32,0,0,1,.15.09.38.38,0,0,1,.05.15.5.5,0,0,1-.08.2c0,.06-.11.08-.22.08a.31.31,0,0,1-.34-.29v0h-.32v.06a.52.52,0,0,0,.19.44A.71.71,0,0,0,13,5.1a.63.63,0,0,0,.45-.17.55.55,0,0,0,.19-.41.53.53,0,0,0-.12-.35A.55.55,0,0,0,13.24,4"/><rect class="cls-4" x="13.92" y="3.18" width="0.32" height="1.88"/><rect class="cls-4" x="13.92" y="2.6" width="0.32" height="0.47"/><path class="cls-4" d="M15.45,3.13a.73.73,0,0,0-.45.16.6.6,0,0,0-.08.08V3.19H14.6V5.07h.32V4a.56.56,0,0,1,.15-.41.48.48,0,0,1,.71,0,.58.58,0,0,1,.14.42v1h.34V4A.89.89,0,0,0,16,3.36a.77.77,0,0,0-.56-.23"/><polygon class="cls-4" points="17.39 3.19 16.97 3.19 16.97 2.6 16.65 2.6 16.65 3.19 16.37 3.19 16.37 3.5 16.65 3.5 16.65 5.07 16.97 5.07 16.97 3.5 17.39 3.5 17.39 3.19"/><path class="cls-4" d="M17.85,3.65a.63.63,0,0,1,.46-.2.66.66,0,0,1,.44.18A.55.55,0,0,1,19,4H17.68a.67.67,0,0,1,.17-.32m.48-.51a1,1,0,0,0-.71.32,1,1,0,0,0-.29.67.93.93,0,0,0,.28.68.94.94,0,0,0,.68.29A1.16,1.16,0,0,0,18.71,5a.94.94,0,0,0,.34-.25l0,0-.24-.21,0,0a.57.57,0,0,1-.23.16.76.76,0,0,1-.27,0,.62.62,0,0,1-.46-.19.72.72,0,0,1-.17-.29h1.61v0l0-.07V4.09A.88.88,0,0,0,19,3.4a1,1,0,0,0-.66-.26"/><path class="cls-4" d="M20.4,3.46a.66.66,0,0,1,.46.2.61.61,0,0,1,.22.46.68.68,0,0,1-.19.47.65.65,0,0,1-.48.19A.63.63,0,0,1,20,4.6a.69.69,0,0,1,0-.94.61.61,0,0,1,.45-.2m.68,0L21,3.31a.85.85,0,0,0-.52-.17,1,1,0,0,0-.69.27.89.89,0,0,0-.33.7,1,1,0,0,0,1,1,.84.84,0,0,0,.65-.26.7.7,0,0,1-.22.37.63.63,0,0,1-.44.16.59.59,0,0,1-.29-.07,1,1,0,0,1-.25-.21l0,0-.27.19,0,0a1,1,0,0,0,.82.42,1,1,0,0,0,1-1V3.19h-.31Z"/><path class="cls-4" d="M22.69,3.13h-.07a.85.85,0,0,0-.56.29V3.19h-.32V5.07h.32V4.19a.71.71,0,0,1,.14-.47.82.82,0,0,1,.44-.26h.05Z"/><path class="cls-4" d="M23.62,3.45a.67.67,0,0,1,.47.2.6.6,0,0,1,.21.46.65.65,0,0,1-.17.46.69.69,0,0,1-1,0A.63.63,0,0,1,23,4.12a.63.63,0,0,1,.19-.47.6.6,0,0,1,.44-.2m.68,0a.61.61,0,0,0-.16-.16.84.84,0,0,0-.49-.15,1,1,0,0,0-.69.3.92.92,0,0,0-.31.68.93.93,0,0,0,.3.69,1,1,0,0,0,.7.3.74.74,0,0,0,.49-.16.61.61,0,0,0,.16-.16v.29h.32V3.18H24.3Z"/><polygon class="cls-4" points="25.33 2.6 25.01 2.6 25.01 3.19 24.74 3.19 24.74 3.5 25.01 3.5 25.01 5.07 25.33 5.07 25.33 3.5 25.75 3.5 25.75 3.19 25.33 3.19 25.33 2.6"/><rect class="cls-4" x="25.8" y="2.6" width="0.32" height="0.47"/><rect class="cls-4" x="25.8" y="3.18" width="0.32" height="1.88"/></g></g></svg>