<svg xmlns="http://www.w3.org/2000/svg" viewBox="0 0 418.13 118.47">
  <defs>
    <style>
      .cls-1 {
        fill: #a4dbde;
      }

      .cls-2 {
        fill: none;
        stroke: #000;
        stroke-linecap: round;
        stroke-linejoin: round;
        stroke-width: 2px;
      }

      .cls-3 {
        fill: #fff;
      }
    </style>
  </defs>
  <title>download</title>
  <g id="Livello_2" data-name="Livello 2">
    <g id="footer_2" data-name="footer 2">
      <g>
        <polygon class="cls-1" points="418.13 105.9 8.13 105.9 38.7 58.19 8.13 10.47 418.13 31.47 418.13 105.9"/>
        <polyline class="cls-2" points="1 11.47 28 58.47 1 105.47"/>
        <line class="cls-2" x1="354" y1="22.47" x2="415" y2="26.47"/>
        <line class="cls-2" x1="196" y1="112.47" x2="285" y2="112.47"/>
        <line class="cls-2" x1="252" y1="117.47" x2="324" y2="117.47"/>
        <path d="M366.29,117.53a4.7,4.7,0,1,1,4.71-4.69A4.71,4.71,0,0,1,366.29,117.53Zm0-7.89a3.19,3.19,0,1,0,3.18,3.19A3.19,3.19,0,0,0,366.31,109.64Z"/>
        <path d="M51.17,8.55a.86.86,0,0,1-.38-.1L44.7,4.92a.78.78,0,0,1-.38-.66.75.75,0,0,1,.38-.65L50.8.1a.79.79,0,0,1,.76,0,.78.78,0,0,1,.38.66l0,7a.76.76,0,0,1-.38.66A.79.79,0,0,1,51.17,8.55ZM46.59,4.27l3.83,2.21V2.06Z"/>
        <g>
          <g>
            <path d="M92.35,85.7V85l1.18,1.24-.59-.07Zm4.44.19-.19.2L95.94,86l-1.63-1.24-1.63-1.5.19-.33,2.36,1.83ZM101,86l-.66.32L98,84.45l-1.31-1-1.57-1-.91-.92-1-1.31.2-.26,1,.92,1.24,1,1.57,1,1.24,1,1.5,1.44Zm3.27-.26.19.78-1.63-1.37-2.29-1.64-1.18-1-1-1-3.66-2.94-1-1,.2-.32,1.37,1,2.48,2.16L99,81.45l1.44,1.11Zm4.38.19-.46.2-1.9-1.18L105,83.8l-2.42-2-1.31-.91-1.24-1-1.5-1.17-1.24-.85-1.64-1.57-1.11-.79L94.11,75l.27-.59,1.11,1,1.17.79,1.25,1.3,2.74,1.9,1.24.92,1.9,1.76,2,1.57ZM94.83,72l1.18.59,1.7,1.3,1.05,1,1.3,1.12,5.17,4.11,1.37,1,2.61,2,1,.92,1.11,1.11-.4.19-1.7-1.3-2.55-2.16-2.35-1.77-3.85-2.94-1.18-1-1-.72-.85-1-1.83-1.31-.78-.72Zm8.5,3.4-.2.26-.19.13-2.75-2.09-1.24-1-1.24-1.11-1.24-1.05-1.38-1.3.2-.46.52.39,1.51,1.37,2.35,1.84,2.75,2.28.71.53Zm.33-2.88v.33l-.26.06-1.44-1-2.49-2.09-1.3-.92-1.83-1.57-.72-.78.19-.39,1.38,1.17,1.43,1.18,1.57,1,2.55,2Zm.46-2.48L103,69.35l-1-.85-1.11-1-1.51-.85-2.09-1.83-1.17-1.11.13-.53,1.3,1,1.25,1,1.11,1,1.5,1,2.16,1.64.65.65Zm-7.33-8.63-.06-.2.06-.32.2-.14.92.79,1.37,1,4.84,3.92.52.66-.2.39-.45-.39-1.7-1.25-1.38-1.17-1-1L98.76,63l-1.05-.85Zm.53-2.75.13-.85,2.61,2.29,1.57,1,1.7,1.37.85.85.92.78-.13.4-.92-.59-2.29-1.83-2.09-1.7-1.18-.92ZM97.84,55h.33l1.37,1.17,1.24,1,1.18,1,1.24,1,1.77,1.5.58,1-.06.33-1.37-1.11-1.12-1L101.76,59l-1.3-1.05-1.12-1-1.5-1.24ZM106,58.5l.07.33-.33.13-1.31-1.05-2.42-2-2.48-1.83-1.18-1.51v-.32l.53.39,1.5,1.24,4.12,3.33Zm.46-3,.13.39-.26.13-1.57-1.11-1.44-1-3.4-2.81-1.37-1,.06-.65,1.51,1,2.16,1.83,2.61,2Zm-7.26-8.24L99.15,47l.32-.26,1.44,1.17,2.55,2.16,2.36,1.76,1,1.12-.13.45-1.31-1-1.17-.91L103,50.59l-1.24-1-1.17-1.18Zm8.37,2.68v.33l-.2.26-1.17-.79-3.66-2.94L101.44,46l-1.38-1-.45-.46.19-.45,1.57,1,1.44,1,1.31,1,1.5,1.51,1,.52.85.65Zm2.55-.85-.07.2-.65-.14L107.91,48l-1.11-1-1.12-.91-3.33-2.55-1.5-1.31-.39-.72.06-.33,7,5.56,1.18,1.05Zm12.16,6.73-.26.07-1-.66-1.9-1.56-2.94-2.29L113.33,49l-1.76-1.3-1.44-1.25-1.24-1L106,43.27l-2.16-1.76-.52-.66.46-.06,1.18,1,1.76,1.17,2.16,1.7,2,1.64,1.5,1.31,1.9,1.37,2.35,2,2.29,1.7L121.57,55l.65.46Zm-16.74,22,.2-.2h.46l1.57,1.11,1.43,1.44,1.25,1,2,1.7,1.18.91-.13.27-1.83-1.11-1.5-1.38-1.57-1.31-1.44-1.11Zm1.7-36.68.26-.26,2,1.11,1.9,1.83,2,1.18L114.51,46l1.18.91L116.86,48l1.64,1.31.91.65,1.11.85,1,.66.72.91-.19.46-4.91-3.73L114.77,47l-1.37-1.11L112.16,45l-1.51-1.18-1.44-1.3Zm.85,35.24.26-.13L110,77.39l2.74,2.36,2.16,1.63.46.85-.2.26-1.5-1.11-1.24-1.11-2.22-1.83-1.44-1.31-.92-.52Zm1.57-2.29L111,75.17l2.16,1.57,2.28,1.83,1.38,1.5-.26.33-.53-.59-4.25-3.2-1.11-.92-1-1.3ZM118,77.72l-.13.26-.13.2-.39-.33-.85-.78-1.12-.72L113.79,75l-2.16-1.83-1-1.37.13-.33L112,72.82,117.45,77Zm3.66-29-1.24-.2-2.42-2L117,45.76l-1.89-1.57-2.42-2-1.57-1.43.59.06,2,1.37,1.12.92,1.17,1,2.75,2ZM111.31,69h.13l1.63,1.37,1.7,1.31,1.11.78,1.18,1.18,1.24.72.65.85-.26.32-1-.91-1.44-1-.79-.72-1.76-1.31-1.18-1-1.24-1.17Zm.65-2.49.52.2,4.32,3.4,1.89,1.63,1.11.92-.39.26-1.5-1-2.62-2.29-2-1.5-.85-.72-.59-.53Zm.39-3,.13.06,1.57,1.24,2.81,2.09,1.11.85,1.18,1,1.24,1.31-.19.39-1.12-1-3.85-3.07-1.37-1-1.57-1.37Zm.39-12.1.66.2,1,.65,2,1.7,2.16,1.57,1.7,1.5,1.17.85.72.92-.06.39-.79-.59-3.46-2.74-1.9-1.64-1.11-.72-.91-.85-.79-.58Zm.13,9.87.07-.45.13-.14,1.24,1,1.18,1,1.57,1.43,1,.79,1.76,1.24,1.25,1.5-.26.27-.53-.53-1.37-1.24-1.24-.78L116,64.06l-2.16-2Zm.4-2.87V58l.19-.13,1.77,1.51,1.63,1.44,1.64,1,2,1.9.85,1-.06.26-1-.72-2.16-2-2.35-1.64ZM122,61.77v.13l-.2.13-1.24-.78-2.22-1.64-1.25-1-2.22-2-1.57-1.31v-.59l1.24.92,1.12.91,1.17.92,2.36,2,1.89,1.24.79.79ZM119,43.53l1.12,1.64-5-3.79,1,.26,1.17.65Z"/>
            <path d="M138.69,87.26l-.32-.06-1.51-1-1.44-1-1.76-1.38-.79-.84-1.63-1.18L129.8,80.4l-1.17-.72-3.27-2.88v-.45l1.24.78,1.18.92L129,79.22l1.11.66,1.83,1.63,1.31.85,1.51,1.44,2.35,1.63,1.5,1.12.4.52ZM125.62,73.21l1.18.92,1.7,1.37.71.46,5.23,4.31,1.25.85.91.78,1,.79,1.24,1.18,1.12.91L141.57,86l.59.39-.07.14-.65.06-3.14-2.35L137.06,83l-1.83-1.43-1.64-1.18-3.46-2.74L129,76.74l-1.31-1-.85-.91-1.31-.92Zm.06-2.42.07-.26.2-.33,1.56,1.31L129,72.69l1.31.91,1.05,1,1.89,1.57,1.05.79,1.63,1.37,1.11.85,2.36,1.7,1.83,1.7,1.5,1.17,1.24.92.79.65-.46.26-1.37-.84-2.09-1.83-1.18-1-1.37-1.18-1.64-1-1.31-1L134,77.46l-1.38-1-1.17-1-3.14-2.75-2.55-1.89ZM135,87.2l-.65-.13-2.09-1.37-2.55-2.1-1.44-1-2-1.89L126,80l2.61,2,1.31,1.11,2.61,2Zm-.39-12.81.26.52-.13.06-.91-.65-1.77-1.63-2.61-1.9-2.95-2.55-.32-.39.19-.52,2.95,2.48,2.41,2,1.31,1Zm.26-3.14.07.46-.2.13-1.44-1-1.24-1.11-2.61-2.16-1.44-1L126.47,65l.19-.32,1.44,1,2.49,2,2,1.83,1.18.85ZM127,61.84l1.44.85,2.42,1.89,2,1.77,1.77,1.37.78.85-.19.39-1.64-1.24-2.22-1.9-1.89-1.5-1.18-.92L127,62.29Zm9,3.72v.26l-.2.27-1.63-1.25-1.7-1.44-3.53-2.68-1.44-1.5.39-.13.39.2,1.7,1.5,1.64,1.31,1.5,1,1.24,1.25Zm.46-2.94-.27.52-1.76-1.24L133,60.79l-1.44-1.11-1.24-1-1.7-1.3-.53-.59.2-.59L131,58.5l5.23,4Zm.32-1.9-.46-.26-.85-.85-1.69-1.37-1.25-1.18-1.24-.72-1.18-1.17-.85-.52-.58-.85.13-.4,1,.85,1.37.92.52.72,1.51,1,1.57,1.44,1.3.85.79,1.11Zm.66-3.53.06.2-.13.39-.91-.59-1.12-.91-1.89-1.44-2.49-2-1.43-1.5.26-.33,1.17,1.05L134.58,55l1.3,1.11Zm.52-2.61L138,55l-.26.07-1.44-1.11-1.24-1-1.31-1.05-2.35-1.83-1.05-1.31.26-.19,1.31,1,1.31,1.11,1.24.92,2.29,2Zm-6.28-8.24.2-.06,1.11.91L134,48l1.3,1.11.85.65,1.51,1.31,1,1.11-.19.26-1.44-1-1.37-1.3-.92-.66-2.68-2.16-.59-.52Zm1.24-2,.27-.06,1.24,1,1.31,1L138,48.17l1.51,1,.26.72-.2.13-.72-.65-1.76-1.11-2-1.64-2.22-1.83Zm1.77-1.7.33-.13,1.44,1.18,1.43,1.11,4.25,3.4.07.13-.66.07-1.56-1.18-1.25-1-1.11-.85-1.24-1-1.44-1.11-.32-.19ZM154.58,55.1l-.07.13v.27l-.32.13-1.31-1.18-1.18-.85-1.31-.92-2.68-2.35-2.35-2-1.44-1-1-.91-3-2.42-1.18-.85L137.39,42l-.66-.52.46-.33.91.66,1.05.85,1.7,1.44,1.44,1.11,1.11.78.91.92,1.44,1,3.86,3.21,1.5,1.11,2.42,1.89Zm-8,28.44-.13.39-.85-.26-1.18-1.18-2-1.31-2-1.69-1.31-1.18.53-.2,1.18.85,2.35,1.9L145,82.3l.92.91Zm-7.19-43,.59-.2,2.87,2.09,1.18,1,2.42,1.9,1.3.91,1.57,1.38,1.64,1.24,1.17,1.11,1.25,1.11,1.37,1.37-.07.33-.52-.33-1.57-1.24-1-.85L150.13,49l-1.83-1.24-1-1-2.22-1.7-4.18-3.4ZM148,81.71l-.13.19-.39.27L146.28,81l-1.12-1-2.28-1.77L141.5,77l-.45-.52.26-.33,1,.79,1.9,1.7,2.48,1.83Zm-6.27-7.58v-.4l.32-.13,5.17,4,.91,1,1.11.71v.4l-.26.19-.13-.13-1.63-1.24-3-2.48-2.09-1.57Zm.45-3,.07-.2.26-.13,1.31,1.11,3.72,2.88,1.31,1.11,1.37,1.44-.39.33-.85-.79L148,76l-1.18-.91-4.51-3.66Zm12.49-22.29.13.52-.13.13-1.05-.78-2.29-1.83L150,45.62l-1.7-1.3-1.11-.79L145.29,42l-2.54-1.83.13-.26,1,.07L146,41.7l1.44,1.44,1.64,1.11,2.81,2.35,1.31,1Zm-3.79,25.62v.2l-.13.39-.85-.59-1.11-1.11-1.9-1.57-1.44-1-1.76-1.44-.72-.53.13-.52.91.52,1.9,1.7L149.28,73l1,.92Zm.72-2.68-.07.33-.2.2-.78-.46L149,70.53l-1.5-1.44L145,67.39l-1.63-1.7.13-.39,1.18,1,3.72,2.74,1.51,1.37,1.57,1.18Zm.65-2.61.07.39-.27.2-1.43-1.18-1.18-1-2.35-1.83L145,64l-1.05-1,.13-.46,1.31,1,1.24.91,1.18,1,2.35,1.83,1,.91Zm-7.91-9.48,1.37,1,2.42,2,1.18,1,2.22,1.56,1,1,.2.39-.07.39-.46-.26-1.76-1.57-3.07-2.29-1.31-1.24-1.7-1.44Zm8.89,4,.07.19-.07.46-.78-.52-2.68-2.23-2.36-1.83-1.37-1-1.31-1.37.07-.4L148,59.35l1.69,1.24,1.12.92,1,.78,1,.85Zm-8-9.61h.06l1.38.78,1.83,1.7,1.89,1.5,1.31,1.12,1.24.85.85,1-.13.2-2.61-1.77-1.38-1.37-2.09-1.5-1.5-1.25-.85-.85Zm9,3.92.06.46-.33.13-1.24-1-2.09-2-1.57-1-2.35-1.9-1.24-1.17.19-.46,1.31,1.18,1.37,1,1.37,1.11,1.64,1.11,2.09,1.83Zm-.07-12.22-1.24-.92L151.7,44l-1.24-1.05-1.18-.85-1.3-1-1.12-1,.14-.06,1.37.46,1.57,1.17,1,.92,1.5,1.17,1.24.92.26.59Z"/>
            <path d="M166.21,86.28l-.13.07L165,86l-2.15-1.7-1.25-1.17-1.76-1.25-.59-.58-.06-.53,1.57,1,2.41,2,1.12.85,1.43,1.25Zm-7-2.28,2.94,2.22h-.66l-1-.72-1.24-1Zm.19-8.89v-.53l.2-.06,1.18,1,1.11,1,1.24.92,1.5,1.31,1,.65,1.64,1.44L169,82.1l-.27.46-.26-.2-1.7-1.18-1.37-1.3-1.63-1.11L161,76.41Zm0,2.68h.13l1.7,1.11,1.44,1.17,1.7,1.51,1.44,1.11,1.7,1.44.46.78-.27.2L165,82.82l-1.43-1L161,79.55l-1.57-1.31Zm10.4,1.7-.07.39-.13.26-1.44-1.24-2.42-1.83-2-1.64-1.17-.78L160.46,73l-.92-1.18.07-.32,1,.71,1.11,1,1.63,1.18,1.31.85,3.07,2.68,1.44,1ZM159.74,65.1l.13.07.85.78,1,.79,1.44.91,1.24,1,2.55,2.1,1.37,1.17,1.31,1.24,1.7,1.25.26.39-.13.39L169.74,74l-2.35-2-1.18-1-1.18-1-1.3-.91-2.36-1.83-1.24-1-.52-.46Zm-.07,4.06-.06-.66.13-.13,2,1.57,2.28,2,2.55,1.9,1,.85,1.31.91.85.85,1,.92-.13.39-1.11-.78-1.37-1.25-.85-.45-1.7-1.38-2.75-2.28-1.5-1Zm.13-7.06.14.06,1.43,1.18,1.51,1.11,1.76,1.37.92.85,1.17.85,1,.92,1.7,1.17,2,1.7,1.18,1.25-.26.39-1.25-1.18-1.3-1.11-2.42-1.9L165,67l-2.62-2.09-1.76-1.44-.79-.85Zm.14-2.36-.07-.58,2.29,1.56,1.57,1.38,1.43.85.85.85L167.58,65,169,66.22l1.63,1.17,2,1.7.72.39.32.53-.13.39-2.48-1.83-1.11-.92-2.16-1.56-1.05-1-1.17-.79-.92-.85-1.44-1-1.76-1.63Zm8.49-.19.07.39-.2.07L167,59l-1.18-.85-1.11-1-2.55-2-1.51-1.44L160,53.4l.13-.65,1.37.92,1.25,1.24,1.5,1.17,2.75,2.1Zm-.13,3.2-.06.2-.13.13-1.57-1.37-2.81-2.29-1.64-1.24-1.17-.72L160,56.28v-.39l1.37,1,1.51,1.18,2.48,1.83,1.31,1.18,1.57,1.37Zm.39-9.41v.59l-1.37-1.25-1.44-.91-2-1.5-2-1.7-1.76-1.64.06-.33,1.57,1.12,1.44,1.17,1.7,1.38,1.76,1.3Zm-.06,3.07v.33l-.2.26-4.31-3.33-2.62-2.23-1.24-1.37v-.39l1.44,1.11,1.44,1.31,1.63,1.11,3.14,2.61ZM160.39,44l1.24.39,1.25,1.11,1.76,1.25.52.65,1.64,1.11,1.57,1.31.65.52-.06.59-1.38-1.05L166,48.63l-1.17-.78-.85-1-1.83-1.38Zm8.76,3.46-1.24-.39-2.29-1.89-2-1.64L161.7,42l-1.11-.85.06-.06.59-.13,1,.85,1.89,1.37,2.1,1.77ZM164.25,41l.33-.13.45-.06,1.57,1.11,1.38,1,1.3,1.57-.13.26-.85-.58-2.35-2Zm5,22.56.26-.27,1.24.92,1,.91,1.9,1.64,1.17,1-.26.27-1.37-.92-1.31-1-1.89-1.7-.79-.59Zm1-2.55.13-.07,1.31,1,2.41,2,1.25,1,.19.33-.13.52-1.17-1-2-1.64L170.53,62l-.4-.66Zm19.22,11.76v.33l-.26.33L188,72.62l-1.44-1-.65-.66-1.57-1.11-2-1.76-1.24-1-1.18-1-2.74-2-2.94-2.55L171.05,59l.32-.33L173,59.81l1.5,1.24,1.57,1.18,1.31,1.17,4.05,3.08,1.24,1.17,2.29,1.9,1.57,1,.65.72,1.05.79Zm.85-2.42-.13.46-.27.13-1.7-1.31-2.74-2.22-1.31-1-1.37-1.18-2.16-1.69-5-4L173.86,58l-1.05-.71-.72-.85.2-.4,1.44,1.25,3.14,2.35L179.61,62l2.49,2,2.22,1.77Zm-7-8.56-.46.33-1.89-1.44L178.3,58.5l-1.43-1.11-1.51-1.31-1-.78-.92-.85-.33-.26.27-.52,1.37,1.11,2.48,2,2.49,2.15Zm0-3.2v.32L183,59l-.59-.52-1-.72-1.7-1.3-1.18-.79L175.36,53,174,51.83l.26-.45,1.64,1.11,2.54,2.35,2.1,1.64,1.43.85.66.71Zm0-3.07v.39l-.13.13-1.44-1.18-1.37-1-1.44-1.11-2-1.77-1.31-.91-.46-.85.13-.33L176.47,50l2.29,1.77,2,1.63,1.64,1.25Zm.13-2.62-.78-.39-1.83-1.57L179.48,50l-2.35-1.89-1.31-1.18.26-.33,1,.72,1.37,1,1.83,1.57,1.44,1,1.57,1.57Zm4.19,25v.32l-.26.27-1.57-1.25-2.29-2-1.51-1-1-.85-1.17-.92-.85-.78-1.38-1-.84-1,.13-.46.45.19.79.92,1.3.85.92.91.92.72,1.11.85,5.16,4.12ZM176.8,66.09l.13.06,1.11.78,2.09,1.83,2.23,1.77,1.37,1.11L185.1,73l2.09,1.5,1.18,1.18-.2.33-1.11-1-2.35-1.63-1.9-1.63-2.35-1.77-2.35-2-1.24-1.25Zm6.6-16.67-.06.13-.2.06L182,48.76l-1.5-1.31-2-1.43-1.11-1-.45-.72.26-.26.65.58,1.37,1,.72.72,1.64,1.11L183,48.76l.26.26ZM177,75.76l.13.06,1.44,1.31,1.76,1.24,1.11.92,2,1.5,1.83,1.64.66.85-.33.19-3.53-3-1-.66-1.77-1.37-1.7-1.37-.65-.92Zm.06-2.68,1.24.52,1.11.85L182,76.74l2.75,2L186.15,80l.59.52-.27.26-.91-.59-3.46-2.74-1.18-.85-1.11-.85L178,74.13l-.91-.59Zm.07,6.54-.07-.46.33.13L179,80.66l1.51,1.18L182.1,83l1.3,1.11,1.44,1.37-.13.33-1.18-.85L182.42,84l-1.11-.85-1.37-.92-1.18-1Zm4.12,5.81.52,1-1.7-1.17-1.18-.79-1.5-1.37,1.18.33,1.43,1Zm2-39.41v.58L178.76,43l.85.13,1.9,1.31Zm7.91,22,.06.39-.33.19-1.56-1.17-2.42-2L185,64.12l-.66-.78V63l.2-.13.46.26,1,.85,1.18.92,1.57,1.37,1.76,1.37Zm-6-7.39-.07-.26.07-.2.59.26,1.5,1.31,2.29,1.77,1.11,1,1.24,1.31-.2.33-.78-.72-2.16-1.83L186.67,62l-1.11-.85Zm.78-2.88.2-.13,1.37,1.05,1.31,1,2.55,2.16,1.57,1.5-.2.33-.26-.07-1.37-1.24-4.58-3.6-.52-.58ZM187,55.43l.59.07,2,1.63,1.7,1.63,1.51,1.05,1,1.37-.2.2-.52-.39-1.24-1.25L190.72,59l-1.3-1.18-1.18-1-1.37-1Zm.72-2.81.39.19,4.25,3.6,1.11.78,1.44,1.05-.33.52-1.5-1.17-1.64-1.11-2.28-2-1-1-.59-.52Zm.72-1.9V50.4l.19-.33,1.57,1.31,1.44,1.24,1.57,1.18,1.89,1.5.66.59-.26.32-1.57-1-1.31-1.3-1.57-1Zm8.23,2.68-.06.33-.13.33-2.29-1.77-1-1-1.64-1.11-1.89-1.7-.59-.46.26-.32,1.24.72,1.9,1.56,1.17.92,1.64,1.37Zm.85-2-.19.13-1.51-1.24L194.52,49l-1.44-1-2.16-1.64-.85-.91.26-.2,1.44.85L193,47.13l1.31,1.17,2.29,1.77,1,1Zm1.11-2.94-.13.52L196.74,48,194,45.69l-2.35-1.76L191,42.81l.19-.32.2.19,1.37,1.25,2.55,2,2,1.83Zm-5.88-7.65.2.13L194.38,42l3.6,3,1.31,1.37-.13.26L198,45.82,195.76,44l-2.22-1.9-1.18-1,.06-.19.2-.13Zm3.79,0,.33.13,1,.78,1.5,1.11.92,1-.33.27-3.4-2.62-.46-.59.13-.06Zm2.88,0,.59-.07.85.59v.59Z"/>
            <path d="M201.9,86.09l-.85.19-1.7-1.37-1-.91.13-.46,1.05.72,1.5,1.24Zm2.88-.79.45,1L203,84.78l-2.94-2.35L198.89,81l.13-.33.27.26,1.43,1.25,1.38,1Zm2.74-.91.07.33-.2.26-.26-.13-1.57-1.18-1.31-1-1.17-1-1.31-1.17L200,79.16l-.45-.72.06-.33,1.24.79,3.93,3.4,1.43,1Zm.46-2.88-.07.33-.13.33-.45-.4-3.73-3-1.44-1.25-1.37-.84-.92-1,.26-.52,1.25,1.18L203,77.46l4.18,3.4ZM200.33,73l.85.06,1.31.79,1.76,1.57,2.81,2.29,1.31,1.43-.06.26-1.25-1-2-1.44-1.76-1.44-1.77-1.5ZM209,76v.2l-.13.46-1.11-.79-1.64-1.44L205,73.67l-2.42-2.16-1.63-1.24.06-.66.4.27,1.3,1.11,2.49,1.89,2.22,1.77,1.11,1.11Zm.39-2.74.13.45-.26.13-1.18-1-2.54-2.15-1.57-1.18-2-1.44-.45-.78.13-.4,1.5,1.25,2.94,2.28,1.31,1.18,1.5,1.24ZM202,64.19l.14-.07,1.5,1.31,2.55,2.09,2.42,1.7,1.17,1.24-.13.33-1.24-1-2.94-2.09-1.83-1.5-1-.79-.65-.91Zm8.18,3.33.06.4-.26.06-1.63-1.18-1.38-1.17-2.42-1.9L203,62.36l-.46-.72.19-.33.27.13,1.43,1.44,1.7,1.31,1.51,1.24,1.17,1ZM203,59.09v-.46l.26-.06,1.5,1.37,1.5,1.24,2.88,2,1.5,1.5-.06.33-3.4-2.62-1.57-1-1.18-1.17Zm7.84,2.42v.72l-1.11-.66-1.77-1.37-3.2-2.68-1.31-1.37.13-.33.4.26,3.26,2.55,1.9,1.51,1,.91Zm.26-2.68-.13.19-.06.2-.79-.65-1-.79-1.38-1-1.76-1.5-1.38-1-.58-.91.13-.26.39.19.85.66,1.44,1.3,1.57,1.25,1.24.85.91.85Zm8.3,3.86-1-.72-1.11-.72-2.48-2.16-4.19-3.27L208,53.67l-1.43-1.18-1.18-.72-.92-1.18.07-.39.52.52.72.59,1.51,1,1.11.85L210.72,55l1.25,1,1.7,1.38,1.43,1.17,2.42,2,1.7,1.31ZM219,59.42l-.33-.26L217.13,58l-2.48-2.09-2.49-2-2.48-2-2.81-2.09L206,49l-1-1.24.2-.27,1,.85,1,.92,1.44,1.18,5.55,4.38,2.36,1.83L218.24,58l.66.91Zm-.52-3.79-.33-.2L216.28,54l-1.63-1.11-1.51-1.37-1.7-1.24-1.37-1.18L208.83,48l-1.77-1.3-.85-.85-.78-.72.2-.53.85.79,1.11.91,1.7,1.31,1.17,1,1.64,1.31,3.72,2.94,1.9,1.31.65,1.11Zm-.53-3.47-.45-.26-2.94-2.48-2.75-2.1-1.5-1.43-1.7-1.18-2-1.63-.59-.72.13-.4,1.5,1.25,1.64,1.3,1.63,1.11,1.31,1.05,4.44,3.79,1.18,1.31Zm-9.6-11,.13-.59,1.3,1.11,1.51,1.18,3.79,3,.91.91,1.12,1-.07.39-1.18-.72-2-1.83-1.9-1.5L210.53,43l-1.11-.79Zm11.5,24.64-.46.2-1.83-1.57-1.76-1.18L214.52,62,213,60.92l-1.5-1.5-.07-.53,1,.85,1.18.92,1.31.91,1.76,1.57,1.18.79,1.05.91Zm-8.3-25,.59-.19L214,42l1.57,1.11.72.59.13.91-2.55-2.09ZM212.1,63l1.57.72,3,2.62,2,1.63,1,.65.65.66v.59l-1.5-1-4.18-3.33-1.83-1.57-.66-.46Zm.45,3.66.79.07,2,1.7,1,.72,2.15,1.76,1.05.92,2.55,2.09,3.07,2.29,1.64,1.57-.14.32-1.37-.91-1.18-1-1.24-.85-2.48-2L218,71.12l-2.61-2-1.25-1Zm.46,3.47.07-.46.46.39.71.72L215.82,72,221,76.09l1.37,1L225,79.22l1.31,1.31-.26.26-1.44-1-1.24-1-1.31-1-1.24-1-1.18-1-3.46-2.74L213.67,71Zm.53,3.59.32-.19,2,1.63,2.88,2.22,1.31,1,1.3,1.11,1.38,1,2.15,1.76.79,1.11-.07.33-.65-.46-1.7-1.44-2.35-1.83L218,77.72l-2.88-2.29Zm.58,4.06.59-.33,1.64,1.24,1.3.92.85.91,1.05.79,1.5,1.24,2.42,2,1.37,1-.19.26-1-.33-1.9-1.56-1.24-1.05-2.42-1.9L215.82,79Zm.53,3.46-.07-1,2.88,2.48,1.3,1,2.88,2.35-1.18-.06-1.76-1.51-1.18-1Zm6.14-11,.46-.26,1.44,1.31,2.09,1.5,1.37,1.11.85.53.26.39-.13.52-.39-.33-1.63-1.11-1.31-1.11-2-1.5Zm7.13,2-.07.53-1.57-1-1.24-1-1-1-1.63-1.31-.72-.46-.59-.72v-.59h.07l.85.79,1.63,1,1.7,1.63,1.24,1.05Zm.58-2.87-.06.46h-.2l-.65-.33-1.05-.85-1.17-.85-1.05-.65-1-1-1.24-.79-.85-1.11.06-.45.46.32.85.85,1.31.72.85.92,1,.85,1.31,1,1,.59Zm.46-2.55.07.52-.26.07-1.05-1-2.22-1.64-1.11-.85-1.25-1-1.3-1.37-.39-.65.06-.33.92.72,2,1.89,2.29,1.7L228.18,66Zm.33-2.81.13.46-.2.13-1.3-1.12-1.25-1.11-2.35-1.89L222.43,59l-.66-.91.07-.33.45.33,1.51,1.11,2.55,2.09,1.44,1.24Zm-6.93-8.83,1.24.92,1.18.85,2.16,1.7,1.89,1.7,1.11,1-.19.26-1.31-.85-.92-.91-2.28-1.7-2-1.63-1.05-1.12Zm8,3.21.07.45-.27.13-1.43-1.17-1.25-1-2.41-1.83-1.77-1.5-.65-.85.13-.39,1.3,1.17L226.35,55l2.55,2Zm.59-2.42-1.5-.72-1.31-1.11-2.49-2-1.89-1.37-.85-.92.19-.32,2,1.3,1.3.92.79.85,1,.85,1.37,1,1,.78.39.4Zm.46-3.27.06.46-.26.06L229.88,52l-3.66-2.68-1.9-1.44-.78-1,.13-.4.39.46,1.31.92,1.76,1.37L229.29,51l1.63,1.25Zm.45-2.75v.66l-.85-.59-1.63-1.37-1.18-.85-2.48-2-1.7-1.5.13-.46,1.31.91,1.24,1,1.11,1.05,2.48,1.83,1.25,1.18Zm.59-2.68.13.13-.13.4-1.76-1-1.11-1.05-2.42-2-2.55-2.15.26-.27.78.33,4.58,3.86,1,.85Zm-5-6.53.52-.2,1.83,1.31,2,1.7,1.31,1.17-.13.46-1-.85-2.16-1.63Zm4,0,.72-.07,1.11,1.11-.06.59Z"/>
            <path d="M233.34,84.85l.06-.13,1.12.65.26.85-1.18-.79Zm5.16.58v.72l-2.09-1.63-1.89-1.37-.53-.79.2-.39,1.44,1,1.7,1.38Zm4.84.53-.39.26-2-1.11-2.48-2.22-1.31-1-1.24-1-1.31-1.37v-.46L236,80.27l1.37,1,2.68,2.22,1.37,1.24Zm3.53-.33v.59l-1.7-1-1.24-.78-.92-1-2-1.38-2.48-2.22L236,77.72l-1.18-1,.07-.4.91.59,1.83,1.37,1.64,1.31,1.57,1.5L242,82l1.5,1,1.24,1.31Zm3.86.39-.26-.13L249,85.17l-1.63-1.57L245.17,82l-2.09-1.69-1.31-1.18L240.07,78l-2.22-2-1.77-1.31-.58-.65.19-.33,1.57.92,1.31,1.17,2.29,2,2.22,1.5,1.37,1.31,1.64,1.24,1.11.92,1.37,1,.78.85,1.25.85.52.39-.07.07h-.19Zm1.5-2.35-.13.06.06.27-.39.13-1.57-1.31-1.43-1.18-4.25-3.4-2.23-1.63-1.37-1.18-1-.85-1.57-1.24-1.7-1.24-.59-.79.26-.32,1.57,1.11,6,4.84,2.74,2.15,2.81,2.29,1.25,1,1.5,1.11Zm-7.52-9,.13.26-.06.27-.26.06-1.25-1L242,73.34l-1.17-1-1.7-1.57-2.75-2.29.13-.39,1.51,1,1.3,1.11,4.06,3.4Zm.53-3.07-.07.39-.26.13-.72-.65L243,70.73l-1.43-1.18-2.42-1.77-1.7-1.56-.46-.66.13-.33,1,.66,1.5,1.44L242,69l1.57,1.56Zm.45-2.74-.06.52-.2.06-1.57-1.24L242.42,67l-1.24-.85-1.24-1.05L238.5,64l-.91-1.24.13-.26.52.52,1.24,1,1.38,1,.65.66,1.76,1.17,1.84,1.57Zm.46-2.68v.13l-.06.32-.2.07-1.31-1.24-1.11-.92-1.18-.91-2.61-2-1.63-1.51.13-.46,1.3,1,1.25,1.05,2.54,1.9,2,1.76Zm.65-2.88-.19.39-.2.13-1.5-1.11-1.18-.85-1.57-1.24-.91-.92-1.7-1.24-1.05-1.17.2-.27,1.5,1.18,1.44.92,1.18,1.24,1.24.91,1.24,1,1.37,1.05Zm-7.71-9,1.11.46,1.05,1,1.24.92,1.18.91,1.11.92L246.35,60l.65.52v.39l-.13.26-1.18-.91-2.09-1.83-2.68-2.1-1-.91-.85-.65Zm.46-3.26,1.7,1.37,2.42,2,1.24.92,1.18,1,1.3,1.5v.33l-.32-.2-2.88-2.35-1.31-1.18-2.29-1.77-1-.78-.13-.52ZM248.18,55l-.07.32-.19.27-.46-.4-1.24-1-1.11-.85L243.6,52l-1.24-.92-2-1.5-.46-.72.2-.39,1.3,1.17,2.68,2,1.77,1.64,1.44,1Zm.39-2.88-.07.52-1.7-1.17-1.43-1-1.25-1.11-2.35-2-1.37-1,.19-.45,1.44,1,1.31,1,1.77,1.7,2,1.37Zm.59-2.68v.33l-.26.26-1-.78-.92-.92-1.44-.92-1.24-1.11-2.16-1.89-1.11-1.18v-.39l.66.46,1.83,1.5,2.55,2.22,1.63,1.11ZM242,40.72l.53.07L243.73,42l1.18.72,1.44,1.37,1.7,1.11.85.85.85.92-.2.39-1.9-1.63L246,44.58l-1.7-1.5-1-.59-1.05-.92-.58-.59v-.19Zm4.32.72-.46-.72.65.07,1.25,1,1.17,1,1.18,1.37-.13.39-1.38-1.17Zm1.44,36.22.13-.27.58.07,1.38,1.18,1.37,1,1.37,1.44-.19.39L251,80.27l-1.31-1.18Zm3.53-.27h.78l.91.79-.06.39L252.1,78Z"/>
            <path d="M270.27,87.26l-.33-.06-1.5-1-1.44-1-1.76-1.38-.79-.84-1.63-1.18-1.44-1.31-1.17-.72-3.27-2.88v-.45l1.24.78,1.17.92,1.18,1.17,1.11.66,1.83,1.63,1.31.85,1.5,1.44,2.36,1.63,1.5,1.12.39.52ZM257.2,73.21l1.17.92,1.7,1.37.72.46L266,80.27l1.24.85.92.78,1,.79,1.24,1.18,1.11.91L273.15,86l.59.39-.07.14-.65.06-3.14-2.35L268.64,83l-1.83-1.43-1.64-1.18-3.46-2.74-1.11-.92-1.31-1-.85-.91-1.31-.92Zm.06-2.42.07-.26.19-.33,1.57,1.31,1.44,1.18,1.31.91,1,1,1.9,1.57,1.05.79,1.63,1.37,1.11.85,2.35,1.7,1.84,1.7,1.5,1.17,1.24.92.79.65-.46.26-1.37-.84-2.1-1.83-1.17-1-1.38-1.18-1.63-1-1.31-1-1.3-1.24-1.38-1-1.17-1-3.14-2.75-2.55-1.89Zm9.35,16.41-.65-.13-2.09-1.37-2.55-2.1-1.44-1-2-1.89-.33-.72,2.62,2,1.31,1.11,2.61,2Zm-.39-12.81.26.52-.13.06-.92-.65-1.76-1.63-2.62-1.9-2.94-2.55-.32-.39.19-.52,2.94,2.48,2.42,2,1.31,1Zm.26-3.14.07.46-.2.13-1.44-1-1.24-1.11-2.62-2.16-1.43-1L258.05,65l.19-.32,1.44,1,2.49,2,2,1.83,1.18.85Zm-7.91-9.41,1.44.85,2.42,1.89,2,1.77,1.77,1.37.78.85-.19.39-1.64-1.24L263,65.82l-1.9-1.5-1.17-.92-1.31-1.11Zm9,3.72v.26l-.2.27-1.63-1.25L264,63.4l-3.53-2.68L259,59.22l.39-.13.39.2,1.7,1.5,1.64,1.31,1.5,1,1.24,1.25Zm.45-2.94-.26.52L266,61.9l-1.38-1.11-1.43-1.11-1.25-1-1.69-1.3-.53-.59.2-.59,2.68,2.35,5.23,4Zm.33-1.9-.46-.26-.85-.85-1.7-1.37-1.24-1.18-1.24-.72-1.18-1.17-.85-.52-.58-.85.12-.4,1,.85,1.37.92.52.72,1.5,1,1.57,1.44,1.31.85.79,1.11Zm.65-3.53.07.2-.13.39-.92-.59-1.11-.91L265,54.84l-2.49-2-1.44-1.5.27-.33,1.17,1.05L266.15,55l1.31,1.11Zm.53-2.61.13.39-.26.07-1.44-1.11-1.24-1-1.31-1.05L263,50.07l-1-1.31.26-.19,1.31,1,1.31,1.11,1.24.92,2.29,2Zm-6.28-8.24.2-.06,1.11.91,1.05.79,1.3,1.11.85.65,1.51,1.31,1,1.11-.19.26-1.44-1-1.38-1.3-.91-.66-2.68-2.16-.59-.52Zm1.24-2,.26-.06,1.25,1,1.3,1,2.29,1.89,1.51,1,.26.72-.2.13-.72-.65-1.76-1.11-2-1.64-2.22-1.83Zm1.77-1.7.33-.13L268,43.73l1.44,1.11,4.25,3.4.07.13-.66.07-1.57-1.18-1.24-1-1.11-.85-1.24-1-1.44-1.11-.33-.19ZM286.16,55.1l-.07.13v.27l-.33.13-1.3-1.18-1.18-.85L282,52.68l-2.68-2.35-2.35-2-1.44-1-1-.91-3-2.42-1.17-.85L269,42l-.65-.52.46-.33.91.66,1.05.85,1.7,1.44,1.44,1.11L275,46l.91.92,1.44,1,3.86,3.21,1.5,1.11,2.42,1.89Zm-8,28.44-.13.39-.86-.26L276,82.49l-2-1.31-2-1.69-1.31-1.18.53-.2,1.17.85,2.36,1.9,1.89,1.44.92.91Zm-7.2-43,.59-.2,2.88,2.09,1.18,1L278,45.3l1.3.91,1.57,1.38,1.64,1.24,1.17,1.11,1.24,1.11,1.38,1.37-.07.33-.52-.33-1.57-1.24-1.05-.85L281.71,49l-1.83-1.24-1-1-2.22-1.7-4.19-3.4Zm8.7,41.18-.13.19-.39.27L277.85,81l-1.11-1-2.28-1.77L273.08,77l-.46-.52.27-.33,1,.79,1.9,1.7,2.48,1.83Zm-6.28-7.58v-.4l.33-.13,5.16,4,.92,1,1.11.71v.4l-.26.19-.13-.13-1.64-1.24-3-2.48-2.09-1.57Zm.46-3,.07-.2.26-.13,1.31,1.11,3.72,2.88,1.31,1.11,1.37,1.44-.39.33-.85-.79-1-.85-1.18-.91-4.51-3.66Zm12.49-22.29.13.52-.13.13-1.05-.78L283,46.87l-1.37-1.25-1.7-1.3-1.11-.79L276.87,42l-2.55-1.83.14-.26,1,.07,2.15,1.76L279,43.14l1.63,1.11,2.82,2.35,1.3,1ZM282.5,74.45v.2l-.14.39-.85-.59-1.11-1.11-1.89-1.57-1.44-1-1.77-1.44-.71-.53.13-.52.91.52,1.9,1.7L280.86,73l1,.92Zm.71-2.68-.06.33-.2.2-.78-.46-1.57-1.31-1.5-1.44-2.49-1.7L275,65.69l.13-.39,1.18,1L280,69.09l1.5,1.37,1.57,1.18Zm.66-2.61.06.39-.26.2-1.44-1.18-1.17-1-2.36-1.83L276.55,64l-1.05-1,.13-.46,1.31,1,1.24.91,1.18,1,2.35,1.83,1,.91ZM276,59.68l1.37,1,2.42,2,1.18,1,2.22,1.56,1,1,.2.39-.07.39-.46-.26L282,65.17,279,62.88l-1.31-1.24L276,60.2Zm8.89,4,.06.19-.06.46-.79-.52-2.68-2.23L279,59.74l-1.37-1-1.31-1.37.07-.4,3.13,2.42,1.7,1.24,1.11.92,1,.78,1.05.85Zm-8-9.61h.06l1.38.78,1.83,1.7L282,58l1.31,1.12,1.24.85.85,1-.13.2-2.61-1.77-1.38-1.37-2.09-1.5-1.5-1.25-.85-.85ZM285.76,58l.07.46-.33.13-1.24-1-2.09-2-1.57-1-2.35-1.9L277,51.51l.2-.46,1.31,1.18,1.37,1,1.37,1.11,1.64,1.11L285,57.26Zm-.06-12.22-1.24-.92L283.28,44,282,42.94l-1.18-.85-1.31-1-1.11-1,.13-.06,1.38.46,1.56,1.17,1,.92,1.5,1.17,1.24.92.26.59Z"/>
            <path d="M286.35,86.41l-1.24-.32-1.05-.85-.46-.85.27-.2Zm3.2-.85v.59l-2-1.3-1.38-1-1.44-1.37.14-.33.85.65,1.89,1.44Zm3.6-.13-.07.4-.85-.4L290.6,84l-1.18-.85L288,82.23,286.81,81l-1.11-1,.06-.26.13-.2,1.24,1,1.38,1.18,1.43,1,1.18.79L292.56,85Zm.91-2.35v.33l-.13.26-1.24-1-1.24-1-2.22-1.83-1.83-1.44-.72-.91.26-.33,1.11.85,2.22,2,1.31,1,1.17,1Zm1.18-2.48.06.19-.13.2-.32.13-1.64-1.37-1.76-1.38-1.31-.78-1.5-1.5-.92-1,.26-.27L289.36,76l2.09,1.76,2.42,1.7ZM297,78.83l-.71.13-1.64-1.17L292.43,76l-1.31-.85-1.18-1.18-1.37-1,.13-.33.07-.13,1.57,1,1.17,1.24,1.51,1,2.61,2.16Zm4.25.2-.72.06-2-1.37-1.24-1.11-3.66-2.68-2.42-2.09-1.57-1.51.13-.45L291.12,71l1.18.91,1.24,1,1.18,1.11,1.57,1,1.37,1,2.35,2Zm10.92,5.82-.46.19L310,83.73l-1.24-1-1.12-1-2.35-1.83-2.68-2.22L300.14,76l-1.5-1.38-2.35-1.89-1.51-1.18-2.42-2-1.3-.78-.53-.52.33-.4.91.53,1.18.78,1.37,1.24,1.12,1,1.17,1,2,1.37,2,1.83,2.22,1.7,1.77,1.44,2.28,2,2.62,2,1.11.85Zm-.13-3.6-.13.85-2.29-1.76L307,78l-2-1.3-4.32-3.6-1.37-1.18-1.63-1.11-1.37-1.24-1.7-1.44-1-.85-1.18-.91-.78-.92.19-.33,1.05,1L296.68,69l1.37,1.17,1.31,1,1.24,1,1.31,1L303,74.26l2,1.7,2.23,1.56,1.37,1,1.9,1.83ZM299.36,67.92v.19l-.2.33-1.24-.72-1.11-.85L293.34,64l-.65-.52-.26-.26.13-.59.46.2L294.26,64l1.11,1,1.76,1.44,1.44.85Zm.91-2.42-.06.13-.13.52-1.18-.78-1.11-.92-1.05-.91L295,62.16l-1.24-1-.39-.32.06-.53,1.38.85,1.11.92,1.17,1.11,1,.85,1.3,1,.72.39Zm.39-2.88.27.65-.2.2-.85-.65-1.7-1.25-2.35-2-1.51-1.43.33-.33,1.5,1.31,1.44,1.17,2,1.64Zm-5.29-6.86,1.24.65,1.11,1,2.62,2,1.44,1.44-.27.39-.65-.59-.85-.85-3.33-2.48L295.3,56Zm1-2.55.13-.13.65.52,1.31.91L300,55.82l1.83,1.51.79.91-.27.33-1.43-1.18-1.83-1.57-1.64-1.24-1.11-1ZM311.52,62l.13.58-.13.07-1.51-1-1.44-1.17L306,58.24l-1.31-1-1.24-1-2.36-1.77-2.42-2-1.5-1.31.39-.33,1.24,1,1.18.92,1.18,1,2.55,1.9,2.74,2.22L307.79,59l2,1.63.91.72Zm-.2-3.14.13.39-.2.13-3-2.55-2.09-1.57-2.55-2-2.75-2.35L299,49.35l-.66-.46.33-.26,1.44.79,2.28,2,2.29,1.89,1.44,1.11,1.37,1.12,2.42,1.89,1.18,1Zm0-3.33v.39l-.26.19-.65-.58-1.57-1.38-1.51-1-.78-.78-1.05-.79-3.79-3-1.18-1-1.24-1.18.33-.19,1.44,1.11,1.37,1,2.09,1.77,1.37,1,1.12.85,1,.91,1.89,1.38Zm-.07-3.34L310.08,52l-1.24-.92-2.62-2.16-1.83-1.37L303,46.15l-1.17-1L300.47,44l.19-.33,1.44,1.05,1.38,1,1.76,1.76,1.83,1.24,2.35,2Zm-.06-2.81-.13.2h-.26l-1.38-1.25-1.37-1.11-2.16-1.83-2.09-1.5-1.63-1.5-.66-.79.4-.26.91.91,1.83,1.51,3.79,2.87,1.77,1.64L311,49ZM302,71.12l.59-.46,2.09,1.9,2.87,2.22,1,.78,1.25.72,1,1L312,78.57l-.06.52-1.31-1.24L309,76.61l-.72-.52-1.37-1-1.05-.79-1.76-1.63L303,71.77Zm4.18,15.16-.72.27-1.3-1.12-.86-.65-.06-.59Zm-2.88-4.77.14-.39L307.4,84l2.94,2.28-1-.13L307.66,85l-1.11-.85-2-1.44Zm.14-15.82v-.32l.26-.07.78.59,1.11.91,1.77,1.31,2.29,1.83,1.43,1.31.66.78.06.4-1-.79-2.49-1.89-2-1.64-1.5-1L303.61,66Zm8.43,9.55-.33.19-1.11-.91-1.44-1-.78-.79-1.44-1.24-2.29-1.7-1-1.18.13-.32,3.59,2.74,2.42,2.09,1.7,1.18.59.46Zm-.13-6.8-.33.46-2.55-2.1L306.48,65l-1.17-1L303.87,63l-.2-.66.07-.39,1.5,1.24,2.55,2.16,1.11.85,1.24.92Zm-.2-3.21.07.53L310.27,65l-2.41-2.22-2.23-1.77-1.3-1-.59-.65v-.66l1.57,1.18,2.87,2.29,1.24,1.24L311,64.71ZM304,40.72l.33-.06.65-.07,1.31,1.18,1.3,1.24,2.36,1.7,1,1.11v.39l-1.51-1.11Zm6.67,1.5-.46.4-2.55-2,.13-.13.78.13,1.12.72Z"/>
            <path d="M316.22,85.7V85l1.18,1.24-.59-.07Zm4.45.19-.2.2-.65-.07-1.64-1.24-1.63-1.5.19-.33,2.36,1.83Zm4.18.07-.65.32-2.36-1.83-1.3-1-1.57-1-.92-.92-1-1.31.2-.26,1,.92,1.24,1,1.57,1,1.24,1,1.5,1.44Zm3.27-.26.19.78-1.63-1.37-2.29-1.64-1.17-1-1.05-1-3.66-2.94-1.05-1,.2-.32,1.37,1,2.49,2.16,1.3,1.11,1.44,1.11Zm4.38.19-.46.2-1.89-1.18L328.9,83.8l-2.42-2-1.3-.91-1.24-1-1.51-1.17-1.24-.85-1.63-1.57-1.12-.79L318,75l.26-.59,1.11,1,1.18.79,1.24,1.3,2.74,1.9,1.25.92,1.89,1.76,2,1.57ZM318.71,72l1.17.59,1.7,1.3,1.05,1L323.94,76l5.16,4.11,1.37,1,2.62,2,1,.92,1.11,1.11-.39.19-1.7-1.3-2.55-2.16-2.36-1.77-3.85-2.94-1.18-1-1-.72-.85-1-1.83-1.31-.78-.72Zm8.49,3.4-.19.26-.2.13-2.74-2.09-1.25-1-1.24-1.11-1.24-1.05L319,69.16l.19-.46.53.39,1.5,1.37,2.35,1.84,2.75,2.28.72.53Zm.33-2.88v.33l-.26.06-1.44-1-2.48-2.09L322,68.83l-1.83-1.57-.72-.78.2-.39,1.37,1.17,1.44,1.18,1.57,1,2.55,2ZM328,70l-1.11-.66-1.05-.85-1.11-1-1.5-.85-2.1-1.83L320,63.67l.13-.53,1.31,1,1.24,1,1.11,1,1.5,1,2.16,1.64.65.65Zm-7.32-8.63-.07-.2.07-.32.19-.14.92.79,1.37,1L328,66.41l.52.66-.2.39-.45-.39-1.7-1.25-1.37-1.17-1-1L322.63,63l-1.05-.85Zm.52-2.75.13-.85,2.62,2.29,1.56,1,1.7,1.37.85.85.92.78-.13.4-.92-.59-2.29-1.83-2.09-1.7-1.17-.92Zm.52-3.59H322l1.37,1.17,1.24,1,1.18,1,1.24,1,1.77,1.5.59,1-.07.33L328,60.86l-1.11-1L325.63,59l-1.3-1.05-1.11-1-1.51-1.24Zm8.17,3.46.07.33-.33.13-1.31-1.05-2.41-2-2.49-1.83-1.17-1.51v-.32l.52.39,1.5,1.24,4.12,3.33Zm.46-3,.13.39-.26.13-1.57-1.11-1.44-1-3.4-2.81-1.37-1,.07-.65,1.5,1,2.16,1.83,2.61,2Zm-7.26-8.24L323,47l.33-.26,1.44,1.17,2.54,2.16,2.36,1.76,1,1.12-.13.45-1.31-1-1.17-.91-1.24-.92-1.25-1-1.17-1.18Zm8.37,2.68v.33l-.19.26-1.18-.79-3.66-2.94L325.31,46l-1.37-1-.46-.46.19-.45,1.57,1,1.44,1,1.31,1,1.5,1.51,1.05.52.85.65Zm2.55-.85-.06.2-.66-.14L331.78,48l-1.11-1-1.11-.91-3.34-2.55-1.5-1.31-.39-.72.06-.33,7,5.56,1.17,1.05Zm12.16,6.73-.26.07-1-.66L343,53.67,340,51.38,337.21,49l-1.77-1.3L334,46.47l-1.24-1-2.88-2.16-2.15-1.76-.53-.66.46-.06,1.18,1,1.76,1.17,2.16,1.7,2,1.64,1.5,1.31,1.9,1.37,2.35,2,2.29,1.7L345.44,55l.65.46Zm-16.73,22,.19-.2h.46l1.57,1.11,1.44,1.44,1.24,1,2,1.7,1.17.91-.13.27-1.83-1.11-1.5-1.38L332.5,80.2l-1.44-1.11Zm1.7-36.68.26-.26,2,1.11,1.9,1.83,2,1.18L338.38,46l1.18.91L340.74,48l1.63,1.31.91.65,1.12.85,1,.66.71.91-.19.46L341,49.15,338.64,47l-1.37-1.11L336,45l-1.51-1.18-1.43-1.3ZM332,76.35l.26-.13,1.63,1.17,2.75,2.36,2.15,1.63.46.85-.19.26-1.51-1.11-1.24-1.11-2.22-1.83-1.44-1.31-.92-.52Zm1.56-2.29,1.31,1.11L337,76.74l2.29,1.83,1.37,1.5-.26.33-.53-.59-4.24-3.2-1.12-.92-1-1.3Zm8.37,3.66-.13.26-.13.2-.39-.33-.85-.78-1.11-.72L337.66,75l-2.16-1.83-1-1.37.13-.33,1.24,1.31L341.32,77Zm3.66-29-1.24-.2-2.42-2-1-.78L339,44.19l-2.42-2L335,40.79l.59.06,2,1.37,1.11.92,1.17,1,2.75,2ZM335.18,69h.13l1.63,1.37,1.7,1.31,1.11.78,1.18,1.18,1.24.72.66.85-.26.32-1.05-.91-1.44-1L339.3,73l-1.77-1.31-1.17-1-1.25-1.17Zm.65-2.49.53.2,4.31,3.4,1.9,1.63,1.11.92-.4.26-1.5-1-2.61-2.29-2-1.5-.85-.72-.59-.53Zm.39-3,.14.06,1.56,1.24,2.82,2.09,1.11.85,1.17,1,1.24,1.31-.19.39-1.11-1-3.86-3.07-1.37-1-1.57-1.37Zm.4-12.1.65.2,1,.65,2,1.7,2.16,1.57,1.7,1.5,1.18.85.71.92-.06.39-.79-.59-3.46-2.74-1.9-1.64-1.11-.72-.91-.85-.79-.58Zm.13,9.87.06-.45.13-.14,1.25,1,1.17,1,1.57,1.43,1,.79,1.77,1.24,1.24,1.5-.26.27-.53-.53-1.37-1.24-1.24-.78-1.7-1.31-2.16-2Zm.39-2.87V58l.2-.13,1.76,1.51,1.64,1.44,1.63,1,2,1.9.85,1-.07.26-1.05-.72-2.15-2-2.36-1.64Zm8.76,3.33v.13l-.2.13-1.24-.78-2.22-1.64-1.24-1-2.23-2-1.56-1.31v-.59l1.24.92,1.11.91,1.18.92,2.35,2L345,60.72l.79.79Zm-3.07-18.24,1.11,1.64-5-3.79,1.05.26,1.18.65Z"/>
          </g>
          <g>
            <path class="cls-3" d="M92.45,86.51l-.85-.06-.85.06-1-.13-.79.07-.52-.07h-.59L87,86.25l-.39-.06H86l-.45.06h-2l-.91-.13L82.19,86v-1.5l.06-.59.33-.79.13-.91.06-.39.2-.92.13-.65.13-.53v-.52l.13-.91.07-.53.13-.72.26-.52.13-.65v-.53l.2-.91.13-.52.06-.85.07-.4.26-.45V70.76l.2-.92.06-.52.2-.91.06-.46.13-.85.14-.46.19-.78.07-.4.26-.78V63.37l.13-.46.13-.39.2-.91.13-.39.32-1.83.2-.46.13-.46.07-.46v-.39l.06-.46.13-.78.07-.46.19-.78v-.4l.13-.78.26-.78v-.92l.07-.52.13-1.38.13-.78.33-1.18.13-.45v-.4l.06-.46.2-.84.13-.92.13-.78.2-.4.06-.45.07-.79.13-.46.2-.65.13-.2.19-.71.66-.2h.45l.79.06.46.07,1-.13h.52l1.44.06,1.31-.06h1.63l.72.06.4-.06h1l.52.06.59.07,1,.13h.46l.52.2.92.26H105l.39.13,1.11.33.33.19.26.13.66.4.45.32.4.33,1,1.31.52.78.26.33.33.59.26.91.39,1,.26.46.2,1.11v.46l.32.91-.06.46.13,1.31.07.85-.2.39.2.92.06.39-.06.45.13.46-.07.46v.39l-.2,1.05v.46L112,59.78l-.06.45v1.83l-.33,1v.46l-.26,1.24-.13,1-.13,1.5-.13.53-.2.52-.06.65-.4,1.38-.06.85-.13.78-.2.46-.45.85-.14.39-.06.72-.39.85-.07.39-.26.92-.46.91-.46,1.31-.32.65-.53.53-.06.39-.33.46-.32.39-.46.78-.92,1.11-.91.72-.59.53-.39.26-.85.39-.72.2-.66.45-.91.26-.65.13-1,.14-.72.26h-2l-.45.06h-.33l-.46.07Zm3.2-8.82.66-.2.52-.26.72-.39.32-.26.53-.53.46-.52.19-.39.26-.46.26-.65.33-.66.33-.85.39-1.24.2-.72.19-.91.26-.85.07-.39.13-.33.13-.39.2-.79.06-.46.13-.85.13-.91.13-1,.07-.46.13-.52.33-.92v-.91l.19-1.37.07-.4.13-1.37-.07-1.37.07-1.9L103,52.72l-.07-.53-.39-1.11-.46-.85-.39-.32-.33-.27-1.11-.32-1-.13-.85-.07-.59.07-.2.52-.19.46v.39l-.13.46-.2,1-.26.91-.13.85-.13.92-.13,1.44-.07.39-.13.46v.45l-.07.53-.19.39v.39l-.2.92-.13,1v.46l-.19.91-.13.4-.2.91v.39l-.2.92-.13.46.07.39-.13.46-.26,1.7v.85l-.07.39-.33.91v.4l-.19,1-.26,1.17-.07.46-.26.92-.13,1-.07,1-.19,1.11-.13.59.91.26Z"/>
            <path class="cls-3" d="M126,87.3l-.85.06-.46-.06-.59-.07-1.5-.46-.52-.06-1-.26-.46-.26-.91-.59-1.18-1-.92-1.05-.19-.33-.33-.32-.2-.39-.32-.46-.53-.85v-.39l-.19-.46-.07-.39-.13-.33-.13-.39-.06-.46-.13-.39-.07-.92-.06-.39-.2-1.31.13-.46V74.09l.2-.65-.07-.52v-.46l.13-1.44.26-.92v-.52l.13-.91v-.46l.26-.92-.13-.32.13-.85.14-.46.19-1.18.2-.78v-.85l.19-.79v-.45l.2-.39.13-.46v-.39l.13-.46-.06-.39.39-.66.13-.46v-.91l.13-.79.2-.45.06-.4.13-.91.26-1.64.33-.45.13-.85.39-.85.2-.46.26-.78.33-.92.39-.78.26-.46.59-.85.07-.46.26-.39.52-.85.52-.78.46-.33.33-.39.91-1,.85-.59.52-.2.46-.33.79-.45.78-.4,1-.26.39-.06,1-.26.66-.07,1.18-.2.91-.06.78-.07,1.18.07.39.06L136,40l1.05.13.52.2.52.06.4.13,1,.46,1.17.79.53.32.32.39.72.59.72.66.33.39.19.46.4.85.19.39.13.39.13.46.2,1,.13,1.24.07.52v.46l-.07.85-.06.39.06.85v.46l-.06.85-.14.46-.06.39.06.46v.65l-.06.39-.13.92-.07,1-.06,1L144,59l-.13,1,.06.65-.32.72.06.79-.26.85-.13.84-.2.86-.06.78-.2.85-.2.39L142.39,68v.59l-.13.45-.13.92-.2.39-.65,2.29.06.39-.32.79-.2.39-.07.72-.32.72-.2.78v.46l-.19.72-.33.45-.07.66-.45.91-.53,1.18-.32.46-.59.85-.26.39-.33.39-.13.39-.79.79-.39.33-.33.39-.78.59-.78.52-.27.19-1.5.59-.46.07-.52.13-.92.2-.45.06-.72.2-1.44.19Zm2-8.7.91-.26.59-.26.92-.65.45-.92.4-.91.13-.46v-.52l.19-1,.13-.46.13-.92.2-.52.06-.92.2-.45.2-.85.06-.53.2-.39v-.52l-.07-.2.2-.59.2-1,.13-1.5.19-.59.2-.52.13-1.24.2-.4L133.89,61l.26-1,.13-.78.13-.52.13-.46-.06-.46.06-.85.13-.52.2-.92.13-.59V54l.13-1.17.07-.85.13-.92-.26-1.3-.26-.4-.46-.58-1-.46-1.24.06-.52.13-1,.4-.65.58-.46.72-.26.79-.26.45-.4.85-.13.46-.13.52-.39,1.38v.13l-.06.52-.2.92-.07.39-.26.91-.19.92-.2,1.05-.06.45-.14.46-.13,1-.19.52-.26,1-.14.46-.13.91v.46l-.06.46.06.52-.19.46-.33.91.07.53-.13.45.06.27-.13.58v.53L125,70v.53l-.2,1v.46l-.19.45.19.46-.06.79-.26.65.19.46v1.83l.2.45.13.27.39.58.33.33.52.2.53.13.39.06Z"/>
            <path class="cls-3" d="M172.59,86.51h-4.65l-.32-.26-.2-.72-.06-.91.06-.4-.13-.91-.13-1-.2-.52.07-.85.06-.39-.06-.92-.07-.45V77.82l-.19-.46.13-.39-.07-.46.07-.91-.2-.79.13-.72.13-1-.13-.85-.13-.59-.13-1.17V70l.26-1.63-.06-1.12-.07-1.17.07-1.18-.13-1.18h-.33l-.39.66-.13.46-.26.39-.33,1.17-.46,1.12-.39.85-1.57,3.79-.26.45-1.18,2.62-.06.46-.4.78-.06.39-.2.72-.39.85-.39.79-.13.39-.2.78-.19.46-.27.39-.19.92-.2.46-.26.65-.19.59-.14.72-.45.72-.2.39-.13.32-.92.33H156l-.59-.19-.32.13-1.51-.07-.78.2-.65-.26-.4.06h-.65l-.46.07H150l-.46-.07-.39-.59.06-.52-.13-.46.07-.65v-.59l-.07-.46.07-.78-.07-.39.07-.46-.07-.59.07-.46.06-.72v-.65l.07-.39.06-.92-.06-.45.06-.46-.06-.92V74.48l.06-.39.07-.91v-3.6l.07-.91v-.53l.13-1.17-.13-.85.06-.59.13-.85v-.46l.13-.52-.06-.46V62.13l.06-.46.07-.78-.07-.46.07-.85-.07-.39.07-.92-.07-.52.13-.46-.06-1-.07-.46.07-1.89.06-.92-.06-.85L150,51l.06-.46.07-.65v-.78l.06-1-.06-1.38v-.45l.13-1.31v-.39l.06-.46-.06-.79v-.45l.06-.4v-.58l.14-.92.78-.2h1.7l.72-.06.65.06h.33l.52-.06h1.31l.85.13.72-.07h.46l.72.4.13,1.11v.59l.06.45-.26,2v.39l.07.46-.07,2.42L159,49l-.07,1.5v1.18l-.06.46-.2.91v.85l.13.92-.06.46-.07.39-.06.91-.07.46v.39l-.13.46v.39l-.06.46.06.39-.06,1.44-.13.92.06.45-.06.53v.91l-.14.85.07.66h.26l.39-.72.2-.4.39-.85.13-.45.39-.85.2-.79.46-.85.06-.39.92-1.57.13-.78.46-1.18.13-.46.59-1.17.26-.79.19-.33.33-.78.2-.39.19-.72.39-.92.66-1.63.13-.46.46-1.31.39-.84.13-.53.39-1.17.2-.4.46-.85.65-.32H170l.79.06.65-.06h.52l.46.06h.46l.32.46.07,1.63v2l.06,1-.06,1.37v.4l.06.91-.06.39.06,2.42v.46l-.13.85.07.72V57l.06.52-.13.39.07.52-.07.46-.06.53.13,1.3-.07,2.36.13.91v1.11h.33l.2-.72.33-.78.26-.85.52-1.83.06-.46.14-.39.58-1.51.2-.78.2-.39.13-.46.13-.39.19-.46.2-.39.26-.85.13-.52.26-.79.07-.46.13-.39.13-.46.46-.78.06-.46.2-.78.33-1.7.45-.85.26-.85.2-.72.33-.72.33-.91.19-.4.13-.45.2-.46.06-.46.13-.39.4-.85.19-.33.79-.33h.45l.46-.13,2,.07h1.31l1.37-.07.91.07.46-.07.46.07h.65l.39.39-.13,1.11-.13.4-.26.71-.19.4-.66,1.56-.26.79-.2.92-.26.84-.19.46-.07.39-.52.85L188,50l-.46,1.24-.13.46-.33.79-.06.45-.53,1.18-.13.59-.13.33-.39.84-.13.4-.33,1-.26.39-.33.85-.19.46-.13.46-.2.92-.13.39-.26.46-.26.71-.46.79-.33.91-.19.72-.46.59-.13.39-.07.4-.39,1.56-.33.85-.19.4-.26.78-.53,1.05-.19.91-.53.92-.19.91-.26.46L179,74l-.52,1.37-.13.39-.33.92-.13.39-.26.46-.13.85-.13.45-.39.79-.27.85-.19.52-.33.92-.06.39-.2.85L175,84.75l-.45,1.63-1,.2Z"/>
            <path class="cls-3" d="M188.27,86.45l-.32-.79.13-.52v-1l.13-1,.26-.92.06-.45.2-.92.13-.33.2-.91.13-.59.19-1.05v-.45l.13-.53v-.85l.27-.45.06-.79.07-.46.19-.78.07-.39-.07-.46.13-.85.27-1.05.13-.78.13-.59.19-.72.13-.78.07-.46.13-.39.06-.85.07-.39v-.4l.33-.78.06-.39.07-.46.06-.92.07-.65.33-.78.13-.53.13-.65v-.91l.06-.53.2-.52v-.52l.19-.46V56.9l.13-.46.14-.85.19-.72.2-.58V53.5l.06-.46.13-.39.33-1.83v-.46l.26-.58.13-.59.07-.85.06-.46.07-.39.06-.46.13-.39.07-.46.13-.85.13-.78.2-.85v-.53l.19-.85.13-.39.2-.33.39-.71.66-.14.91-.06,1.11.06h.59l.85-.06,1.24.06.79-.06,1,.06h.91l.72.2.39.59.07.46.26.65.13.78.07.72.26.92.26,1.57.2,1L207,48.8l.2.91.26,1.31.13.52.07.46.13,1,.19.85v.39l.2.72v.46l.07.72.19,1,.13,1.11.2,1.11.06,1,.13.91.13.52.2,1.77.26,1.5.13,1.44V67l.13.46.13.78.2,1.76.2,1.44h.19l.07-1.31.13-1.56v-.92l.2-3.14.19-1.37V60.89l.2-.92.06-.39.07-.46.06-.52.07-.92.13-.39.13-.91V56l.26-.85v-.79l.07-.78v-.46l.39-.79-.07-.45.2-1.18V50.3l.2-.85L213,49l.13-.39.13-.92.07-.52.19-.91.14-.46.19-.53v-.58l.07-.4.19-1,.26-1.37.53-.92.26-.2,1.24-.26,1.37.13.46-.06h.65l1.51.06H221l.92-.06.91.19.39.2.07.52V42l-.2.91.07.52-.2,1.44-.13.92-.39,1.57-.2.72-.19,1.17-.13.53-.2,1.37-.26,1-.13,1.05-.2.59-.13.52-.13.46v.85l-.13.46-.26,2-.2.59-.06.72-.07.45-.13.53-.19.85-.14.45-.19.85-.13.92-.13.52.06.59-.13.39-.06.46-.13.39-.07.46-.07.39v.85l-.19.39-.2.92-.13.59-.06.58-.07.4-.06.45-.07.4v.39l-.26.91-.13.92-.13.65-.26.59-.27.79-.06.71-.07.85-.13.85-.19.53-.26.91v1.05l-.33.85v.39l-.13.46-.2.85L215.33,85l-.58.78-.66.46-.91.07-.72.13h-.26L211,86.38l-.46.07-.66-.07-.39.07h-1.31l-.85-.07h-1.11l-.52-.46-.52-1-.33-.92-.06-.32-.07-.79-.07-.39-.13-1.37-.06-.4-.26-1.37-.07-.39L204,78l-.06-1-.2-.72-.2-1v-.39l-.19-.91-.07-.39-.19-.92-.07-.39v-1L202.72,70l-.13-1.24L202.33,67,202,64.88l-.2-1.83-.39-2.36L201,58.21h-.2L200.76,60l-.07,1.31-.06.71-.13,1.12-.07,1.63L200,68l-.26,2.55-.13.39-.2.85.14.46-.2.78-.13.46.06.46-.06.39-.13.91-.26,1-.26,1.31-.14.92-.06.39-.13.46L198,81.15l-.2.85-.06.46v.85l-.14.39-.19,1.18-.26.78-.2.66-.72.26h-6.93Z"/>
            <path class="cls-3" d="M223.5,86.19l-.26-.4-.06-.45-.07-.4.07-.39.26-.65.19-.66.07-.45.06-.4.27-.85v-1l.26-.85v-.45l.06-.4.13-.85.13-.58v-.79l.33-.91.13-.4.2-.45-.07-.4.2-.84.19-.46v-.39l.07-.4.13-.91.13-.39v-.92l.07-.39.06-.46v-.39l.26-.92v-.45l.33-.92.26-2,.26-.92v-.32l.4-1.83.13-.85.13-.79.32-.85.07-.52v-.92l.33-.84v-.46l.13-.79.19-1.37-.06-.52.19-.52.26-.92.14-.52-.14-.46.14-.52.06-.85.13-.72.26-.39v-.46l.07-.46v-.39l.26-.46.07-1.05.19-1,.26-.79.07-.78v-.46l.13-.39.33-1.31.19-.39,1.05-.13H234l2.42.06H239l1.3.07.2.78-.07.46v.46L240,44.09v.46l-.13.39-.2,1.37-.13.72-.13.65L238.93,50l-.2.92v.52l-.26.91-.13.92-.26.46.13.52-.13.52-.07.46-.13.46-.19.91-.2.85-.26.46.07.52-.14.46v.53L237,60.76l-.13.46v.91l-.13.46-.2,1-.06.46-.27,1-.06,1-.2.92-.06.52-.07.46-.26,1v.46l-.13.52-.07.92-.26.85-.06.85-.13.59v.65l-.07.46-.06.39-.13.46-.07.72-.13.65v.66l.33.32h.65l.59.07h3.4l1.44-.07h1.7l.39.2-.07,1-.13.46.07.45-.2.53-.33,2.28-.19.46v.46l-.07.39-.13,1-.26,1-.52.46h-1.25l-.84.13-1.44.19-1.18-.06-1,.06-.92-.13-1.3.07h-5.36l-.66.06h-1.83l-.46-.06-.84.06Z"/>
            <path class="cls-3" d="M257.56,87.3l-.85.06-.46-.06-.59-.07-1.5-.46-.52-.06-1-.26-.46-.26-.92-.59-1.17-1-.92-1.05-.19-.33-.33-.32-.2-.39-.32-.46-.53-.85v-.39l-.19-.46-.07-.39-.13-.33-.13-.39L247,78.8l-.14-.39-.06-.92-.07-.39-.19-1.31.13-.46V74.09l.19-.65-.06-.52v-.46L247,71l.26-.92v-.52l.13-.91v-.46l.26-.92-.13-.32.13-.85.13-.46.2-1.18.2-.78v-.85l.19-.79v-.45l.2-.39.13-.46v-.39l.13-.46-.07-.39.4-.66.13-.46v-.91l.13-.79.19-.45.07-.4.13-.91L250,53.3l.33-.45.13-.85.39-.85.2-.46.26-.78.33-.92.39-.78.26-.46.59-.85.06-.46.27-.39.52-.85.52-.78.46-.33.33-.39.91-1,.85-.59.52-.2.46-.33.78-.45.79-.4,1-.26.39-.06,1-.26.66-.07,1.17-.2.92-.06.78-.07,1.18.07.39.06.72.07,1.05.13.52.2.52.06.39.13,1,.46,1.17.79.52.32.33.39.72.59.72.66.33.39.19.46.39.85.2.39.13.39.13.46.2,1,.13,1.24.06.52v.46l-.06.85-.07.39.07.85v.46l-.07.85-.13.46-.06.39.06.46v.65l-.06.39-.13.92-.07,1-.06,1-.13.46-.14,1,.07.65-.33.72.07.79-.26.85-.13.84-.2.86-.07.78-.19.85-.2.39L274,68v.59l-.13.45-.13.92-.2.39-.65,2.29.06.39-.33.79-.19.39-.07.72-.32.72-.2.78v.46l-.2.72-.32.45-.07.66-.46.91-.52,1.18-.33.46-.58.85-.27.39-.32.39-.13.39-.79.79-.39.33-.33.39-.78.59-.79.52-.26.19-1.5.59-.46.07-.52.13-.92.2-.45.06-.72.2-1.44.19Zm2-8.7.91-.26.59-.26.91-.65.46-.92.39-.91.13-.46v-.52l.2-1,.13-.46.13-.92.2-.52.06-.92.2-.45.2-.85.06-.53.2-.39v-.52l-.07-.2.2-.59.19-1,.14-1.5.19-.59.2-.52.13-1.24.19-.4L265.47,61l.26-1,.13-.78.13-.52.13-.46-.06-.46.06-.85.13-.52.2-.92.13-.59V54l.13-1.17.07-.85.13-.92-.26-1.3-.27-.4-.45-.58-1.05-.46-1.24.06-.52.13-1.05.4-.65.58-.46.72-.26.79-.26.45-.4.85-.13.46-.13.52-.39,1.38v.13l-.07.52-.19.92-.07.39-.26.91-.2.92-.19,1.05-.07.45-.13.46-.13,1-.19.52-.27,1-.13.46-.13.91v.46l-.06.46.06.52-.19.46-.33.91.07.53-.14.45.07.27-.13.58v.53l-.13.45v.53l-.2,1v.46l-.19.45.19.46-.06.79-.26.65.19.46v1.83l.2.45.13.27.39.58.33.33.52.2.52.13.4.06Z"/>
            <path class="cls-3" d="M279.13,86.51l-.46-.06-4.77-.07-.59-.13-.13-.52.13-.46.06-.39.4-.79.52-.85.65-2,.4-.78.32-.79.72-1.56.26-.85.53-1.18.13-.39.32-.46.33-.79.13-.39.07-.45.19-.4.33-.85.2-.45.45-.92.14-.46.12-.59.33-.52.39-.78.14-.46.39-.92.06-.39.2-.46.2-.39.32-.91.2-.39.52-1.84.2-.52.45-.85.33-1.11.39-.72.2-.39.2-.85.32-.46.2-.85.13-.32.39-.85.2-.92.32-.46.27-.39.52-1.37.33-.85.19-.39.39-.59.2-.66.2-.45.58-1.18.14-.46.19-.39.13-.39.13-.46.4-.72.26-.39.13-.33.39-1.17.46-.85.59-1.18.19-.46.2-.39.26-.72.46-.07h.65l1.24.07.66-.07h1l1.24-.06h.59l.46.13.59-.07h1l.33.14.46.32.19,2.81v1.44l.14.39V47l.06,2.35v.92l.07.85.13,1.31v.91l.06,1-.06.46v1.44l.13.91v1.31l.06.92-.06.39.06.85V61l.07,1,.13.72v2.55l.06.79.07.52v2l.07,3v.46l.06,1-.06,1,.06.91-.06.46.13,2.48v.4l.06.85.07.45v1l-.07.92L302,82v.59l.06,1.44V85.4c.07.26.13.85-.19,1a2.89,2.89,0,0,1-.72,0l-.46.06-.52-.06h-.92l-1.44.06h-.52l-.78-.06-.46.06-.66.07-.85-.07h-1l-.26-.19-.13-.66-.06-1.17-.07-.66.07-.65V80.11l-.07-.53-1.44-.06-1-.13-2.88-.07h-1.76l-.33.72-.46.85-.13.46-.2.46-.26.78-.65,1.24-.39,1-.2.72-.19.33-.27.46-.39.26-1.83-.07-.52.07Zm13.73-15.69.39-.32.06-.92-.06-.52.06-.52v-1.7l.07-.46V65.27l.13-.52-.07-1.57.07-2.49.06-2.35-.06-1.5L293,57l-.27.85-.32,1-.2.65-.33,1.05-.26.52-.26.65-.06.46-.27.46-.19.59-.2.45-.19.59-.4,1.44-.06.46-.33,1-.26.46-.33,1.11-.13.46-.13.58-.19.46.45.39h.53l.72.07.58.06Z"/>
            <path class="cls-3" d="M316.32,86.51l-.85-.06-.85.06-1-.13-.78.07-.53-.07h-.58l-.92-.13-.39-.06h-.53l-.45.06h-2l-.92-.13-.52-.13v-1.5l.06-.59.33-.79.13-.91.07-.39.19-.92.13-.65.13-.53v-.52l.14-.91.06-.53.13-.72.26-.52.13-.65v-.53l.2-.91.13-.52.07-.85.06-.4.26-.45V70.76l.2-.92.06-.52.2-.91.07-.46.13-.85.13-.46.19-.78.07-.4.26-.78V63.37l.13-.46.13-.39.2-.91.13-.39.32-1.83.2-.46.13-.46.07-.46v-.39l.06-.46.13-.78.07-.46.2-.78v-.4l.13-.78.26-.78v-.92l.06-.52.13-1.38.13-.78.33-1.18.13-.45v-.4l.07-.46.19-.84.13-.92.13-.78.2-.4.07-.45.06-.79.13-.46.2-.65.13-.2.19-.71.66-.2h.46l.78.06.46.07,1-.13h.53l1.44.06,1.3-.06h1.64l.72.06.39-.06h1l.53.06.59.07,1,.13h.45l.53.2.91.26h.13l.39.13,1.12.33.32.19.26.13.66.4.46.32.39.33,1,1.31.52.78.26.33.33.59.26.91.39,1,.26.46.2,1.11v.46l.33.91-.07.46.13,1.31.07.85-.2.39.2.92.06.39-.06.45.13.46-.07.46v.39L336,58.21v.46l-.13,1.11-.07.45v1.83l-.33,1v.46l-.26,1.24-.13,1-.13,1.5-.13.53-.2.52-.06.65-.39,1.38-.07.85L334,72l-.2.46-.45.85-.13.39-.07.72-.39.85-.07.39-.26.92-.46.91-.45,1.31-.33.65-.52.53-.07.39-.32.46-.33.39-.46.78-.91,1.11-.92.72-.59.53-.39.26-.85.39-.72.2-.65.45-.92.26-.65.13-1.05.14-.72.26h-2l-.46.06h-.33l-.45.07Zm3.2-8.82.66-.2.52-.26.72-.39.33-.26.52-.53.46-.52.19-.39.27-.46.26-.65.32-.66.33-.85.39-1.24.2-.72.19-.91.27-.85.06-.39.13-.33.13-.39.2-.79.06-.46.14-.85.13-.91.13-1,.06-.46.13-.52.33-.92v-.91l.2-1.37.06-.4.13-1.37L327,56.38l.06-1.9-.13-1.76-.06-.53-.4-1.11-.45-.85-.4-.32-.32-.27-1.11-.32-1.05-.13-.85-.07-.59.07-.19.52-.2.46v.39l-.13.46-.2,1-.26.91-.13.85-.13.92-.13,1.44-.07.39-.13.46v.45l-.06.53-.2.39v.39l-.19.92-.14,1v.46l-.19.91-.13.4-.2.91v.39l-.19.92-.14.46.07.39-.13.46-.26,1.7v.85l-.07.39-.32.91v.4l-.2,1-.26,1.17-.07.46-.26.92-.13,1-.06,1-.2,1.11-.13.59.91.26Z"/>
          </g>
        </g>
      </g>
    </g>
  </g>
</svg>
