<svg xmlns="http://www.w3.org/2000/svg" viewBox="0 0 79.39 79.39">
  <defs>
    <style>
      .cls-1 {
        fill: #db7cb2;
      }
    </style>
  </defs>
  <title>facebook</title>
  <g id="Livello_2" data-name="Livello 2">
    <g id="footer_2" data-name="footer 2">
      <g>
        <path class="cls-1" d="M39.7,0A39.71,39.71,0,1,1,11.63,11.63,39.52,39.52,0,0,1,39.7,0ZM65.59,13.83A36.65,36.65,0,1,0,76.29,39.7a36.56,36.56,0,0,0-10.7-25.87Z"/>
        <path class="cls-1" d="M42.73,31.58V28.33a1.7,1.7,0,0,1,1.78-1.93h4.55V19.45H42.79c-7,0-8.52,5.14-8.52,8.49v3.64H30.22V39.7h4.09V60h8.11V39.7h6l.27-3.19.48-4.93Z"/>
      </g>
    </g>
  </g>
</svg>
