<svg xmlns="http://www.w3.org/2000/svg" viewBox="0 0 79.39 79.39">
  <defs>
    <style>
      .cls-1 {
        fill: #db7cb2;
      }
    </style>
  </defs>
  <title>instagram</title>
  <g id="Livello_2" data-name="Livello 2">
    <g id="footer_2" data-name="footer 2">
      <g>
        <path class="cls-1" d="M39.7,0A39.69,39.69,0,0,1,67.76,67.76,39.69,39.69,0,1,1,39.7,0ZM65.59,13.83A36.65,36.65,0,1,0,76.29,39.7a36.56,36.56,0,0,0-10.7-25.87Z"/>
        <path class="cls-1" d="M29.54,39.7A10.17,10.17,0,1,1,39.7,49.87,10.18,10.18,0,0,1,29.54,39.7ZM50.2,19.8h-21a9.44,9.44,0,0,0-9.41,9.41v21a9.45,9.45,0,0,0,9.41,9.41h21a9.43,9.43,0,0,0,9.41-9.41v-21A9.42,9.42,0,0,0,50.2,19.8Zm-21,2.36h21a7.06,7.06,0,0,1,7.06,7.05v21a7.07,7.07,0,0,1-7.06,7.06h-21a7.06,7.06,0,0,1-7-7.06v-21a7.05,7.05,0,0,1,7.05-7Zm23.08,3a2.07,2.07,0,1,0,2.07,2.07,2.07,2.07,0,0,0-2.07-2.07Zm.24,14.58A12.84,12.84,0,1,0,39.7,52.53,12.83,12.83,0,0,0,52.53,39.7Z"/>
      </g>
    </g>
  </g>
</svg>
