<svg xmlns="http://www.w3.org/2000/svg" viewBox="0 0 356.4 347.67"><defs><style>.cls-1{fill:#ca151f;}</style></defs><title>logo</title><g id="Livello_2" data-name="Livello 2"><g id="Livello_1-2" data-name="Livello 1"><rect class="cls-1" x="48.69" width="45.28" height="45.28"/><rect class="cls-1" x="97.38" width="45.28" height="45.28"/><rect class="cls-1" x="194.75" width="45.28" height="45.28"/><rect class="cls-1" x="243.43" width="45.28" height="45.28"/><rect class="cls-1" x="48.69" y="48.69" width="45.28" height="45.28"/><rect class="cls-1" y="48.69" width="45.28" height="45.28"/><rect class="cls-1" x="97.38" y="48.69" width="45.28" height="45.28"/><rect class="cls-1" x="146.06" y="48.69" width="45.28" height="45.28"/><rect class="cls-1" x="194.75" y="48.69" width="45.28" height="45.28"/><rect class="cls-1" x="243.43" y="48.69" width="45.28" height="45.28"/><rect class="cls-1" x="292.12" y="48.69" width="45.28" height="45.28"/><rect class="cls-1" x="48.69" y="97.37" width="45.28" height="45.28"/><rect class="cls-1" y="97.37" width="45.28" height="45.28"/><rect class="cls-1" x="97.38" y="97.37" width="45.28" height="45.28"/><rect class="cls-1" x="146.06" y="97.37" width="45.28" height="45.28"/><rect class="cls-1" x="194.75" y="97.37" width="45.28" height="45.28"/><rect class="cls-1" x="243.43" y="97.37" width="45.28" height="45.28"/><rect class="cls-1" x="48.69" y="146.06" width="45.28" height="45.28"/><rect class="cls-1" x="97.38" y="146.06" width="45.28" height="45.28"/><rect class="cls-1" x="146.06" y="146.06" width="45.28" height="45.28"/><rect class="cls-1" x="194.75" y="146.06" width="45.28" height="45.28"/><rect class="cls-1" x="97.38" y="194.74" width="45.28" height="45.28"/><rect class="cls-1" x="146.06" y="194.74" width="45.28" height="45.28"/><rect class="cls-1" x="146.06" y="243.43" width="45.28" height="45.27"/><rect class="cls-1" x="194.75" y="194.74" width="45.28" height="45.28"/><rect class="cls-1" x="243.43" y="146.06" width="45.28" height="45.28"/><rect class="cls-1" x="292.12" y="97.37" width="45.28" height="45.28"/><path class="cls-1" d="M8.86,338.42,7.8,346.8H2.47l1.07-8.38H0v-5.61H4.26l.68-5.62H1.4v-5.62H5.67l1.06-8.38h5.33L11,321.57H15.3l1.07-8.38H21.7l-1.07,8.38h3.59v5.62H20l-.72,5.62h3.58v5.61H18.55l-1.07,8.38H12.16l1.06-8.38Zm5-5.61.73-5.62H10.27l-.68,5.62Z"/><path class="cls-1" d="M40.05,318.71a2,2,0,0,0-1.89-1.06,2.34,2.34,0,0,0-1.62.53,3.54,3.54,0,0,0-.92,1.89,20.22,20.22,0,0,0-.41,3.65c-.07,1.54-.1,3.47-.1,5.79s0,4.26.1,5.79a20.46,20.46,0,0,0,.41,3.66,3.62,3.62,0,0,0,.92,1.89,2.39,2.39,0,0,0,1.62.53,2.2,2.2,0,0,0,1.36-.41,2.7,2.7,0,0,0,.82-1.38,12.21,12.21,0,0,0,.41-2.6c.09-1.08.13-2.44.13-4.09h8.71v2.57a15.57,15.57,0,0,1-1,6,9.21,9.21,0,0,1-2.56,3.65,8.48,8.48,0,0,1-3.66,1.79,19.13,19.13,0,0,1-4.24.46,17.59,17.59,0,0,1-6.2-.92,7.42,7.42,0,0,1-3.77-3.07,14.31,14.31,0,0,1-1.87-5.57,57,57,0,0,1-.51-8.26,48.68,48.68,0,0,1,.61-8.38,14.13,14.13,0,0,1,2.06-5.57,8.21,8.21,0,0,1,3.82-3.07,16,16,0,0,1,5.86-.95,15.21,15.21,0,0,1,5.19.78,8.28,8.28,0,0,1,5.4,5.64,15.83,15.83,0,0,1,.6,4.53v2.18H40.63v-1.94A9.36,9.36,0,0,0,40.05,318.71Z"/><path class="cls-1" d="M61.41,337.31c0,1.71.24,2.85.74,3.43a2.52,2.52,0,0,0,2,.86,2.56,2.56,0,0,0,2-.86,5.61,5.61,0,0,0,.74-3.43V311.88h9.18V335a20.8,20.8,0,0,1-.79,6.17,9.5,9.5,0,0,1-2.3,3.95,7.86,7.86,0,0,1-3.72,2,24.59,24.59,0,0,1-10.25,0,7.87,7.87,0,0,1-3.75-2,9.61,9.61,0,0,1-2.3-3.95,20.8,20.8,0,0,1-.79-6.17V311.88h9.19Z"/><path class="cls-1" d="M79.38,321.25a14.58,14.58,0,0,1,2.08-5.56,8.41,8.41,0,0,1,3.83-3.15,17.38,17.38,0,0,1,11.62,0,8.47,8.47,0,0,1,3.83,3.15,14.58,14.58,0,0,1,2.08,5.56,54.46,54.46,0,0,1,0,16.52,14.64,14.64,0,0,1-2.08,5.57,8,8,0,0,1-3.83,3.07,18.81,18.81,0,0,1-11.62,0,8,8,0,0,1-3.83-3.07,14.64,14.64,0,0,1-2.08-5.57,54.46,54.46,0,0,1,0-16.52Zm8.76,14.05a21.29,21.29,0,0,0,.42,3.66,3.55,3.55,0,0,0,.92,1.89,2.74,2.74,0,0,0,3.24,0,3.62,3.62,0,0,0,.92-1.89,20.46,20.46,0,0,0,.41-3.66c.07-1.53.1-3.46.1-5.79s0-4.25-.1-5.79a20.22,20.22,0,0,0-.41-3.65,3.54,3.54,0,0,0-.92-1.89,2.74,2.74,0,0,0-3.24,0,3.47,3.47,0,0,0-.92,1.89,21,21,0,0,0-.42,3.65q-.09,2.31-.09,5.79T88.14,335.3Z"/><path class="cls-1" d="M120.85,311.62a12.91,12.91,0,0,1,4.53.7,7.45,7.45,0,0,1,4.77,5,13.24,13.24,0,0,1,.52,3.81,10.41,10.41,0,0,1-1.45,5.82,6.44,6.44,0,0,1-4.66,2.7v.1c2.24.2,3.77,1,4.61,2.36a10.92,10.92,0,0,1,1.25,5.66v4.51c0,.51,0,1,.05,1.43a10.35,10.35,0,0,0,.15,1.23,3.37,3.37,0,0,0,.25.85l.4.58a2.09,2.09,0,0,0,.66.53v.5H122a6.48,6.48,0,0,1-.53-1.66c-.11-.63-.2-1.27-.25-1.9s-.08-1.25-.1-1.83,0-1.06,0-1.43v-2.41a17.34,17.34,0,0,0-.15-2.5,4,4,0,0,0-.53-1.58,2,2,0,0,0-1-.8,4,4,0,0,0-1.43-.23h-2.46v14.34h-9.32V311.62Zm-3.41,15.13a3.61,3.61,0,0,0,3-1.17,4.81,4.81,0,0,0,.95-3.09,4.48,4.48,0,0,0-.93-3.2,4.08,4.08,0,0,0-3-1h-1.81v8.42Z"/><path class="cls-1" d="M155.33,311.62v7.62H143.45v6.11h11.13v7.32H143.45v7.12h12.33v7.62H134.13V311.62Z"/><path class="cls-1" d="M160.65,347.48V311.69h8.6q7,0,11.27,4.31a15.21,15.21,0,0,1,4.26,11.15V332a15.13,15.13,0,0,1-4.26,11.15q-4.26,4.29-11.27,4.29Zm4.85-32v28.2h3.75a9.87,9.87,0,0,0,7.83-3.27,12.27,12.27,0,0,0,2.86-8.39V327.1a12.18,12.18,0,0,0-2.86-8.33,9.87,9.87,0,0,0-7.83-3.27Z"/><path class="cls-1" d="M191.4,347.48h-4.87V311.69h4.87Z"/><path class="cls-1" d="M207.61,311.62l6,22.05h.1V311.62h8.72v35.79H212.22L206,325.3h-.1v22.11h-8.72V311.62Z"/><path class="cls-1" d="M243.48,311.62l8.72,35.79h-9.92l-1-6.27h-7.41l-1,6.27h-9.77l8.57-35.79Zm-5.91,7.32L235,334.12h5.21l-2.55-15.18Z"/><path class="cls-1" d="M266.45,311.62a11.43,11.43,0,0,1,4.61.85,8.86,8.86,0,0,1,3.23,2.33,9.31,9.31,0,0,1,1.88,3.48,15.16,15.16,0,0,1,.61,4.36c0,3.71-1,6.5-3,8.35s-4.9,2.78-8.74,2.78h-3.26v13.64h-9.33V311.62Zm-2.91,15.44a3.39,3.39,0,0,0,2.68-1.06,4.9,4.9,0,0,0,.93-3.31c0-2.9-1.2-4.36-3.61-4.36h-1.75v8.73Z"/><path class="cls-1" d="M278.83,321.25a14.58,14.58,0,0,1,2.09-5.56,8.39,8.39,0,0,1,3.82-3.15,17.41,17.41,0,0,1,11.63,0,8.44,8.44,0,0,1,3.82,3.15,14.58,14.58,0,0,1,2.08,5.56,54.46,54.46,0,0,1,0,16.52,14.64,14.64,0,0,1-2.08,5.57,8,8,0,0,1-3.82,3.07,18.84,18.84,0,0,1-11.63,0,7.93,7.93,0,0,1-3.82-3.07,14.64,14.64,0,0,1-2.09-5.57,54.46,54.46,0,0,1,0-16.52Zm8.77,14.05A20.46,20.46,0,0,0,288,339a3.62,3.62,0,0,0,.92,1.89,2.39,2.39,0,0,0,1.62.53,2.42,2.42,0,0,0,1.63-.53,3.62,3.62,0,0,0,.92-1.89,21.44,21.44,0,0,0,.41-3.66q.09-2.3.09-5.79t-.09-5.79a21.18,21.18,0,0,0-.41-3.65,3.54,3.54,0,0,0-.92-1.89,2.37,2.37,0,0,0-1.63-.53,2.34,2.34,0,0,0-1.62.53,3.54,3.54,0,0,0-.92,1.89,20.22,20.22,0,0,0-.41,3.65c-.07,1.54-.1,3.47-.1,5.79S287.53,333.77,287.6,335.3Z"/><path class="cls-1" d="M315.12,311.62v28.17H326.6v7.62H305.8V311.62Z"/><path class="cls-1" d="M337.4,311.62v35.79h-9.32V311.62Z"/><path class="cls-1" d="M349.23,311.72a7.08,7.08,0,0,1,6.64,4.4,7.24,7.24,0,0,1,.53,2.75,7.35,7.35,0,0,1-.52,2.75,6.55,6.55,0,0,1-1.53,2.27,7.19,7.19,0,0,1-2.37,1.58,7.07,7.07,0,0,1-2.75.55,7,7,0,0,1-2.71-.54,7.11,7.11,0,0,1-4.42-6.61,7.08,7.08,0,0,1,2.12-5.07A6.73,6.73,0,0,1,349.23,311.72Zm0,1.29a5.53,5.53,0,0,0-4.12,1.71,6,6,0,0,0-1.3,1.92,5.73,5.73,0,0,0,0,4.45,5.8,5.8,0,0,0,1.3,1.9,5.71,5.71,0,0,0,1.9,1.27,5.61,5.61,0,0,0,2.22.45,5.73,5.73,0,0,0,2.23-.45,6.1,6.1,0,0,0,1.94-1.29,5.49,5.49,0,0,0,1.68-4.1,5.82,5.82,0,0,0-1.7-4.14A5.65,5.65,0,0,0,349.26,313Zm-.09,4.67-1,.5a1.07,1.07,0,0,0-.37-.45.9.9,0,0,0-.42-.12q-1,0-1,1.26a1.52,1.52,0,0,0,.25.92.81.81,0,0,0,.71.34.89.89,0,0,0,.88-.61l.88.45a2,2,0,0,1-.78.82,2.25,2.25,0,0,1-2.64-.29,2.52,2.52,0,0,1,0-3.25,2.23,2.23,0,0,1,3.4.43Zm4.12,0-.94.5a1,1,0,0,0-.38-.45.9.9,0,0,0-.42-.12q-1,0-1,1.26a1.59,1.59,0,0,0,.24.92.82.82,0,0,0,.72.34.9.9,0,0,0,.88-.61l.89.45a2.22,2.22,0,0,1-.79.82,2.25,2.25,0,0,1-2.64-.29,2.2,2.2,0,0,1-.58-1.63,2.22,2.22,0,0,1,.59-1.62,2,2,0,0,1,1.5-.6A2,2,0,0,1,353.29,317.68Z"/></g></g></svg>