<svg xmlns="http://www.w3.org/2000/svg" viewBox="0 0 28.66 8.29"><defs><style>.cls-1{fill:#c10230;}.cls-2{fill:#ff5100;}.cls-3{fill:#ff9015;}.cls-4{fill:#6d6d6c;}</style></defs><title>mediaintegrati</title><g id="Livello_2" data-name="Livello 2"><g id="Livello_1-2" data-name="Livello 1"><path class="cls-1" d="M1.18,0A1.17,1.17,0,0,0,0,1.15v6A1.17,1.17,0,0,0,1.18,8.29,1.16,1.16,0,0,0,2.35,7.14v-6A1.16,1.16,0,0,0,1.18,0Z"/><path class="cls-2" d="M4,0A1.16,1.16,0,0,0,2.86,1.15v6a1.18,1.18,0,0,0,2.35,0v-6A1.17,1.17,0,0,0,4,0Z"/><path class="cls-3" d="M6.82,0A1.17,1.17,0,0,0,5.64,1.15v6A1.18,1.18,0,0,0,8,7.14v-6A1.17,1.17,0,0,0,6.82,0Z"/><path class="cls-4" d="M13.14,4.37H11.73V4.11h1.08a.39.39,0,0,0-.17-.25.53.53,0,0,0-.3-.11A.49.49,0,0,0,12,3.9a.45.45,0,0,0-.14.35.51.51,0,0,0,.14.36.52.52,0,0,0,.36.14.59.59,0,0,0,.22-.08l.14-.08.24.2a.64.64,0,0,1-.27.18.72.72,0,0,1-.33.07.79.79,0,0,1-.57-.19.73.73,0,0,1-.25-.58.74.74,0,0,1,.24-.57.78.78,0,0,1,.57-.24.74.74,0,0,1,.57.24.82.82,0,0,1,.25.57S13.14,4.34,13.14,4.37Z"/><path class="cls-4" d="M15.56,3.27h-.32V2.94h.32Zm0,1.73h-.32V3.45h.32Z"/><path class="cls-4" d="M18.06,3.26h-.32V2.93h.32Zm0,1.73h-.32V3.44h.32Z"/><path class="cls-4" d="M20.91,3.7h-.43V5h-.32V3.7h-.22V3.43h.21V2.92h.32v.52h.43Z"/><path class="cls-4" d="M22.45,4.33H21V4.07h1.09A.51.51,0,0,0,22,3.81a.54.54,0,0,0-.3-.1.49.49,0,0,0-.36.15.48.48,0,0,0-.14.35.49.49,0,0,0,.15.36.45.45,0,0,0,.35.13.56.56,0,0,0,.23-.07L22,4.55l.23.19a.7.7,0,0,1-.26.19.8.8,0,0,1-.34.07.83.83,0,0,1-.57-.2.7.7,0,0,1-.25-.57.78.78,0,0,1,.24-.57.79.79,0,0,1,.57-.25.81.81,0,0,1,.58.25.79.79,0,0,1,.24.56A.41.41,0,0,1,22.45,4.33Z"/><path class="cls-4" d="M25.39,3.38l0,.31a.57.57,0,0,0-.36.19.74.74,0,0,0-.13.48V5h-.32V3.41h.32v.24a.91.91,0,0,1,.24-.2A.77.77,0,0,1,25.39,3.38Z"/><path class="cls-4" d="M28.15,3.67h-.43V5H27.4V3.67h-.22V3.4h.21V2.88h.32V3.4h.43Z"/><path class="cls-4" d="M28.65,3.21h-.32V2.88h.32Zm0,1.73h-.33V3.4h.32Z"/><path class="cls-4" d="M27.06,3.4h-.32v.27a.55.55,0,0,0-.1-.11.67.67,0,0,0-.44-.17.76.76,0,0,0-.54.25.75.75,0,0,0-.24.54.77.77,0,0,0,.24.56.79.79,0,0,0,.56.24.65.65,0,0,0,.43-.17.45.45,0,0,0,.09-.1v.11h0V5h.33Zm-.49,1.14a.49.49,0,0,1-.35.15.43.43,0,0,1-.33-.15.52.52,0,0,1-.14-.36.47.47,0,0,1,.14-.35.46.46,0,0,1,.34-.15.49.49,0,0,1,.35.15.44.44,0,0,1,.16.34A.45.45,0,0,1,26.57,4.54Z"/><path class="cls-4" d="M17.45,4.61V3.45h-.31v.27L17,3.6a.71.71,0,0,0-.45-.16.75.75,0,0,0-.54.24.75.75,0,0,0-.24.55.76.76,0,0,0,.25.55A.74.74,0,0,0,16.6,5,.64.64,0,0,0,17,4.85l.09-.09V5h.33V4.61Zm-.49,0a.54.54,0,0,1-.35.14.46.46,0,0,1-.34-.15.52.52,0,0,1-.14-.36.49.49,0,0,1,.15-.35.44.44,0,0,1,.33-.15.53.53,0,0,1,.36.15.48.48,0,0,1,.15.34A.46.46,0,0,1,17,4.59Z"/><path class="cls-4" d="M14.94,2.94h-.32v.79a.7.7,0,0,0-.54-.29.76.76,0,0,0-.53.24.69.69,0,0,0-.25.54.78.78,0,0,0,.24.57.74.74,0,0,0,.55.25.64.64,0,0,0,.45-.17l.09-.11v.12h0V5H15Zm-.49,1.65a.46.46,0,0,1-.34.15.47.47,0,0,1-.35-.15.52.52,0,0,1-.14-.36.46.46,0,0,1,.15-.34.45.45,0,0,1,.34-.15.49.49,0,0,1,.34.14.47.47,0,0,1,.16.33A.49.49,0,0,1,14.45,4.59Z"/><path class="cls-4" d="M11.28,4.18a.69.69,0,0,0-.2-.54.6.6,0,0,0-.47-.19.59.59,0,0,0-.29.07.78.78,0,0,0-.24.2.58.58,0,0,0-.21-.2.55.55,0,0,0-.28-.07.53.53,0,0,0-.32.1.44.44,0,0,0-.14.13v-.2H8.81v.33h0V5h.32V4.21a.54.54,0,0,1,.09-.33.34.34,0,0,1,.27-.12.35.35,0,0,1,.28.12.52.52,0,0,1,.1.35V5h.33V4.23a.52.52,0,0,1,.1-.35.32.32,0,0,1,.27-.12c.25,0,.38.15.38.46V5h.33Z"/><path class="cls-4" d="M19.82,4.15a.79.79,0,0,0-.2-.55.63.63,0,0,0-.46-.2.6.6,0,0,0-.33.09.44.44,0,0,0-.14.13V3.44h-.32V5h.32V4.2a.58.58,0,0,1,.12-.4.4.4,0,0,1,.28-.11.39.39,0,0,1,.3.14.53.53,0,0,1,.12.37V5h.32Z"/><path class="cls-4" d="M24.24,3.41h-.31v.23a.67.67,0,0,0-.2-.18.69.69,0,0,0-.34-.07.72.72,0,0,0-.52.22.73.73,0,0,0-.26.58.72.72,0,0,0,.27.59.85.85,0,0,0,.56.2.58.58,0,0,0,.34-.11.43.43,0,0,0,.1-.09.44.44,0,0,1-.3.41h-.13a.42.42,0,0,1-.22,0A.55.55,0,0,1,23,5l-.24.19a.66.66,0,0,0,.29.23.92.92,0,0,0,.38.07A.7.7,0,0,0,24,5.25a1.18,1.18,0,0,0,.21-.74Zm-.46,1.12a.57.57,0,0,1-.34.16.52.52,0,0,1-.36-.14.45.45,0,0,1-.15-.35.52.52,0,0,1,.14-.36.46.46,0,0,1,.34-.15.51.51,0,0,1,.36.15.48.48,0,0,1,0,.69Z"/></g></g></svg>