<svg xmlns="http://www.w3.org/2000/svg" viewBox="0 0 17.45 8.6"><defs><style>.cls-1{fill:#6d6d6c;}.cls-2{fill:#aeb336;}.cls-3{fill:#c8d32d;}</style></defs><title>mixed</title><g id="Livello_2" data-name="Livello 2"><g id="Livello_1-2" data-name="Livello 1"><rect class="cls-1" x="10.75" y="3.65" width="0.39" height="1.89"/><rect class="cls-1" x="10.75" y="3.02" width="0.39" height="0.41"/><polygon class="cls-1" points="12.64 3.65 12.22 4.28 11.8 3.65 11.34 3.65 11.99 4.6 11.34 5.54 11.8 5.55 12.22 4.93 12.64 5.54 13.1 5.54 12.45 4.6 13.1 3.65 12.64 3.65"/><path class="cls-1" d="M14.21,3.64a1,1,0,0,0-.7.29,1,1,0,0,0-.3.7.88.88,0,0,0,.3.7,1,1,0,0,0,.7.25,1.15,1.15,0,0,0,.41-.08,1,1,0,0,0,.32-.23L14.66,5a1.52,1.52,0,0,1-.17.09.67.67,0,0,1-.28.1A.58.58,0,0,1,13.78,5a.47.47,0,0,1-.16-.28h1.57a.57.57,0,0,0,0-.13,1,1,0,0,0-.29-.69,1,1,0,0,0-.7-.3m-.59.8a.54.54,0,0,1,.16-.26A.57.57,0,0,1,14.21,4a.58.58,0,0,1,.37.13.54.54,0,0,1,.21.31Z"/><path class="cls-1" d="M17.06,3v.8a.56.56,0,0,0,.05.23l-.18-.21a.8.8,0,0,0-.54-.21.92.92,0,0,0-.64.28.91.91,0,0,0-.32.67,1,1,0,0,0,.3.7.91.91,0,0,0,.68.3A.79.79,0,0,0,17,5.37a1.45,1.45,0,0,0,.15-.2.59.59,0,0,0-.05.23v.15h.39V3Zm-.21,2a.62.62,0,0,1-.42.19A.56.56,0,0,1,16,5a.62.62,0,0,1-.17-.44.59.59,0,0,1,1-.42.54.54,0,0,1,.18.41.61.61,0,0,1-.18.45"/><path class="cls-1" d="M9.52,3.62a.77.77,0,0,0-.36.09A.83.83,0,0,0,8.87,4a.6.6,0,0,0-.26-.24.67.67,0,0,0-.34-.09A.72.72,0,0,0,7.66,4a.56.56,0,0,0,0-.12s0-.08,0-.1V3.65H7.32v1.9h.4v-1a.63.63,0,0,1,.12-.41A.37.37,0,0,1,8.16,4a.41.41,0,0,1,.34.15.64.64,0,0,1,.13.44v1H9v-1a.68.68,0,0,1,.12-.44A.41.41,0,0,1,9.49,4c.3,0,.45.2.45.58v1h.4v-1a.92.92,0,0,0-.24-.66.78.78,0,0,0-.58-.23"/><path class="cls-2" d="M.68.17A1.3,1.3,0,0,0,.18,2l3.45,6a1.35,1.35,0,0,0,1.83.5A1.31,1.31,0,0,0,6,6.62L2.52.67A1.36,1.36,0,0,0,.68.17"/><path class="cls-3" d="M5.46.17A1.3,1.3,0,0,1,6,2l-3.45,6a1.36,1.36,0,0,1-1.84.5,1.31,1.31,0,0,1-.5-1.81L3.63.67A1.35,1.35,0,0,1,5.46.17"/></g></g></svg>