<svg xmlns="http://www.w3.org/2000/svg" viewBox="0 0 23.35 8.55"><defs><style>.cls-1{fill:#005c88;}.cls-2{fill:#5d98b8;}.cls-3{fill:#6d6d6c;}</style></defs><title>nta</title><g id="Livello_2" data-name="Livello 2"><g id="Livello_1-2" data-name="Livello 1"><path class="cls-1" d="M1.21,0A1.2,1.2,0,0,0,0,1.19V7.36A1.2,1.2,0,0,0,1.21,8.55,1.21,1.21,0,0,0,2.43,7.36V1.19A1.21,1.21,0,0,0,1.21,0"/><path class="cls-2" d="M4.16,0A1.2,1.2,0,0,0,3,1.19V7.36a1.21,1.21,0,0,0,2.42,0V1.19A1.2,1.2,0,0,0,4.16,0"/><path class="cls-3" d="M6.45,1.32A.69.69,0,0,1,6.59.85.45.45,0,0,1,6.92.73a.46.46,0,0,1,.36.16.65.65,0,0,1,.14.43v.93h.36v-1A.89.89,0,0,0,7.55.62.72.72,0,0,0,7,.38a.7.7,0,0,0-.38.11A.51.51,0,0,0,6.4.73l0-.13a.28.28,0,0,0,0-.09V.42H6.07V2.25h.38Z"/><path class="cls-3" d="M9,2.27a.71.71,0,0,0,.36-.09.55.55,0,0,0,.23-.25.59.59,0,0,0-.05.23v.09H9.9V.42H9.52v.93a.59.59,0,0,1-.16.48.49.49,0,0,1-.34.1.41.41,0,0,1-.34-.16.68.68,0,0,1-.13-.42V.42H8.18v1A.86.86,0,0,0,8.42,2,.73.73,0,0,0,9,2.27"/><path class="cls-3" d="M11.19,2.27A1,1,0,0,0,11.85,2a.88.88,0,0,0,.3-.66.91.91,0,0,0-.29-.66,1,1,0,0,0-.68-.27.93.93,0,0,0-.68.27.88.88,0,0,0-.28.66.88.88,0,0,0,.29.67,1,1,0,0,0,.68.26M10.77.93a.57.57,0,0,1,.41-.17.55.55,0,0,1,.41.17.57.57,0,0,1,.17.41.58.58,0,0,1-.17.4.58.58,0,0,1-.82,0,.57.57,0,0,1-.17-.42.57.57,0,0,1,.17-.41"/><polygon class="cls-3" points="14.13 0.42 13.71 0.42 13.16 1.59 12.6 0.42 12.19 0.42 13.16 2.37 14.13 0.42"/><path class="cls-3" d="M14.47,2a1,1,0,0,0,.67.24,1.1,1.1,0,0,0,.4-.08A.87.87,0,0,0,15.85,2l-.28-.23-.16.09a.71.71,0,0,1-.26.09.57.57,0,0,1-.42-.17.53.53,0,0,1-.16-.27h1.52s0-.08,0-.12a.94.94,0,0,0-.28-.66.93.93,0,0,0-1.35,0,.9.9,0,0,0-.29.67.86.86,0,0,0,.29.68M15.15.76a.59.59,0,0,1,.35.12.52.52,0,0,1,.21.3H14.58a.5.5,0,0,1,.15-.25.57.57,0,0,1,.42-.17"/><rect class="cls-3" x="20.72" y="2.62" width="0.38" height="0.4"/><polygon class="cls-3" points="7.22 3.23 6.71 3.23 6.71 2.62 6.33 2.62 6.33 3.23 6.07 3.23 6.07 3.55 6.33 3.55 6.33 5.05 6.71 5.05 6.71 3.55 7.22 3.55 7.22 3.23"/><path class="cls-3" d="M8.13,3.21a.93.93,0,0,0-.67.29.88.88,0,0,0-.29.67.88.88,0,0,0,.29.68,1,1,0,0,0,.67.24A1.06,1.06,0,0,0,8.53,5a.91.91,0,0,0,.31-.22l-.27-.23-.17.09a.71.71,0,0,1-.26.09.57.57,0,0,1-.42-.17.63.63,0,0,1-.16-.27H9.08a.57.57,0,0,0,0-.13.9.9,0,0,0-.28-.66.91.91,0,0,0-.68-.3M7.57,4a.6.6,0,0,1,.15-.25.6.6,0,0,1,.77,0A.53.53,0,0,1,8.7,4Z"/><path class="cls-3" d="M10.68,5A.77.77,0,0,0,11,4.78l-.27-.25a.64.64,0,0,1-.2.14.57.57,0,0,1-.24.06.65.65,0,0,1-.42-.16.57.57,0,0,1-.17-.42.65.65,0,0,1,.16-.42.57.57,0,0,1,.41-.17.69.69,0,0,1,.24,0,.52.52,0,0,1,.19.12L11,3.48l-.19-.14a1,1,0,0,0-.49-.14,1,1,0,0,0-1,1,.86.86,0,0,0,.3.67,1,1,0,0,0,.68.25A.89.89,0,0,0,10.68,5"/><path class="cls-3" d="M12.58,4.13v.92H13v-1a.92.92,0,0,0-.24-.66.74.74,0,0,0-.54-.23.76.76,0,0,0-.39.1.71.71,0,0,0-.22.24.38.38,0,0,0,0-.13.2.2,0,0,0,0-.09V3.23h-.38V5.05h.38V4.12a.62.62,0,0,1,.14-.46.4.4,0,0,1,.33-.13.46.46,0,0,1,.35.16.63.63,0,0,1,.14.44"/><path class="cls-3" d="M14.92,3.49a1,1,0,0,0-.68-.28,1,1,0,0,0-.69.28.9.9,0,0,0-.27.66.88.88,0,0,0,.29.67,1,1,0,0,0,.68.26.93.93,0,0,0,.66-.28.88.88,0,0,0,.29-.66.86.86,0,0,0-.28-.65m-.27,1.06a.57.57,0,0,1-.82,0,.57.57,0,0,1-.17-.41.57.57,0,0,1,.17-.42.54.54,0,0,1,.41-.16.53.53,0,0,1,.41.17.54.54,0,0,1,.17.4.62.62,0,0,1-.17.41"/><rect class="cls-3" x="15.52" y="2.62" width="0.39" height="2.43"/><path class="cls-3" d="M16.22,4.15a.89.89,0,0,0,.3.67,1,1,0,0,0,.68.26.93.93,0,0,0,.66-.28.88.88,0,0,0,.29-.66.86.86,0,0,0-.28-.65,1,1,0,0,0-.68-.28,1,1,0,0,0-.69.28.91.91,0,0,0-.28.66m.56-.42a.54.54,0,0,1,.41-.16.53.53,0,0,1,.41.17.56.56,0,0,1,.17.4.62.62,0,0,1-.17.41.58.58,0,0,1-1-.4.57.57,0,0,1,.17-.42"/><path class="cls-3" d="M20,3.36a.45.45,0,0,0,0,.11A.69.69,0,0,0,20,3.6a.81.81,0,0,0-.3-.31.92.92,0,0,0-.4-.08.89.89,0,0,0-.62.25.93.93,0,0,0-.31.69.85.85,0,0,0,.32.69,1,1,0,0,0,.66.24.64.64,0,0,0,.4-.13.84.84,0,0,0,.29-.35L20,4.8a1.08,1.08,0,0,1-.26.42.49.49,0,0,1-.35.13.75.75,0,0,1-.26,0,.81.81,0,0,1-.24-.17l-.29.21a.77.77,0,0,0,.34.28,1.33,1.33,0,0,0,.45.08.84.84,0,0,0,.7-.31,1.42,1.42,0,0,0,.24-.88V3.23H20Zm-.18,1.18a.68.68,0,0,1-.41.19A.61.61,0,0,1,19,4.56a.54.54,0,0,1-.18-.41.57.57,0,0,1,.17-.42.55.55,0,0,1,.4-.18.61.61,0,0,1,.42.17.58.58,0,0,1,.18.42.55.55,0,0,1-.16.4"/><rect class="cls-3" x="20.72" y="3.23" width="0.38" height="1.82"/><path class="cls-3" d="M22.39,3.21a.93.93,0,0,0-.67.29.92.92,0,0,0-.29.67.85.85,0,0,0,.3.68,1,1,0,0,0,.66.24,1.06,1.06,0,0,0,.4-.08.91.91,0,0,0,.31-.22l-.27-.23-.17.09a.66.66,0,0,1-.26.09A.61.61,0,0,1,22,4.57a.52.52,0,0,1-.15-.27h1.51a.57.57,0,0,0,0-.13.9.9,0,0,0-.28-.66.91.91,0,0,0-.68-.3M21.83,4A.73.73,0,0,1,22,3.73a.6.6,0,0,1,.77,0A.53.53,0,0,1,23,4Z"/><path class="cls-3" d="M7.64,6.51a.56.56,0,0,0,.05.23l-.18-.21A.78.78,0,0,0,7,6.33a1,1,0,0,0-.93.91,1,1,0,0,0,.29.68A.89.89,0,0,0,7,8.21.76.76,0,0,0,7.54,8a.69.69,0,0,0,.15-.2A.59.59,0,0,0,7.64,8v.15H8V5.74H7.64Zm-.2,1.17A.57.57,0,0,1,7,7.86a.54.54,0,0,1-.41-.18.57.57,0,0,1-.16-.42.6.6,0,0,1,.17-.41.57.57,0,0,1,.81,0,.51.51,0,0,1,.18.39.59.59,0,0,1-.18.44"/><path class="cls-3" d="M9.3,6.34a1,1,0,0,0-1,1,.85.85,0,0,0,.3.68,1,1,0,0,0,.66.24,1.06,1.06,0,0,0,.4-.08A.91.91,0,0,0,10,7.91l-.27-.23-.17.09a.71.71,0,0,1-.26.09.57.57,0,0,1-.42-.17.49.49,0,0,1-.15-.27h1.51a.53.53,0,0,0,0-.13A.9.9,0,0,0,10,6.64a.91.91,0,0,0-.68-.3m-.56.77a.58.58,0,0,1,.15-.25.54.54,0,0,1,.42-.17.57.57,0,0,1,.35.12.52.52,0,0,1,.21.3Z"/><rect class="cls-3" x="10.56" y="5.74" width="0.39" height="2.43"/><rect class="cls-3" x="11.45" y="5.74" width="0.39" height="2.43"/><polygon class="cls-3" points="12.08 6.63 12.47 6.63 12.88 5.74 12.49 5.74 12.08 6.63"/><path class="cls-3" d="M14.56,6.51a.43.43,0,0,0,0,.23,1.28,1.28,0,0,0-.18-.2.74.74,0,0,0-.52-.2.89.89,0,0,0-.64.28.88.88,0,0,0,0,1.3.89.89,0,0,0,.65.29.8.8,0,0,0,.51-.2,1.37,1.37,0,0,0,.16-.2.54.54,0,0,0,0,.22v.15h.37V6.35h-.36ZM14.35,7.7a.63.63,0,0,1-.42.16.5.5,0,0,1-.39-.17.62.62,0,0,1-.16-.43.54.54,0,0,1,.17-.41.52.52,0,0,1,.4-.17.6.6,0,0,1,.41.17.56.56,0,0,1,0,.85"/><path class="cls-3" d="M15.7,6.64V6.35h-.38V8.18h.38V7.47a.92.92,0,0,1,.15-.57.61.61,0,0,1,.42-.21l.06-.37A.81.81,0,0,0,16,6.4a.85.85,0,0,0-.29.24"/><polygon class="cls-3" points="17.73 6.35 17.22 6.35 17.22 5.74 16.84 5.74 16.84 6.35 16.59 6.35 16.59 6.67 16.84 6.67 16.84 8.18 17.22 8.18 17.22 6.67 17.73 6.67 17.73 6.35"/><path class="cls-3" d="M18.64,6.34a1,1,0,0,0-1,1A.85.85,0,0,0,18,8a1,1,0,0,0,.66.24,1.06,1.06,0,0,0,.4-.08.91.91,0,0,0,.31-.22l-.27-.23-.17.09a.66.66,0,0,1-.26.09.61.61,0,0,1-.42-.17.49.49,0,0,1-.15-.27h1.51a.53.53,0,0,0,0-.13.9.9,0,0,0-.28-.65.91.91,0,0,0-.68-.3m-.56.77a.58.58,0,0,1,.15-.25.54.54,0,0,1,.42-.17.57.57,0,0,1,.35.12.52.52,0,0,1,.21.3Z"/></g></g></svg>