<svg xmlns="http://www.w3.org/2000/svg" viewBox="0 0 79.39 79.39">
  <defs>
    <style>
      .cls-1 {
        fill: #db7cb2;
      }
    </style>
  </defs>
  <title>vimeo</title>
  <g id="Livello_2" data-name="Livello 2">
    <g id="footer_2" data-name="footer 2">
      <g>
        <path class="cls-1" d="M39.7,0A39.71,39.71,0,1,1,11.63,11.63,39.52,39.52,0,0,1,39.7,0ZM65.59,13.83A36.62,36.62,0,1,0,76.29,39.7a36.47,36.47,0,0,0-10.7-25.87Z"/>
        <path class="cls-1" d="M59.83,30.46C57.54,43.26,44.86,54.11,41,56.6s-7.29-1-8.55-3.65C31,50,26.71,33.78,25.54,32.42S21,33.78,21,33.78l-1.65-2.17s6.91-8.27,12.2-9.3c5.56-1.08,5.56,8.55,6.88,14,1.32,5.18,2.18,8.13,3.32,8.13s3.3-2.88,5.67-7.32-.09-8.37-4.75-5.56c1.87-11.17,19.41-13.85,17.15-1.06Z"/>
      </g>
    </g>
  </g>
</svg>
