<svg xmlns="http://www.w3.org/2000/svg" viewBox="0 0 79.39 79.41">
  <defs>
    <style>
      .cls-1 {
        fill: #db7cb2;
      }
    </style>
  </defs>
  <title>youtube</title>
  <g id="Livello_2" data-name="Livello 2">
    <g id="footer_2" data-name="footer 2">
      <g>
        <path class="cls-1" d="M39.7,0A39.71,39.71,0,1,1,11.63,11.63,39.61,39.61,0,0,1,39.7,0ZM65.57,13.83A36.6,36.6,0,1,0,76.29,39.72,36.46,36.46,0,0,0,65.57,13.83Z"/>
        <path class="cls-1" d="M59.56,31.26s-.41-2.93-1.62-4.2a5.84,5.84,0,0,0-4-1.81c-5.67-.41-14.17-.41-14.17-.41h0s-8.48,0-14.15.41a5.81,5.81,0,0,0-4.07,1.81c-1.21,1.27-1.62,4.2-1.62,4.2a64.13,64.13,0,0,0-.42,6.81V41.3a63.14,63.14,0,0,0,.42,6.81s.41,2.93,1.62,4.22C23,54,25,54,25.94,54.14c3.23.33,13.78.44,13.78.44s8.5,0,14.17-.44a5.7,5.7,0,0,0,4-1.81c1.21-1.29,1.62-4.22,1.62-4.22A66.25,66.25,0,0,0,60,41.3V38.07a67.28,67.28,0,0,0-.4-6.81Zm-13.09,8-11,5.91V33.3l5,2.7Z"/>
      </g>
    </g>
  </g>
</svg>
