<svg id="Livello_1" data-name="Livello 1" xmlns="http://www.w3.org/2000/svg" viewBox="0 0 1907.09 429.94">
  <defs>
    <style>
      .cls-1 {
        fill: #f89b3a;
      }

      .cls-2, .cls-9 {
        fill: #ffdb00;
      }

      .cls-3 {
        fill: #fff;
      }

      .cls-4 {
        fill: #55ab42;
      }

      .cls-5 {
        fill: #6bcbdc;
      }

      .cls-6 {
        fill: #db7cb2;
      }

      .cls-7 {
        fill: #56a4b2;
      }

      .cls-8 {
        opacity: 0.8;
      }

      .cls-9 {
        opacity: 0.2;
      }

      .cls-10 {
        fill: #f4edae;
      }
    </style>
  </defs>
  <title>livello 3</title>
  <g>
    <polygon class="cls-1" points="1907.09 296.94 1907.09 220.75 1904.65 220.75 1904.65 207.26 1866.03 207.26 1866.03 218.91 1848.26 218.91 1848.26 202.97 1831.71 202.97 1831.71 165.58 1824.96 165.58 1802.28 180.9 1802.28 196.23 1788.18 196.23 1788.18 211.55 1773.47 211.55 1773.47 166.8 1766.12 166.8 1766.12 159.45 1760.6 159.45 1760.6 166.19 1753.24 166.19 1753.24 234.84 1732.4 234.84 1732.4 205.42 1721.69 205.42 1721.69 429.94 1907.09 429.94 1907.09 326 1907.09 296.94"/>
    <path class="cls-2" d="M1726.39,809.05V765H1709.6V734.75h-18.32V775.4H1683V745.63a16.66,16.66,0,1,0-33.31,0v43.9h-3.33V753.2h-20v36.33a10,10,0,0,1-10-10V749.17l-21.65-.23v34.53h-10v-8.21h-15v-38.2h-8.33V729h-26.65v72.65h-17.17v231.92h210.63V809.05Zm-182.88-44.46h-3.39v-5.27h3.39Zm21.34,0h-3.39v-5.27h3.39Zm45.35-4.37h-3.39V755h3.39Zm28.08,5.27h-3.39v-5.27h3.39Zm17.19,71.56h-3.39v-5.27h3.39Zm4.11-84.74H1663v5.27h-3.39Zm5.85,42H1662V789h3.39Zm38.93-42H1701V747h3.39Zm5.86,26.63h-3.39v-5.27h3.39Z" transform="translate(-6.48 -603.63)"/>
    <rect class="cls-3" x="1533.64" y="155.69" width="3.39" height="5.27"/>
    <rect class="cls-3" x="1554.98" y="155.69" width="3.39" height="5.27"/>
    <rect class="cls-3" x="1600.33" y="151.32" width="3.39" height="5.27"/>
    <rect class="cls-3" x="1628.41" y="156.59" width="3.39" height="5.27"/>
    <rect class="cls-3" x="1653.11" y="148.69" width="3.39" height="5.27"/>
    <rect class="cls-3" x="1655.56" y="185.4" width="3.39" height="5.27"/>
    <rect class="cls-3" x="1700.36" y="170.04" width="3.39" height="5.27"/>
    <rect class="cls-3" x="1694.49" y="143.42" width="3.39" height="5.27"/>
    <rect class="cls-3" x="1645.6" y="228.15" width="3.39" height="5.27"/>
    <path class="cls-4" d="M1511.4,801.64V733h-30v4h-5v26.23h-6.66V749.17h-13.33v1.88h-20v7.81a8.32,8.32,0,0,1-8.32,8.33V712.7h-18.33v12.11h-9.07a10.9,10.9,0,0,1-10.91-10.91V694.54h-18.32v40.65h-4.28V682.47h-20v16.14h-8.32V662h-18.32v12.11h-20V643.84h-18.32v40.65h-8.33l-4.37,1.85V657.18l-10.92-1.52v-3l-21.45-9v18.63h-19.89v36.32a10,10,0,0,1-10-10V658.25l-21.65-.23v34.54h-10v-8.21h-15v-38.2h-8.33v-8.08H1125.7v72.65h-4.94v322.84h396.78V801.64ZM1135.54,677.27h-3.39V672h3.39Zm0-19.74h-3.39v-5.27h3.39Zm6.3,37.94h3.39v5.27h-3.39Zm5.46,46.25h-3.39v-5.27h3.39Zm6.15-64.45h-3.39V672h3.39Zm0-19.74h-3.39v-5.27h3.39Zm6.3,37.94h3.39v5.27h-3.39Zm5.46,46.25h-3.39v-5.27h3.39Zm9.26-23.1h-3.39v-5.28h3.39Zm12-15.25h-3.4V698.1h3.4Zm5.86,15.25H1189v-5.28h3.39Zm12-15.25H1201V698.1h3.4Zm24.49-26.1h-3.39V672h3.39Zm23.33,2.64h-3.39v-5.28h3.39Zm17.32,28.73h-3.39v-5.27h3.39Zm13.63,24.62h-3.39V728h3.39ZM1295,686h-3.39V680.7H1295Zm6.3,18.19h3.39v5.27h-3.39Zm5.46,46.25h-3.39v-5.27h3.39Zm9.26-23.1h-3.39V722H1316Zm6.94-44h3.4v5.27H1323Zm5.11,28.74h-3.4V706.8h3.4Zm5.86,15.24h-3.39V722h3.39Zm22.24,17h-3.39v-5.27h3.39Zm23.21-37.55H1376v-5.27h3.39Z" transform="translate(-6.48 -603.63)"/>
    <rect class="cls-5" x="1135.36" y="91.84" width="3.39" height="5.27"/>
    <rect class="cls-5" x="1153.27" y="91.84" width="3.39" height="5.27"/>
    <rect class="cls-5" x="1164.6" y="109.72" width="3.39" height="5.27"/>
    <rect class="cls-5" x="1182.51" y="109.72" width="3.39" height="5.27"/>
    <rect class="cls-5" x="1176.65" y="94.48" width="3.39" height="5.27"/>
    <rect class="cls-5" x="1194.56" y="94.48" width="3.39" height="5.27"/>
    <rect class="cls-5" x="1259.71" y="99.75" width="3.39" height="5.27"/>
    <rect class="cls-5" x="1137.43" y="132.82" width="3.39" height="5.27"/>
    <rect class="cls-5" x="1155.34" y="132.82" width="3.39" height="5.27"/>
    <rect class="cls-5" x="1294.83" y="100.54" width="3.39" height="5.27"/>
    <rect class="cls-5" x="1306.16" y="118.42" width="3.39" height="5.27"/>
    <rect class="cls-5" x="1324.07" y="118.42" width="3.39" height="5.27"/>
    <rect class="cls-5" x="1369.52" y="97.9" width="3.39" height="5.27"/>
    <rect class="cls-5" x="1346.31" y="135.46" width="3.39" height="5.27"/>
    <rect class="cls-5" x="1318.21" y="103.17" width="3.39" height="5.27"/>
    <rect class="cls-5" x="1316.5" y="79.71" width="3.39" height="5.27"/>
    <rect class="cls-5" x="1273.33" y="124.36" width="3.39" height="5.27"/>
    <rect class="cls-5" x="1296.9" y="141.52" width="3.39" height="5.27"/>
    <path class="cls-6" d="M1102.38,710.72V642.11h-30v4h-5v26.23h-6.66V658.25h-13.32v1.88h-20V668a8.31,8.31,0,0,1-2.74,6.16h-2.83V643.84h-2.76V621.79h-18.32V633.9H991.7A10.92,10.92,0,0,1,980.79,623V603.63H962.47v40.65h-8.33V615.73l-33.31-.31V640H897.51v36.32l-3.61,8.08H882v-38.2h-8.33v-8.08H847v72.65H823.65V642.11h-30v4h-5v26.23H782V658.25H768.69v1.88h-20V668a8.32,8.32,0,0,1-8.33,8.32V646.36H722.05v12.11H713a10.91,10.91,0,0,1-10.91-10.91V628.2H683.74v40.65h-8.32V640.31L642.1,640v36.28h-3.33V664.49H625.86c-.15,0-.31,0-.47,0h-6.6v11.75l-1.91,4.26-1.28,0v83.83h2.34v5.27H615.6v263.91h505.16V710.72ZM632.57,673.53h-3.39v-5.27h3.39Zm19.71-16.39h-3.39v-5.27h3.39ZM665,670.89h-3.39v-5.27H665Zm3.39-13.75H665v-5.27h3.39Zm25.16-14.8h-3.4v-5.27h3.4ZM708,669.65h-3.39v-5.27H708Zm25.28,0h-3.39v-5.27h3.39Zm29.45,5.71h-3.39v-5.27h3.39Zm12.3-1.24h-3.4v-5.27H775Zm16.34,16.54H788v-5.27h3.4ZM810.47,688h-3.4v-5.27h3.4Zm0-26.07h-3.4v-5.27h3.4ZM862.89,688H859.5v-5.27h3.39Zm0-26.07H859.5v-5.27h3.39ZM913,662h-3.39v-5.27H913Zm19.45,0H929v-5.27h3.39Zm0-27.41H929v-5.27h3.39ZM951.86,662h-3.39v-5.27h3.39Zm87.8,12h-3.39v-5.27h3.39Zm11.38-1.3h-3.39v-5.27H1051Zm33.85-15.13h-3.4v-5.27h3.4Zm11.58,12.17h-3.4v-5.27h3.4Z" transform="translate(-6.48 -603.63)"/>
    <rect class="cls-7" x="609.12" y="160.75" width="2.34" height="5.27"/>
    <rect class="cls-7" x="781.48" y="81.77" width="3.39" height="5.27"/>
    <path class="cls-2" d="M614.54,769.65v-5.27h1.06V680.55h-1.42v6l-5.39,12.05V709.1h-2.93V668.45H587.53v19.36a10.9,10.9,0,0,1-10.91,10.91h-9.07V686.61H549.23v29.92a8.33,8.33,0,0,1-8.33-8.33v-7.82h-20v-1.87H507.59v14.12h-6.67V686.4h-5v-4H468.1V668.74H464v-11.8h-2.6v-3.47h-3.82l-1.74-20.12h1.91v-1h-2.6v-3.38a.78.78,0,0,0-.79-.78h-.25V606.64h-.69v21.51h-.26a.79.79,0,0,0-.79.78v3.38h-2.6v1h1.91L450,653.47h-3.82v3.47h-2.6v11.8H439.2v9.59H416v8.07h-8.33v38.2h-15v8.21h-3v300.75h226V769.65ZM419.59,700.43h-3.35v-5.27h3.35Zm13.41,0h-3.35v-5.27H433Zm4.34,23.45H434v-5.27h3.35Zm44.37,4.46h-3.39v-5.27h3.39Zm.2-25.19h-3.39v-5.27h3.39Zm13.38,25.19H491.9v-5.27h3.39Zm14,41.31h-3.4v-5.27h3.4Zm0-22.14h-3.4v-5.27h3.4Zm8.89,79.11h-3.4v-5.27h3.4Zm0-29h-3.4V792.3h3.4Zm.9-74.5h3.39v5.27h-3.39Zm3.79,24.44h-3.39v-5.27h3.39ZM529,858.69h-3.39v-5.27H529Zm3.68-135.62H536v5.27h-3.39Zm.4,41.31h3.39v5.27h-3.39Zm6.78,62.24h-3.39v-5.27h3.39Zm6.4-103.55h3.4v5.27h-3.4ZM550,769.65h-3.39v-5.27H550Zm0-22.14h-3.39v-5.27H550Zm13.59,22.14h-3.4v-5.27h3.4Zm0-22.14h-3.4v-5.27h3.4Zm9.79-24.44h3.39v5.27H573.4Zm3.79,46.58H573.8v-5.27h3.39ZM587,723.07h3.39v5.27H587Zm3.79,24.44h-3.39v-5.27h3.39ZM596,705.25h-3.4V700H596Zm4.61,17.82H604v5.27h-3.4Zm3.79,46.58H601v-5.27h3.39Z" transform="translate(-6.48 -603.63)"/>
    <rect class="cls-5" x="471.84" y="119.45" width="3.39" height="5.27"/>
    <rect class="cls-5" x="485.43" y="119.45" width="3.39" height="5.27"/>
    <rect class="cls-5" x="512.59" y="119.45" width="3.39" height="5.27"/>
    <rect class="cls-5" x="472.05" y="94.25" width="3.39" height="5.27"/>
    <rect class="cls-5" x="526.17" y="119.45" width="3.39" height="5.27"/>
    <rect class="cls-5" x="539.76" y="119.45" width="3.39" height="5.27"/>
    <rect class="cls-5" x="566.92" y="119.45" width="3.39" height="5.27"/>
    <rect class="cls-5" x="580.5" y="119.45" width="3.39" height="5.27"/>
    <rect class="cls-5" x="594.09" y="119.45" width="3.39" height="5.27"/>
    <rect class="cls-5" x="499.41" y="138.61" width="3.39" height="5.27"/>
    <rect class="cls-5" x="512.99" y="138.61" width="3.39" height="5.27"/>
    <rect class="cls-5" x="540.15" y="138.61" width="3.39" height="5.27"/>
    <rect class="cls-5" x="553.74" y="138.61" width="3.39" height="5.27"/>
    <rect class="cls-5" x="580.9" y="138.61" width="3.39" height="5.27"/>
    <rect class="cls-5" x="499.41" y="160.75" width="3.39" height="5.27"/>
    <rect class="cls-5" x="526.57" y="160.75" width="3.39" height="5.27"/>
    <rect class="cls-5" x="540.15" y="160.75" width="3.39" height="5.27"/>
    <rect class="cls-5" x="553.74" y="160.75" width="3.39" height="5.27"/>
    <rect class="cls-5" x="567.32" y="160.75" width="3.39" height="5.27"/>
    <rect class="cls-5" x="508.3" y="188.67" width="3.39" height="5.27"/>
    <rect class="cls-5" x="529.96" y="217.73" width="3.39" height="5.27"/>
    <rect class="cls-5" x="508.3" y="217.73" width="3.39" height="5.27"/>
    <rect class="cls-5" x="519.1" y="249.79" width="3.39" height="5.27"/>
    <rect class="cls-5" x="594.49" y="160.75" width="3.39" height="5.27"/>
    <rect class="cls-5" x="608.07" y="160.75" width="1.05" height="5.27"/>
    <rect class="cls-5" x="409.76" y="91.53" width="3.35" height="5.27"/>
    <rect class="cls-5" x="423.17" y="91.53" width="3.35" height="5.27"/>
    <rect class="cls-5" x="427.52" y="114.98" width="3.35" height="5.27"/>
    <rect class="cls-5" x="586.08" y="96.35" width="3.39" height="5.27"/>
    <path class="cls-5" d="M382.67,732.81V698.28l-21.66.23v30.36a10,10,0,0,1-10,10V702.54H331v36.33H327.7V695A16.65,16.65,0,0,0,311,678.31h0A16.65,16.65,0,0,0,294.39,695v29.78h-5.5l.05-6.68-2.88,0V684.09H267.74v30.27h-20V702.25H229.43v36.62H221.1V722.72h-20V731l-25.23,27.89-.6,76.48-16.88-.13,0-4.47.2-24.83-4.47,0,.16-21.35-12.41-.1-.32,40.23-12.91-.1.15-18.87L106,805.55l-.13,16.89L85,822.27l.65-82.93-7.45-.06.07-9.93-4.47,0,.09-10.92-4.47,0-.09,11.43-5,0-.06,8.94-6.46,0-.59,76.48-4.47,0L52.69,826l-4.9,0v-33.5H41.43V753l-23.5,3.27V773H9.65v-5.78H6.76v16.2H6.48v250.14H389.65V732.81Zm-102.42,6.8H276.9v-5.27h3.35Zm1.67-37.16h-3.35v-5.27h3.35Zm13.13,39.79H291.7V737h3.35Zm6.72,31.16h-3.35v-5.28h3.35Zm3.18-73H301.6v-5.27H305Zm13.41,0H315v-5.27h3.35Zm52.41,7.89h-3.35v-5.27h3.35Z" transform="translate(-6.48 -603.63)"/>
    <rect class="cls-5" x="295.12" y="91.53" width="3.35" height="5.27"/>
    <rect class="cls-5" x="308.53" y="91.53" width="3.35" height="5.27"/>
    <rect class="cls-5" x="270.42" y="130.71" width="3.35" height="5.27"/>
    <rect class="cls-5" x="291.94" y="164.5" width="3.35" height="5.27"/>
    <rect class="cls-5" x="285.22" y="133.35" width="3.35" height="5.27"/>
    <rect class="cls-5" x="360.94" y="99.43" width="3.35" height="5.27"/>
    <rect class="cls-5" x="272.1" y="93.55" width="3.35" height="5.27"/>
  </g>
  <g class="cls-8">
    <g>
      <g>
        <rect class="cls-3" x="471.84" y="119.45" width="3.39" height="5.27"/>
        <rect class="cls-3" x="485.43" y="119.45" width="3.39" height="5.27"/>
        <rect class="cls-3" x="512.59" y="119.45" width="3.39" height="5.27"/>
        <rect class="cls-3" x="472.05" y="94.25" width="3.39" height="5.27"/>
        <rect class="cls-3" x="526.17" y="119.45" width="3.39" height="5.27"/>
        <rect class="cls-3" x="539.76" y="119.45" width="3.39" height="5.27"/>
        <rect class="cls-3" x="566.92" y="119.45" width="3.39" height="5.27"/>
        <rect class="cls-3" x="580.5" y="119.45" width="3.39" height="5.27"/>
        <rect class="cls-3" x="594.09" y="119.45" width="3.39" height="5.27"/>
      </g>
      <g>
        <rect class="cls-3" x="499.41" y="138.61" width="3.39" height="5.27"/>
        <rect class="cls-3" x="512.99" y="138.61" width="3.39" height="5.27"/>
        <rect class="cls-3" x="540.15" y="138.61" width="3.39" height="5.27"/>
        <rect class="cls-3" x="553.74" y="138.61" width="3.39" height="5.27"/>
        <rect class="cls-3" x="580.9" y="138.61" width="3.39" height="5.27"/>
      </g>
      <g>
        <rect class="cls-3" x="499.41" y="160.75" width="3.39" height="5.27"/>
        <rect class="cls-3" x="526.57" y="160.75" width="3.39" height="5.27"/>
        <rect class="cls-3" x="540.15" y="160.75" width="3.39" height="5.27"/>
        <rect class="cls-3" x="553.74" y="160.75" width="3.39" height="5.27"/>
        <rect class="cls-3" x="567.32" y="160.75" width="3.39" height="5.27"/>
        <rect class="cls-3" x="508.3" y="188.67" width="3.39" height="5.27"/>
        <rect class="cls-3" x="529.96" y="217.73" width="3.39" height="5.27"/>
        <rect class="cls-3" x="508.3" y="217.73" width="3.39" height="5.27"/>
        <rect class="cls-3" x="519.1" y="249.79" width="3.39" height="5.27"/>
        <rect class="cls-3" x="594.49" y="160.75" width="3.39" height="5.27"/>
        <rect class="cls-3" x="608.07" y="160.75" width="3.39" height="5.27"/>
      </g>
      <g>
        <rect class="cls-3" x="295.12" y="91.53" width="3.35" height="5.27"/>
        <rect class="cls-3" x="308.53" y="91.53" width="3.35" height="5.27"/>
        <rect class="cls-3" x="409.76" y="91.53" width="3.35" height="5.27"/>
        <rect class="cls-3" x="423.17" y="91.53" width="3.35" height="5.27"/>
        <rect class="cls-3" x="427.52" y="114.98" width="3.35" height="5.27"/>
        <rect class="cls-3" x="270.42" y="130.71" width="3.35" height="5.27"/>
        <rect class="cls-3" x="291.94" y="164.5" width="3.35" height="5.27"/>
        <rect class="cls-3" x="285.22" y="133.35" width="3.35" height="5.27"/>
        <rect class="cls-3" x="360.94" y="99.43" width="3.35" height="5.27"/>
        <rect class="cls-3" x="272.1" y="93.55" width="3.35" height="5.27"/>
      </g>
      <rect class="cls-3" x="586.08" y="96.35" width="3.39" height="5.27"/>
      <rect class="cls-3" x="622.7" y="64.63" width="3.39" height="5.27"/>
      <rect class="cls-3" x="642.41" y="48.24" width="3.39" height="5.27"/>
      <rect class="cls-3" x="658.55" y="48.24" width="3.39" height="5.27"/>
      <rect class="cls-3" x="655.16" y="62" width="3.39" height="5.27"/>
      <rect class="cls-3" x="683.71" y="33.44" width="3.39" height="5.27"/>
      <rect class="cls-3" x="698.11" y="60.76" width="3.39" height="5.27"/>
      <rect class="cls-3" x="723.39" y="60.76" width="3.39" height="5.27"/>
      <rect class="cls-3" x="752.85" y="66.47" width="3.39" height="5.27"/>
      <rect class="cls-3" x="765.14" y="65.23" width="3.39" height="5.27"/>
      <rect class="cls-3" x="781.48" y="81.77" width="3.39" height="5.27"/>
      <rect class="cls-3" x="800.6" y="53.07" width="3.39" height="5.27"/>
      <rect class="cls-3" x="800.6" y="79.13" width="3.39" height="5.27"/>
      <rect class="cls-3" x="853.02" y="53.07" width="3.39" height="5.27"/>
      <rect class="cls-3" x="903.1" y="53.07" width="3.39" height="5.27"/>
      <rect class="cls-3" x="922.55" y="53.07" width="3.39" height="5.27"/>
      <rect class="cls-3" x="922.55" y="25.65" width="3.39" height="5.27"/>
      <rect class="cls-3" x="1029.8" y="65.07" width="3.39" height="5.27"/>
      <rect class="cls-3" x="1041.17" y="63.76" width="3.39" height="5.27"/>
      <rect class="cls-3" x="1075.02" y="48.63" width="3.39" height="5.27"/>
      <rect class="cls-3" x="1086.6" y="60.81" width="3.39" height="5.27"/>
      <rect class="cls-3" x="1125.67" y="48.63" width="3.39" height="5.27"/>
      <rect class="cls-3" x="1143.59" y="48.63" width="3.39" height="5.27"/>
      <rect class="cls-3" x="1125.67" y="68.37" width="3.39" height="5.27"/>
      <rect class="cls-3" x="1143.59" y="68.37" width="3.39" height="5.27"/>
      <rect class="cls-3" x="1135.36" y="91.84" width="3.39" height="5.27"/>
      <rect class="cls-3" x="1153.27" y="91.84" width="3.39" height="5.27"/>
      <rect class="cls-3" x="1164.6" y="109.72" width="3.39" height="5.27"/>
      <rect class="cls-3" x="1182.51" y="109.72" width="3.39" height="5.27"/>
      <rect class="cls-3" x="1176.65" y="94.48" width="3.39" height="5.27"/>
      <rect class="cls-3" x="1194.56" y="94.48" width="3.39" height="5.27"/>
      <rect class="cls-3" x="1259.7" y="99.75" width="3.39" height="5.27"/>
      <rect class="cls-3" x="1219.06" y="68.37" width="3.39" height="5.27"/>
      <rect class="cls-3" x="1242.38" y="71.01" width="3.39" height="5.27"/>
      <rect class="cls-3" x="1137.43" y="132.82" width="3.39" height="5.27"/>
      <rect class="cls-3" x="1155.34" y="132.82" width="3.39" height="5.27"/>
      <rect class="cls-3" x="1285.15" y="77.07" width="3.39" height="5.27"/>
      <rect class="cls-3" x="1294.83" y="100.54" width="3.39" height="5.27"/>
      <rect class="cls-3" x="1306.16" y="118.42" width="3.39" height="5.27"/>
      <rect class="cls-3" x="1324.07" y="118.42" width="3.39" height="5.27"/>
      <rect class="cls-3" x="1369.52" y="97.9" width="3.39" height="5.27"/>
      <rect class="cls-9" x="1533.64" y="155.69" width="3.39" height="5.27"/>
      <rect class="cls-9" x="1554.98" y="155.69" width="3.39" height="5.27"/>
      <rect class="cls-9" x="1600.33" y="151.32" width="3.39" height="5.27"/>
      <rect class="cls-9" x="1628.41" y="156.59" width="3.39" height="5.27"/>
      <rect class="cls-9" x="1653.11" y="148.69" width="3.39" height="5.27"/>
      <rect class="cls-9" x="1655.56" y="185.4" width="3.39" height="5.27"/>
      <rect class="cls-9" x="1700.36" y="170.04" width="3.39" height="5.27"/>
      <rect class="cls-9" x="1694.49" y="143.42" width="3.39" height="5.27"/>
      <rect class="cls-9" x="1645.6" y="228.15" width="3.39" height="5.27"/>
      <rect class="cls-3" x="1346.31" y="135.46" width="3.39" height="5.27"/>
      <rect class="cls-3" x="1318.21" y="103.17" width="3.39" height="5.27"/>
      <rect class="cls-3" x="1316.5" y="79.71" width="3.39" height="5.27"/>
      <rect class="cls-3" x="1273.33" y="124.36" width="3.39" height="5.27"/>
      <rect class="cls-3" x="1296.9" y="141.52" width="3.39" height="5.27"/>
      <rect class="cls-3" x="942" y="53.07" width="3.39" height="5.27"/>
      <rect class="cls-3" x="853.02" y="79.13" width="3.39" height="5.27"/>
    </g>
    <g class="cls-8">
      <path class="cls-10" d="M1913.57,1033.56V824.37h-2.44V810.89h-38.62v11.64h-17.78V806.6h-16.55V769.2h-6.74l-22.68,15.33v15.32h-14.1v15.33H1780V770.43h-7.36v-7.36h-5.51v6.75h-7.36v68.65h-20.84V809.05h-12.49V765H1709.6V734.75h-18.32V775.4H1683V745.63a16.66,16.66,0,1,0-33.31,0v43.9h-3.33V753.2h-20v36.33a10,10,0,0,1-10-10V749.17l-21.65-.23v34.53h-10v-8.21h-15v-38.2h-8.33V729h-26.65v72.65H1511.4V733h-30v4h-5v26.23h-6.66V749.17h-13.33v1.88h-20v7.81a8.32,8.32,0,0,1-8.32,8.33V712.7H1409.8v12.11h-9.08a10.9,10.9,0,0,1-10.91-10.91V694.54h-18.32v40.65h-4.28V682.47h-20v16.14h-8.32V662l-18.32,1.13v11h-20V643.84h-18.32v40.65h-8.33l-4.37,1.85V657.18l-10.92-1.52v-3l-21.45-9v18.63h-19.89v36.32a10,10,0,0,1-10-10V658.25l-21.65-.23v34.54h-10v-8.21h-15v-38.2h-8.33v-8.08H1125.7v72.65h-23.32V642.11h-30v4h-5v26.23h-6.66V658.25h-13.32v1.88h-20V668a8.31,8.31,0,0,1-2.74,6.16h-2.83V643.84h-2.76V621.79h-18.32V633.9H991.7A10.92,10.92,0,0,1,980.79,623V603.63H962.47v40.65h-8.33V615.73l-33.31-.31V640H897.51v36.32l-3.61,8.08H882v-38.2h-8.33v-8.08H847v72.65H823.65V642.11h-30v4h-5v26.23H782V658.25H768.69v1.88h-20V668a8.32,8.32,0,0,1-8.33,8.32V646.36H722.05v12.11H713a10.91,10.91,0,0,1-10.91-10.91V628.2H683.74v40.65h-8.32V640.31L642.1,640v36.28h-3.33V664.49H625.86c-.15,0-.31,0-.47,0h-6.6v11.75l-1.91,4.26-2.7,0v6l-5.39,12.05V709.1h-2.93V668.45H587.53v19.36a10.9,10.9,0,0,1-10.91,10.91h-9.07V686.61H549.23v29.92a8.33,8.33,0,0,1-8.33-8.33v-7.82h-20v-1.87H507.59v14.12h-6.67V686.4h-5v-4H468.1V668.74H464v-11.8h-2.6v-3.47h-3.82l-1.74-20.12h1.91v-1h-2.6v-3.38a.78.78,0,0,0-.79-.78h-.25V606.63h-.69v21.52h-.26a.79.79,0,0,0-.79.78v3.38h-2.6v1h1.91L450,653.47h-3.82v3.47h-2.6v11.8H439.2v9.59H416v8.07h-8.33v38.2h-15v8.21h-10V698.28l-21.66.23v30.36a10,10,0,0,1-10,10V702.54H331v36.33H327.7V695A16.65,16.65,0,0,0,311,678.31h0A16.65,16.65,0,0,0,294.39,695v29.78h-5.5l.05-6.68-2.88,0V684.09H267.74v30.27h-20V702.25H229.43v36.62H221.1V722.72h-20V731l-25.23,27.89-.6,76.48-16.88-.13,0-4.47.2-24.83-4.47,0,.16-21.35-12.41-.1-.32,40.23-12.91-.1.15-18.87L106,805.55l-.13,16.89L85,822.27l.65-82.93-7.45-.06.07-9.93-4.47,0,.09-10.92-4.47,0-.09,11.43-5,0-.06,8.94-6.46,0-.59,76.48-4.47,0L52.69,826l-4.9,0v-33.5H41.43V753l-23.5,3.27V773H9.65v-5.78H6.76v16.2H6.48v250.14Z" transform="translate(-6.48 -603.63)"/>
    </g>
  </g>
</svg>
