<svg id="Livello_1" data-name="Livello 1" xmlns="http://www.w3.org/2000/svg" viewBox="0 0 1608.33 172.84">
  <defs>
    <style>
      .cls-1 {
        fill: #a4a5a4;
      }
    </style>
  </defs>
  <title>gabbiani</title>
  <g id="piccioni">
    <path class="cls-1" d="M795.18,455.56a9.78,9.78,0,0,1,3.82-1.25,4.56,4.56,0,0,1,2.46.67,3.25,3.25,0,0,0,1.5.44c.48,0-.05.29-.63.58s-1.16,1.54-2.17,2.36-3.58,4.88-6.14,6.13-5.65,1.55-7.29,2.47-3.14,3.57-3.91,3.86-2.85-2.61-3.57-3.62,1.4-2,2.89-2.17,3.1-1.5,2.27-1.89-6.13-8.16-7-10.57-2-11.5-3.57-14.3-1-9-.39-9.22,4.21,5.22,5.65,7.1,2.16,2.94,2.45,3,.69-1.35.69-2.75-.34-3.43,3.14,1.06,7.49,6.81,7.25,9.18a31.69,31.69,0,0,0,0,6.18,23.68,23.68,0,0,0,.57,3.38A9.36,9.36,0,0,0,795.18,455.56Z" transform="translate(-74.19 -429.04)"/>
    <path class="cls-1" d="M156.45,513.67a2.07,2.07,0,0,1-.83-.62,3.09,3.09,0,0,0-1.39-1,6.5,6.5,0,0,0-2.67-.1,6,6,0,0,1-1.41-.08,15.91,15.91,0,0,1,.42-2.24,21.59,21.59,0,0,1,1.43-3.86c.7-1.42-1.27-3.79-2.4-7.4s-1.39-2.26-1.71-1.39-.9,1.66-1.07,1.56a9.86,9.86,0,0,1-.83-2.43c-.47-1.51-1.44-5.74-1.89-5.74s-2.24,3.73-1.89,5.85-1.09,8-1.07,9.74,1.53,7.8,2,8.23-.88.91-1.85.65-2.53-.11-2.31.69.84,3.09,1.39,3.09,2.1-1.32,3.34-1.51,3.23.34,5.12.15,4.42-2.13,5.24-2.41,1.47-.93,1.9-1S156.75,513.78,156.45,513.67Z" transform="translate(-74.19 -429.04)"/>
    <path class="cls-1" d="M1655.51,478.11s6-2.35,8.67-1.55,2.44,2.4,3.46,2.54,2.51.77,1.73,1-1.83.36-2.36,1-3.27,4-5.41,5-3.42,1.11-2.63,2,4.31,5.1,7.89,5.56,7.68,1,9,3.85,2.61,10.43,4.15,15.29,2.84,19.31,2.4,24.21-.26,6.6-1.94,7.28-7.08-6.13-8.12-10.73-2.51-12.67-5.77-16.21-17.45-13.28-20.45-15.31a12.06,12.06,0,0,1-4.15-4.7s-4.36,1.53-6.84,2.28c-1.48.44-6.27,4.73-7.06,6.22s-1.39,2.29-2.65,1.34a21.84,21.84,0,0,1-3.87-3.78c-1.1-1.43-3-4.55-1.7-5.18s3.4-1,5.7-1.93a20.51,20.51,0,0,0,6.11-4.26,9.61,9.61,0,0,0,2.62-4.12c0-.29-4.09-8.17-4.48-14.36s-3-13.77-3.94-15.39-11.48-10-14.33-13.27-6.52-7-1.21-6.7,19.52,5.42,25.07,8.43,10.65,5,10.72,9-1.41,9.33,0,13.08S1652.1,478.41,1655.51,478.11Z" transform="translate(-74.19 -429.04)"/>
    <path class="cls-1" d="M150,594.77a15.16,15.16,0,0,1-4.48-.14,17.88,17.88,0,0,0-3.16-.76,26.64,26.64,0,0,0-3.29.59,8.31,8.31,0,0,1-1.18.12,3.71,3.71,0,0,0-.93-.73,6.16,6.16,0,0,0-1.6-.2s-.18-1-2-1.85-5-3.21-5.38-3.85-1.34-1.68-1.47-2-.48.57.13,1.5a20.74,20.74,0,0,1,1.55,2.56,6.4,6.4,0,0,0,3.4,3.43c2,.71,3,1.11,3,1.38a.86.86,0,0,1-.9.57c-.46-.06-1.68-.42-1.77-.16s.74,2.5,2.22,2.87a4.49,4.49,0,0,0,3.19-.46c.19-.2-1-.34-.9-.8s.82-.28,1.17-.61,1.37-.23,1.63-.23-.14-.23-.14-.23,2.13.06,3,.1,3-.41,3.6-.26,5.73-.54,5.93-1C151.68,594.4,150.77,594.66,150,594.77Z" transform="translate(-74.19 -429.04)"/>
    <path class="cls-1" d="M1595.46,479.59c-2.32-.39-9.63-2.41-12.13-4.21a50.93,50.93,0,0,0-8-4.76c-1.75-.7-7.35-.86-9.5-1.19a26.73,26.73,0,0,1-3.31-.68,10.6,10.6,0,0,0-1.92-2.79,17.84,17.84,0,0,0-4.22-1.91s.36-2.92-3.88-6.78-11-13-11.4-15.11-2.23-5.72-2.36-6.64-1.79,1.14-.93,4.22,1.94,6.41,2.07,8.3,1.4,8.6,6.37,12.28,7.33,5.64,6.94,6.31a2.5,2.5,0,0,1-3,.8c-1.21-.55-4.22-2.59-4.7-1.95s-.12,7.46,3.61,9.72,8.42,1.87,9.12,1.48-2.59-1.82-1.77-2.95,2.45-.07,3.71-.68,3.93.56,4.65.77-.18-.74-.18-.74,5.77,2,8.14,2.85,8.47,1.39,10,2.34,16.13,3.41,17,2.42C1600.49,480.07,1597.79,480,1595.46,479.59Z" transform="translate(-74.19 -429.04)"/>
    <path class="cls-1" d="M85.08,592.1A6.09,6.09,0,0,1,84,588.48c0-2.31,0-4.38-.85-5.7a44.86,44.86,0,0,1-4.37-7.51c-1.07-2.81-2.07-5.25-2.56-5.31S74.05,576.15,75,580a30.72,30.72,0,0,0,2,5.6c.34,1.12-.17,2.13.26,4.54A31.42,31.42,0,0,0,79,595.55c.13.46-.39,1.16-.92,1.67a12,12,0,0,1-2.7,1.5c-.69.31-1.33.39-1.2.77a3.8,3.8,0,0,0,1.09,1.93,3.66,3.66,0,0,0,2.09.46c.51,0,.8-1.78,1.39-2a33.12,33.12,0,0,1,3.8-1.15,6.19,6.19,0,0,0,3.82.17,5.74,5.74,0,0,1,3.74-.38c1.21.22,3.88,1.18,4.15,1.1s-.45-1.22-1.09-1.69c-.94-.68-1.2-.74-1.83-1.29a5.15,5.15,0,0,0-2.67-1.23,5.32,5.32,0,0,1,1.26-1.9c.73-.56,1.41-1.45,1.82-1.59s1.13-.22,1.22-.37-1.53-.24-1.53-.24-.51-1-2.54-.86A8.44,8.44,0,0,0,85.08,592.1Z" transform="translate(-74.19 -429.04)"/>
    <path class="cls-1" d="M130.28,535.66a.71.71,0,0,0-.64-.27,3.53,3.53,0,0,1-.82.19,1.64,1.64,0,0,1-1.38-1.07c-.28-.88.11-2.24-.62-2.54a12.17,12.17,0,0,0-5.07-.47c-2.3.24-2.5.18-1.77.72a4.76,4.76,0,0,0,2.31.7,3.18,3.18,0,0,1,1.59.37,9.13,9.13,0,0,1,1.06,1.9,9.63,9.63,0,0,1,1.13,2.31,1.36,1.36,0,0,1-.92.87c-.46.17-.86.25-.77.42s.59.37.81.53.5.43.63.25a1.91,1.91,0,0,1,.94-.91,5,5,0,0,0,1.72-.59,5.37,5.37,0,0,0,1.54-1.44c.11-.12.47.1.65.31a4.37,4.37,0,0,0,.93,1.17c.5.37.66,1,1,1.14s.24-1.52.22-2.33a2.67,2.67,0,0,0-.36-1.59c-.27-.39-.57-.48-.8-.32A5.45,5.45,0,0,1,130.28,535.66Z" transform="translate(-74.19 -429.04)"/>
  </g>
</svg>
