<?xml version="1.0" encoding="utf-8"?>
<!-- Generator: Adobe Illustrator 23.1.0, SVG Export Plug-In . SVG Version: 6.00 Build 0)  -->
<svg version="1.1" id="Layer_1" xmlns="http://www.w3.org/2000/svg" xmlns:xlink="http://www.w3.org/1999/xlink" x="0px" y="0px"
	 viewBox="0 0 512 512" style="enable-background:new 0 0 512 512;" xml:space="preserve">
<style type="text/css">
	.st0{fill:#FFFFFF;}
</style>
<g>
	<path class="st0" d="M443,0H69C30.9,0,0,30.9,0,69v374c0,38.1,30.9,69,69,69h184.5l0.3-183h-47.5c-6.2,0-11.2-5-11.2-11.2l-0.2-59
		c0-6.2,5-11.3,11.2-11.3h47.4v-57c0-66.1,40.4-102.1,99.4-102.1h48.4c6.2,0,11.2,5,11.2,11.2v49.7c0,6.2-5,11.2-11.2,11.2l-29.7,0
		c-32.1,0-38.3,15.2-38.3,37.6v49.3h70.5c6.7,0,11.9,5.9,11.1,12.5l-7,59c-0.7,5.6-5.5,9.9-11.1,9.9h-63.2l-0.3,183H443
		c38.1,0,69-30.9,69-69V69C512,30.9,481.1,0,443,0z"/>
</g>
</svg>
