<?xml version="1.0" encoding="utf-8"?>
<!-- Generator: Adobe Illustrator 23.1.0, SVG Export Plug-In . SVG Version: 6.00 Build 0)  -->
<svg version="1.1" id="Livello_1" xmlns="http://www.w3.org/2000/svg" xmlns:xlink="http://www.w3.org/1999/xlink" x="0px" y="0px"
	 viewBox="0 0 102.8 102.9" style="enable-background:new 0 0 102.8 102.9;" xml:space="preserve">
<style type="text/css">
	.st0{fill:#FFFFFF;}
</style>
<title>Tavola disegno 2</title>
<g>
	<g>
		<path class="st0" d="M69.3,29.9L69.3,29.9c2.2,0,4,1.8,4,4s-1.8,4-4,4s-4-1.8-4-4S67,29.9,69.3,29.9L69.3,29.9z"/>
		<path class="st0" d="M84.2,35c0.5,5.2,0.8,29.9-0.7,35.6c-2,7.6-7,12-14.6,13.3c-2.9,0.5-10.6,0.7-18.3,0.7
			c-7.9,0-15.8-0.3-18.4-1c-7.5-1.9-12-6.8-13.2-14.4c-0.9-5.6-1-31.6,0.6-37.2c2.1-7.3,7-11.7,14.4-12.9c5.5-0.6,11.1-0.9,16.6-0.8
			c6.2,0,12.4,0.2,16.2,0.4c4.5,0.1,8.8,1.9,12.1,5C82,26.7,83.9,30.7,84.2,35z M77.8,68.1c1-5.8,1-27.1,0.4-32.5
			c-0.6-5.8-4.2-9.7-9.9-10.6c-5.5-0.5-11-0.7-16.6-0.6c-6.6,0-13.2,0.2-16.1,0.5c-5.8,0.7-9.7,4.2-10.6,10
			c-1,6.1-0.9,28.9-0.2,33.4c0.5,4.5,3.7,8.3,8.2,9.4c2.6,0.7,10.3,1,17.8,1c7,0,13.8-0.2,16.3-0.5C73.1,77.5,76.9,73.9,77.8,68.1"
			/>
		<path class="st0" d="M51.6,34.5c9.3,0,16.8,7.5,16.9,16.8c0,0.1,0,0.1,0,0.2c-0.1,9.4-7.7,17-17.1,17c-9.3,0-16.8-7.5-16.8-16.8
			c0-0.1,0-0.2,0-0.2C34.6,42.1,42.2,34.5,51.6,34.5z M51.4,62.5c6,0,11-4.8,11.1-10.9c0.1-6-4.6-11-10.6-11.1h-0.1h-0.1
			c-6,0.1-10.9,4.9-11,10.8C40.6,57.3,45.4,62.3,51.4,62.5C51.2,62.5,51.3,62.5,51.4,62.5L51.4,62.5"/>
	</g>
</g>
</svg>
