<?xml version="1.0" encoding="utf-8"?>
<!-- Generator: Adobe Illustrator 22.1.0, SVG Export Plug-In . SVG Version: 6.00 Build 0)  -->
<svg version="1.1" id="Livello_1" xmlns="http://www.w3.org/2000/svg" xmlns:xlink="http://www.w3.org/1999/xlink" x="0px" y="0px"
	 viewBox="0 0 49.2 62.1" style="enable-background:new 0 0 49.2 62.1;" xml:space="preserve">
<style type="text/css">
	.st0{clip-path:url(#SVGID_2_);}
	.st1{fill:#999999;}
</style>
<title>Tavola disegno 5</title>
<g>
	<defs>
		<rect id="SVGID_1_" x="0" y="-0.6" width="49.2" height="62.7"/>
	</defs>
	<clipPath id="SVGID_2_">
		<use xlink:href="#SVGID_1_"  style="overflow:visible;"/>
	</clipPath>
	<g class="st0">
		<path class="st1" d="M46.7,23.8H36.5c-1.3-0.1-2.5,0.9-2.6,2.3c-0.1,1.3,0.9,2.5,2.3,2.6c0.1,0,0.2,0,0.3,0h7.8v28.6H4.8V28.7h8.6
			c1.3-0.1,2.3-1.2,2.3-2.6c-0.1-1.2-1-2.2-2.3-2.3h-11C1,23.9,0,25,0,26.4v33.5c0,1.2,1,2.2,2.2,2.2c0.1,0,0.1,0,0.2,0h44.4
			c1.2,0.1,2.3-0.8,2.4-2c0-0.1,0-0.1,0-0.2V26.4C49.2,25,48.1,23.9,46.7,23.8L46.7,23.8z"/>
		<path class="st1" d="M24.1,42c1.3,0,2.4-1.1,2.4-2.4V6.8L36.9,16c0.4,0.4,1,0.6,1.6,0.6c0.7,0,1.3-0.3,1.8-0.8
			c0.9-1,0.8-2.5-0.2-3.4c0,0,0,0,0,0L26.2,0c-1.4-0.9-3.2-0.5-4.1,0.9c0,0,0,0,0,0L10,12.4c-1,0.9-1,2.5-0.1,3.4s2.5,1,3.4,0.1
			l8.4-8v31.7C21.7,40.9,22.8,42,24.1,42L24.1,42z"/>
	</g>
</g>
</svg>
