<?xml version="1.0" encoding="utf-8"?>
<!-- Generator: Adobe Illustrator 22.1.0, SVG Export Plug-In . SVG Version: 6.00 Build 0)  -->
<svg version="1.1" id="Livello_1" xmlns="http://www.w3.org/2000/svg" xmlns:xlink="http://www.w3.org/1999/xlink" x="0px" y="0px"
	 viewBox="0 0 102.9 102.9" style="enable-background:new 0 0 102.9 102.9;" xml:space="preserve">
<style type="text/css">
	.st1{fill:#FFFFFF;}
</style>
<title>Tavola disegno 3</title>
<g>
	<path class="st1" d="M95,27.1c-0.6,0.9-1.2,1.7-1.8,2.5c-1.7,2.1-3.7,4-5.9,5.6l-0.3,0.5c0.1,2.4,0,4.8-0.4,7.2
		c-1.3,10.2-5.9,19.7-13,27.1c-6,6.3-13.8,10.6-22.3,12.4c-3,0.6-6,1-9,1.1c-0.5,0-1,0-1.5,0c-8.6,0-17.1-2.4-24.3-7L16,76.2
		c1.3,0.1,2.5,0.2,3.8,0.2c4.2,0,8.5-0.8,12.4-2.4c2.8-1.1,5.4-2.7,7.7-4.5c-6.9-0.1-12.9-4.7-14.9-11.2c1,0.2,2,0.3,3,0.3
		c1.3,0,2.6-0.2,3.9-0.5l0.2-0.1c-4.4-0.9-8.1-3.6-10.4-7.4C20.1,48,19.3,45,19.4,42c2.2,1.2,4.7,1.9,7.2,1.9
		c-7-4.8-9-14.2-4.7-21.5C30,32.5,42.1,38.6,55,39.3c-0.1-0.7-0.2-1.2-0.3-1.8c-0.9-8.6,5-16.4,13.5-17.9c1-0.2,2-0.2,2.9-0.3
		c4.2,0,8.2,1.7,11.2,4.8c0.2,0.2,0.4,0.3,0.6,0.3h0.3c3.3-0.7,6.5-1.9,9.4-3.6l0.2-0.1c-1.2,3.7-3.6,6.8-6.9,8.8
		C89.1,29.2,92.1,28.4,95,27.1z"/>
</g>
</svg>
