<?xml version="1.0" encoding="utf-8"?>
<!-- Generator: Adobe Illustrator 23.1.0, SVG Export Plug-In . SVG Version: 6.00 Build 0)  -->
<svg version="1.1" id="Layer_1" xmlns="http://www.w3.org/2000/svg" xmlns:xlink="http://www.w3.org/1999/xlink" x="0px" y="0px"
	 viewBox="0 0 512 512" style="enable-background:new 0 0 512 512;" xml:space="preserve">
<style type="text/css">
	.st0{fill:#FFFFFF;}
</style>
<g>
	<path class="st0" d="M503.9,92.6c-11.4,5-23.2,9-35.3,11.9c13.4-12.7,23.4-28.6,29.1-46.3l0,0c1.6-5.1-3.9-9.4-8.4-6.7l0,0
		c-16.9,10-35,17.5-54,22.3c-1.1,0.3-2.2,0.4-3.4,0.4c-3.5,0-6.8-1.3-9.4-3.6c-20.2-17.8-46.1-27.6-73-27.6c-11.7,0-23.4,1.8-35,5.4
		c-35.8,11.1-63.4,40.6-72.1,77.1c-3.3,13.7-4.1,27.3-2.6,40.6c0.2,1.5-0.5,2.6-1,3.1c-0.8,0.9-1.9,1.4-3,1.4c-0.1,0-0.3,0-0.4,0
		c-78.3-7.3-149-45-198.9-106.3l0,0c-2.5-3.1-7.4-2.7-9.5,0.7l0,0c-9.8,16.8-14.9,36-14.9,55.5c0,29.9,12,58.1,32.9,78.7
		c-8.8-2.1-17.3-5.4-25.2-9.7l0,0c-3.8-2.1-8.5,0.6-8.6,5l0,0c-0.5,44.5,25.5,84,64.5,101.8c-0.8,0-1.6,0-2.4,0
		c-6.2,0-12.4-0.6-18.6-1.8l0,0c-4.3-0.8-7.9,3.3-6.6,7.4l0,0c12.7,39.5,46.7,68.6,87.4,75.2c-33.8,22.7-73.1,34.6-114.1,34.6
		l-12.8,0c-3.9,0-7.3,2.6-8.3,6.4c-1,3.8,0.8,7.7,4.2,9.7c46.1,26.9,98.8,41,152.2,41c46.8,0,90.6-9.3,130.1-27.6
		c36.2-16.8,68.3-40.8,95.2-71.3c25.1-28.5,44.7-61.3,58.3-97.6c13-34.6,19.8-71.6,19.8-106.8v-1.7c0-5.7,2.6-11,7-14.6
		c17-13.8,31.7-30,43.9-48.2l0,0C514.2,96.3,509.1,90.3,503.9,92.6L503.9,92.6z"/>
</g>
</svg>
