<?xml version="1.0" encoding="utf-8"?>
<!-- Generator: Adobe Illustrator 22.1.0, SVG Export Plug-In . SVG Version: 6.00 Build 0)  -->
<svg version="1.1" id="Livello_1" xmlns="http://www.w3.org/2000/svg" xmlns:xlink="http://www.w3.org/1999/xlink" x="0px" y="0px"
	 viewBox="0 0 102.9 102.9" style="enable-background:new 0 0 102.9 102.9;" xml:space="preserve">
<style type="text/css">
	.st1{fill:#FFFFFF;}
</style>
<title>Tavola disegno 4</title>
<g>
	<g>
		<path class="st1" d="M39.7,34.8c0.7,0,1.4,0.1,2.1,0.2c0.4,0,0.8,0.6,1,1.1c1,2.3,2,4.6,2.8,6.9c0.5,1.3-0.4,2.4-2.2,4.5
			c-0.6,0.5-0.7,1.4-0.3,2c2.7,4.9,7.1,8.6,12.3,10.6c0.2,0.1,0.4,0.1,0.7,0.1c0.5,0,0.9-0.3,1.2-0.6c2.3-2.8,2.9-4,3.9-4
			c0.3,0,0.5,0.1,0.8,0.2c7.1,3.4,7.7,3.6,7.7,4.4c0.2,5.7-4.8,8-8.2,8h-0.5c-6.9-0.2-17.9-5.7-25.4-18.9c-2.6-4.7-2.2-10,1.7-13.6
			C37.9,35.1,38.8,34.8,39.7,34.8z"/>
		<path class="st1" d="M86.7,44.6c3.5,19.5-9.5,38.2-29,41.7c0,0,0,0,0,0c-2.1,0.4-4.1,0.5-6.2,0.5c-5.5,0-11-1.3-15.9-3.8
			c-0.5-0.2-1-0.3-1.5-0.3c-0.2,0-0.5,0-0.7,0.1c-9.4,2.4-15.7,4.1-17.6,4.5c0.4-1.5,0.8-2.9,1.1-4.2c1.2-4.3,2.5-8.6,3.6-12.9
			c0.2-0.7,0.1-1.4-0.2-2.1C11.1,50.6,17.9,29,35.3,19.8c2.7-1.4,5.6-2.5,8.6-3.2c2.7-0.7,5.5-1,8.4-1
			C69.3,15.7,83.7,27.9,86.7,44.6z M56.2,80.5c16.1-2.6,27.2-17.6,25-33.7c-2-14.5-14.4-25.3-29.1-25.3c-1.8,0-3.6,0.2-5.4,0.5
			c-20,3.7-30.8,25.9-21,43.5c1.1,1.7,1.3,3.8,0.6,5.6c-0.9,2.5-1.4,5.1-2.2,7.9c3.5-0.9,6.8-1.7,10-2.6c0.3-0.1,0.6-0.1,0.8-0.1
			c0.6,0,1.1,0.2,1.6,0.5c4.5,2.7,9.6,4.1,14.8,4.1C52.9,80.9,54.5,80.8,56.2,80.5"/>
	</g>
</g>
</svg>
