<?xml version="1.0" encoding="utf-8"?>
<!-- Generator: Adobe Illustrator 23.0.3, SVG Export Plug-In . SVG Version: 6.00 Build 0)  -->
<svg version="1.1" id="Livello_1" xmlns="http://www.w3.org/2000/svg" xmlns:xlink="http://www.w3.org/1999/xlink" x="0px" y="0px"
	 viewBox="0 0 1676 1046" style="enable-background:new 0 0 1676 1046;" xml:space="preserve">
<style type="text/css">
	.st0{fill:#6BCBDC;}
	.st1{fill:#BCECF7;}
	.st2{fill:#DB7CB2;}
	.st3{opacity:0.5;fill:#FFFFFF;enable-background:new    ;}
</style>
<g id="_5">
	<g>
		<path class="st0" d="M1017.4,472.2l0.2-33.7l-109.5-20.2l0.1-18.8l-9.6-0.1v7.4l-70.3-2.6l-27-10.2l-43.3-0.2v-6.5l-8.7,0
			l-66.9,12.3l-0.1,15.7l-57.5-0.3l-13.5-8.4l-42.1-0.2V399l-14.6-0.1l-0.2,34.8l-5.8,27.6l-17.9-0.1v5.7l-10.2-0.1l-0.1,23.4
			L477,503v7.7h-18.7V568h18.3l0,8.4l590.3-8.4h38.8L1017.4,472.2z"/>
		<g>
			<g>
				<path class="st1" d="M665.8,453.7l-8.6-0.1l0-7.7c0-1.6,1.8-3.2,3.8-3.5c1.4-0.2,2.8,0.3,3.8,1.2c0.6,0.6,1,1.4,1,2.3
					L665.8,453.7z"/>
				<path class="st1" d="M681,453.8l-8.6-0.1l0-7.7c0-1.6,1.8-3.2,3.8-3.5c1.4-0.2,2.8,0.3,3.7,1.2c0.6,0.6,1,1.4,1,2.3V453.8z"/>
				<path class="st1" d="M696.2,453.9l-8.6-0.1v-7.7c0-1.6,1.8-3.2,3.8-3.5c1.4-0.2,2.8,0.3,3.8,1.2c0.6,0.6,1,1.4,1,2.3
					L696.2,453.9z"/>
				<path class="st1" d="M711.3,454l-8.6-0.1v-7.7c0-1.6,1.8-3.2,3.8-3.5c1.4-0.2,2.8,0.3,3.8,1.2c0.6,0.6,1,1.4,1,2.3L711.3,454z"
					/>
				<path class="st1" d="M726.5,454.1l-8.6-0.1l0-7.7c0-1.6,1.8-3.2,3.8-3.5c1.4-0.2,2.8,0.3,3.7,1.2c0.6,0.6,1,1.4,1,2.3V454.1z"/>
				<path class="st1" d="M741.7,454.1l-8.6-0.1v-7.7c0-1.6,1.8-3.2,3.8-3.5c1.4-0.2,2.8,0.3,3.8,1.2c0.6,0.6,1,1.4,1,2.3
					L741.7,454.1z"/>
				<path class="st1" d="M756.8,454.2l-8.6-0.1v-7.7c0-1.6,1.8-3.2,3.8-3.5c1.4-0.2,2.8,0.3,3.8,1.2c0.6,0.6,1,1.4,1,2.3
					L756.8,454.2z"/>
				<path class="st1" d="M772,454.3l-8.6-0.1l0-7.7c0-1.6,1.8-3.2,3.8-3.5c1.4-0.2,2.8,0.3,3.7,1.2c0.6,0.6,1,1.4,1,2.3L772,454.3z"
					/>
				<path class="st1" d="M787.1,454.4l-8.6-0.1v-7.7c0-1.6,1.8-3.2,3.8-3.5c1.4-0.2,2.8,0.3,3.8,1.2c0.6,0.6,1,1.4,1,2.3
					L787.1,454.4z"/>
				<path class="st1" d="M802.3,454.5l-8.6-0.1v-7.7c0-1.6,1.8-3.2,3.8-3.5c1.4-0.2,2.8,0.3,3.8,1.2c0.6,0.6,1,1.4,1,2.3
					L802.3,454.5z"/>
				<path class="st1" d="M817.5,454.6l-8.6-0.1l0-7.7c0-1.6,1.8-3.2,3.8-3.5c1.4-0.2,2.8,0.3,3.7,1.2c0.6,0.6,1,1.4,1,2.3
					L817.5,454.6z"/>
				<path class="st1" d="M832.6,454.6l-8.6-0.1v-7.7c0-1.6,1.8-3.2,3.8-3.5c1.4-0.2,2.8,0.3,3.8,1.2c0.6,0.6,1,1.4,1,2.3
					L832.6,454.6z"/>
			</g>
			<g>
				<path class="st1" d="M665.7,478.7l-8.6-0.1v-7.7c0-1.6,1.8-3.2,3.8-3.5c1.4-0.2,2.8,0.3,3.8,1.2c0.6,0.6,1,1.4,1,2.3
					L665.7,478.7z"/>
				<path class="st1" d="M680.9,478.7l-8.6-0.1l0-7.7c0-1.6,1.8-3.2,3.8-3.5c1.4-0.2,2.8,0.3,3.8,1.2c0.6,0.6,1,1.4,1,2.3
					L680.9,478.7z"/>
				<path class="st1" d="M696,478.8l-8.6-0.1v-7.7c0-1.6,1.8-3.2,3.8-3.5c1.4-0.2,2.8,0.3,3.7,1.2c0.6,0.6,1,1.4,1,2.3L696,478.8z"
					/>
				<path class="st1" d="M711.2,478.9l-8.6-0.1v-7.7c0-1.6,1.8-3.2,3.8-3.5c1.4-0.2,2.8,0.3,3.8,1.3c0.6,0.6,1,1.4,1,2.3
					L711.2,478.9z"/>
				<path class="st1" d="M726.3,479l-8.6-0.1l0-7.7c0-1.6,1.8-3.2,3.8-3.5c1.4-0.2,2.8,0.3,3.8,1.2c0.6,0.6,1,1.4,1,2.3L726.3,479z"
					/>
				<path class="st1" d="M741.5,479.1L733,479v-7.7c0-1.6,1.8-3.2,3.8-3.5c1.4-0.2,2.8,0.3,3.7,1.2c0.6,0.6,1,1.4,1,2.3V479.1z"/>
				<path class="st1" d="M756.7,479.1l-8.6-0.1v-7.7c0-1.6,1.8-3.2,3.8-3.5c1.4-0.2,2.8,0.3,3.8,1.2c0.6,0.6,1,1.4,1,2.3
					L756.7,479.1z"/>
				<path class="st1" d="M771.8,479.2l-8.6-0.1v-7.7c0-1.6,1.8-3.2,3.8-3.5c1.4-0.2,2.8,0.3,3.8,1.2c0.6,0.6,1,1.4,1,2.3
					L771.8,479.2z"/>
				<path class="st1" d="M787,479.3l-8.6-0.1v-7.7c0-1.6,1.8-3.2,3.8-3.5c1.4-0.2,2.8,0.3,3.7,1.2c0.6,0.6,1,1.4,1,2.3L787,479.3z"
					/>
				<path class="st1" d="M802.2,479.4l-8.6,0v-7.7c0-1.6,1.8-3.2,3.8-3.5c1.4-0.2,2.8,0.3,3.8,1.2c0.6,0.6,1,1.4,1,2.3L802.2,479.4z
					"/>
				<path class="st1" d="M817.3,479.5l-8.6-0.1v-7.7c0-1.6,1.8-3.2,3.8-3.5c1.4-0.2,2.8,0.3,3.8,1.2c0.6,0.6,1,1.4,1,2.3
					L817.3,479.5z"/>
				<path class="st1" d="M832.5,479.5l-8.6-0.1l0-7.7c0-1.6,1.8-3.2,3.8-3.5c1.4-0.2,2.8,0.3,3.7,1.2c0.6,0.6,1,1.4,1,2.3
					L832.5,479.5z"/>
			</g>
			<g>
				<g>
					
						<rect x="913.2" y="425.2" transform="matrix(5.236017e-03 -1 1 5.236017e-03 484.2708 1341.2523)" class="st1" width="6.2" height="4"/>
					
						<rect x="925.2" y="427.5" transform="matrix(5.236017e-03 -1 1 5.236017e-03 493.989 1355.4652)" class="st1" width="6.2" height="4"/>
					
						<rect x="937.2" y="429.7" transform="matrix(5.236017e-03 -1 1 5.236017e-03 503.7171 1369.6881)" class="st1" width="6.2" height="4"/>
					
						<rect x="949.2" y="431.9" transform="matrix(5.236017e-03 -1 1 5.236017e-03 513.4354 1383.9009)" class="st1" width="6.2" height="4"/>
					
						<rect x="961.2" y="434.1" transform="matrix(5.236017e-03 -1 1 5.236017e-03 523.1636 1398.1237)" class="st1" width="6.2" height="4"/>
					
						<rect x="973.2" y="436.3" transform="matrix(5.236017e-03 -1 1 5.236017e-03 532.8818 1412.3365)" class="st1" width="6.2" height="4"/>
					
						<rect x="985.2" y="438.6" transform="matrix(5.236017e-03 -1 1 5.236017e-03 542.6201 1426.5494)" class="st1" width="6.2" height="4"/>
					
						<rect x="997.2" y="440.8" transform="matrix(5.236017e-03 -1 1 5.236017e-03 552.3383 1440.7622)" class="st1" width="6.2" height="4"/>
					
						<rect x="1006.4" y="442.5" transform="matrix(5.236017e-03 -1 1 5.236017e-03 559.6927 1451.6898)" class="st1" width="6.2" height="4"/>
				</g>
				
					<rect x="854.6" y="415.8" transform="matrix(5.236017e-03 -1 1 5.236017e-03 434.8528 1273.8907)" class="st1" width="6.3" height="5.2"/>
				
					<rect x="709.8" y="424.1" transform="matrix(5.236017e-03 -1 1 5.236017e-03 282.5009 1137.4828)" class="st1" width="6.3" height="5.2"/>
				
					<rect x="567.8" y="414.7" transform="matrix(5.236017e-03 -1 1 5.236017e-03 150.6823 986.1093)" class="st1" width="6.3" height="5.2"/>
				
					<rect x="590" y="414.8" transform="matrix(5.236017e-03 -1 1 5.236017e-03 172.6313 1008.3954)" class="st1" width="6.3" height="5.2"/>
				
					<rect x="662.8" y="425.9" transform="matrix(9.999500e-03 -0.9999 0.9999 9.999500e-03 230.8206 1090.1406)" class="st1" width="6.3" height="5.2"/>
				
					<rect x="638.1" y="419.7" transform="matrix(5.236017e-03 -1 1 5.236017e-03 215.555 1061.3372)" class="st1" width="6.3" height="5.2"/>
				<path class="st1" d="M808.7,421.5l-8.6,0v-7.7c0-1.6,1.8-3.2,3.8-3.5c1.4-0.2,2.8,0.3,3.8,1.2c0.6,0.6,1,1.4,1,2.3L808.7,421.5z
					"/>
				<path class="st1" d="M770.5,415.3l-8.6-0.1v-7.7c0-1.6,1.8-3.2,3.8-3.5c1.4-0.2,2.8,0.3,3.8,1.2c0.6,0.6,1,1.4,1,2.3
					L770.5,415.3z"/>
				<path class="st1" d="M704,416h-5.2l0-8.7h5.1L704,416z"/>
				<path class="st1" d="M717.2,412.7h-5.1V404h5.2L717.2,412.7z"/>
				<path class="st1" d="M731.3,419.9h-5.1v-8.7h5.2L731.3,419.9z"/>
			</g>
		</g>
	</g>
</g>
<g id="_3">
	<path class="st2" d="M1675.7,647.1v-11.9h-34v10.3h-15.7v-14h-14.6v-33h-5.9l-20,13.5v13.5h-12.4V639h-13v-39.5h-6.5v-6.5h-4.8v5.9
		h-6.5v60.5H1524v-25.9h-11v-38.8h-14.8v-26.7h-16.1v35.8h-7.3v-26.2c0-8.1-6.5-14.7-14.6-14.7c-8.1,0-14.7,6.5-14.7,14.6
		c0,0,0,0,0,0v38.7h-2.9v-32h-17.6v32c-4.9,0-8.8-3.9-8.8-8.8c0,0,0,0,0,0v-26.7l-19.1-0.2V611h-8.8v-7.2H1375v-33.6h-7.3V563h-23.5
		v64h-20.5v-60.4h-26.4v3.5h-4.4v23.1h-5.9v-12.4h-11.7v1.7h-17.6v6.9c0,4.1-3.3,7.3-7.3,7.3v-48h-16.1v10.7h-8
		c-5.3,0-9.6-4.3-9.6-9.6v-17h-16.1v35.8h-3.8v-46.5h-17.6v14.2h-7.3V504h-16.1v10.7H1138V488h-16.1v35.8h-7.3l-3.8,1.6v-25.7
		l-9.6-1.3v-2.6l-18.9-7.9v16.4h-17.5v32c-4.9,0-8.8-3.9-8.8-8.8c0,0,0,0,0,0v-26.7l-19.1-0.2V531h-8.8v-7.2h-13.2v-33.7h-7.3V483
		h-23.6v64h-20.5v-60.5H937v3.5h-4.4v23.1h-5.9v-12.4H915v1.6h-17.6v6.9c0,2.1-0.9,4-2.4,5.4h-2.5V488H890v-19.4h-16.2v10.7h-8
		c-5.3,0-9.6-4.3-9.6-9.6v-17.1h-16.1v35.8h-7.3v-25.1l-29.3-0.3v21.6h-20.5v32l-3.2,7.1h-10.5v-33.6h-7.3V483h-23.5v64h-20.5v-60.5
		h-26.4v3.5h-4.4v23.1h-5.9v-12.4h-11.7v1.6h-17.6v6.9c0,4-3.3,7.3-7.3,7.3l0,0v-26.3h-16.2v10.7h-8c-5.3,0-9.6-4.3-9.6-9.6v-17.1
		h-16.1v35.8h-7.3v-25.1l-29.3-0.3v31.9H555v-10.4h-11.4h-0.4h-5.8v10.3l-1.7,3.8h-1.1h-1.2v5.3l-4.8,10.6v9.2H526v-35.7h-16.2v17
		c0,5.3-4.3,9.6-9.6,9.6h-8v-10.6h-16.1v26.3c-4.1,0-7.3-3.3-7.3-7.3l0,0v-6.9h-17.6v-1.7h-11.7v12.5h-5.9v-23.1h-4.4V522h-24.5v-12
		h-3.6v-10.4h-2.2v-3.1h-3.4l-1.5-17.7h1.7v-0.9h-2.3v-3c0-0.4-0.3-0.7-0.7-0.7h0h-0.2v-19h-0.6v19h-0.2c-0.4,0-0.7,0.3-0.7,0.7v0v3
		h-2.3v0.9h1.7l-1.5,17.7h-3.4v3.1h-2.3V510h-3.9v8.4h-20.4v7.1h-7.3v33.7h-13.2v7.2h-8.8V536l-19.1,0.2V563c0,4.9-3.9,8.8-8.8,8.8
		c0,0,0,0,0,0v-32H284v32h-2.9v-38.7c-0.2-8.1-7-14.5-15.1-14.3c-7.8,0.2-14.1,6.5-14.3,14.3v26.2h-4.8l0.1-5.9h-2.5v-29.9h-16.2
		v26.7h-17.6v-10.7h-16.1v32.2h-7.3v-14.2h-17.6v7.3l-22.2,24.6l-0.5,67.4l-14.9-0.1v-3.9l0.2-21.9h-3.9l0.1-18.8l-10.9-0.1
		l-0.3,35.4l-11.4-0.1l0.1-16.6l-20.1-0.2l-0.1,14.9l-18.4-0.1l0.6-73.1h-6.6l0.1-8.8h-3.9l0.1-9.6h-3.9l-0.1,10.1h-4.4l-0.1,7.9
		l-5.7,0l-0.5,67.2h-3.9l-0.1,9.6h-4.3V619h-5.7v-34.8l-20.7,2.9v14.8H0.9v-5.1h-2.5V611h-0.2v436.3h1679.8V647.1H1675.7z
		 M549.6,514.2h-3v-4.6h3V514.2z M566.9,499.8h-3v-4.6h3V499.8z M578.2,511.9h-3v-4.6h3V511.9z M581.2,499.8h-3v-4.6h3V499.8z
		 M603.3,486.8h-3v-4.6h3V486.8z M616,510.8h-3v-4.6h3V510.8z M638.3,510.8h-3v-4.6h3V510.8z M664.3,515.8h-3v-4.6h3V515.8z
		 M675.1,514.7h-3v-4.6h3V514.7z M706.3,527h-3v-4.7h3V527z M706.3,504h-3v-4.6h3V504z M752.4,527h-3v-4.7h3V527z M752.4,504h-3
		v-4.6h3V504z M796.6,504h-3v-4.6h3V504z M813.7,504h-3v-4.6h3V504z M813.7,479.8h-3v-4.6h3V479.8z M830.8,504h-3v-4.6h3V504z
		 M908.1,514.6h-3v-4.6h3V514.6z M918.1,513.4h-3v-4.6h3V513.4z M948,500.1h-3v-4.6h3V500.1z M958.2,510.8h-3v-4.6h3V510.8z
		 M992.6,517.5h-3v-4.6h3V517.5z M992.6,500.1h-3v-4.6h3V500.1z M1008.4,517.5h-3v-4.6h3V517.5z M1008.4,500.1h-3v-4.6h3V500.1z
		 M1074.9,517.5h-3v-4.6h3V517.5z M1095.4,519.8h-3v-4.6h3V519.8z M1133.1,525.2h-3v-4.6h3V525.2z"/>
	<path class="st3" d="M1675.7,647.1v-11.9h-34v10.3h-15.7v-14h-14.6v-33h-5.9l-20,13.5v13.5h-12.4V639h-13v-39.5h-6.5v-6.5h-4.8v5.9
		h-6.5v60.5H1524v-25.9h-11v-38.8h-14.8v-26.7h-16.1v35.8h-7.3v-26.2c0-8.1-6.5-14.7-14.6-14.7c-8.1,0-14.7,6.5-14.7,14.6
		c0,0,0,0,0,0v38.7h-2.9v-32h-17.6v32c-4.9,0-8.8-3.9-8.8-8.8c0,0,0,0,0,0v-26.7l-19.1-0.2V611h-8.8v-7.2H1375v-33.6h-7.3V563h-23.5
		v64h-20.5v-60.4h-26.4v3.5h-4.4v23.1h-5.9v-12.4h-11.7v1.7h-17.6v6.9c0,4.1-3.3,7.3-7.3,7.3v-48h-16.1v10.7h-8
		c-5.3,0-9.6-4.3-9.6-9.6v-17h-16.1v35.8h-3.8v-46.5h-17.6v14.2h-7.3V504h-16.1v10.7H1138V488h-16.1v35.8h-7.3l-3.8,1.6v-25.7
		l-9.6-1.3v-2.6l-18.9-7.9v16.4h-17.5V529l-8.8-9.5v-18.7l-17.4-0.2l-26.1-28.4l0.2-33.7L903,418.3l0.1-18.8l-9.6-0.1v7.4l-70.3-2.6
		l-27-10.2l-43.3-0.2v-6.5l-8.7,0l-66.9,12.3l-0.1,15.7l-57.5-0.3l-13.5-8.4l-42.1-0.2V399l-14.6-0.1l-0.2,34.8l-5.8,27.6l-17.9-0.1
		v5.7l-10.2-0.1l-0.1,23.4L471.9,503v7.7h-18.7v27.2h-2v-1.7h-11.7v12.5h-5.9v-23.1h-4.4V522h-24.5v-12h-3.6v-10.4h-2.2v-3.1h-3.4
		l-1.5-17.7h1.7v-0.9h-2.3v-3c0-0.4-0.3-0.7-0.7-0.7h0h-0.2v-19h-0.6v19h-0.2c-0.4,0-0.7,0.3-0.7,0.7v0v3h-2.3v0.9h1.7l-1.5,17.7
		h-3.4v3.1h-2.3V510h-3.9v8.4h-20.4v7.1h-7.3v33.7h-13.2v7.2h-8.8V536l-19.1,0.2V563c0,4.9-3.9,8.8-8.8,8.8c0,0,0,0,0,0v-32H284v32
		h-2.9v-38.7c-0.2-8.1-7-14.5-15.1-14.3c-7.8,0.2-14.1,6.5-14.3,14.3v26.2h-4.8l0.1-5.9h-2.5v-29.9h-16.2v26.7h-17.6v-10.7h-16.1
		v32.2h-7.3v-14.2h-17.6v7.3l-22.2,24.6l-0.5,67.4l-14.9-0.1v-3.9l0.2-21.9h-3.9l0.1-18.8l-10.9-0.1l-0.3,35.4l-11.4-0.1l0.1-16.6
		l-20.1-0.2l-0.1,14.9l-18.4-0.1l0.6-73.1h-6.6l0.1-8.8h-3.9l0.1-9.6h-3.9l-0.1,10.1h-4.4l-0.1,7.9l-5.7,0l-0.5,67.2h-3.9l-0.1,9.6
		h-4.3V619h-5.7v-34.8l-20.7,2.9v14.8H0.9v-5.1h-2.5V611h-0.2v436.3h1679.8V647.1H1675.7z M1092.4,515.2h3v4.6h-3V515.2z
		 M1071.9,512.9h3v4.6h-3V512.9z M1133.1,525.2h-3v-4.6h3V525.2z"/>
</g>
</svg>
