<svg id="colombe" xmlns="http://www.w3.org/2000/svg" viewBox="0 0 1676 1046">
  <defs>
    <style>
      .cls-1 {
        fill: #a4a5a4;
      }
    </style>
  </defs>
  <title>4</title>
  <path class="cls-1" d="M692.92,322.22a8.64,8.64,0,0,1,3.36-1.11,4,4,0,0,1,2.17.6,2.94,2.94,0,0,0,1.32.38c.43,0,0,.26-.55.51s-1,1.36-1.92,2.08-3.14,4.3-5.4,5.41-5,1.36-6.42,2.17-2.76,3.14-3.44,3.4-2.51-2.3-3.15-3.19,1.23-1.79,2.55-1.92,2.72-1.31,2-1.65-5.4-7.19-6.21-9.32-1.74-10.12-3.15-12.59-.89-7.91-.34-8.12,3.7,4.59,5,6.25,1.9,2.59,2.15,2.64.61-1.19.61-2.43-.3-3,2.77.94,6.59,6,6.38,8.08a28.06,28.06,0,0,0,0,5.44,19.81,19.81,0,0,0,.51,3A8.07,8.07,0,0,0,692.92,322.22Z"/>
  <path class="cls-1" d="M130.33,373.4a1.9,1.9,0,0,1-.74-.55,2.78,2.78,0,0,0-1.21-.87,5.83,5.83,0,0,0-2.36-.08,6,6,0,0,1-1.24-.07,14.76,14.76,0,0,1,.37-2,20.33,20.33,0,0,1,1.26-3.4c.61-1.25-1.12-3.34-2.11-6.51s-1.23-2-1.51-1.23-.79,1.46-.94,1.37a8.7,8.7,0,0,1-.74-2.14c-.41-1.33-1.27-5.06-1.66-5.05s-2,3.28-1.66,5.15-1,7.07-1,8.58a30,30,0,0,0,1.72,7.25c.37.38-.78.8-1.63.57s-2.23-.1-2,.61.74,2.72,1.22,2.72,1.85-1.16,2.94-1.33,2.85.3,4.51.13,3.89-1.88,4.62-2.12,1.3-.82,1.68-.86S130.59,373.5,130.33,373.4Z"/>
  <path class="cls-1" d="M1450.7,342.08s5.24-2.07,7.64-1.36,2.15,2.11,3.05,2.23,2.2.68,1.52.92-1.62.31-2.08.84-2.88,3.55-4.77,4.42-3,1-2.32,1.73,3.81,4.49,7,4.9,6.76.88,7.94,3.39,2.3,9.19,3.66,13.47,2.5,17,2.11,21.32-.23,5.82-1.71,6.41-6.24-5.4-7.15-9.45-2.21-11.16-5.08-14.28-15.37-11.69-18-13.48a10.61,10.61,0,0,1-3.65-4.14s-3.84,1.35-6,2c-1.31.39-5.53,4.17-6.22,5.47s-1.22,2-2.34,1.18a19,19,0,0,1-3.4-3.32c-1-1.26-2.63-4-1.51-4.56s3-.92,5-1.71a18.17,18.17,0,0,0,5.38-3.75,8.37,8.37,0,0,0,2.3-3.63c0-.26-3.6-7.19-3.94-12.65a41.57,41.57,0,0,0-3.47-13.55c-.86-1.42-10.11-8.83-12.62-11.69s-5.75-6.16-1.07-5.9,17.19,4.77,22.09,7.42,9.37,4.45,9.44,8-1.25,8.22,0,11.52S1447.69,342.34,1450.7,342.08Z"/>
  <path class="cls-1" d="M124.61,444.83a13.26,13.26,0,0,1-4-.12,16.1,16.1,0,0,0-2.78-.67,23.74,23.74,0,0,0-2.9.52,9.35,9.35,0,0,1-1,.11,3.28,3.28,0,0,0-.82-.65,5.69,5.69,0,0,0-1.41-.17s-.17-.89-1.77-1.64a18.12,18.12,0,0,1-4.73-3.39c-.3-.57-1.18-1.47-1.3-1.73s-.42.5.11,1.33a16.76,16.76,0,0,1,1.37,2.24,5.62,5.62,0,0,0,3,3c1.8.62,2.67,1,2.62,1.21a.79.79,0,0,1-.8.51c-.4-.05-1.48-.38-1.56-.15a3.32,3.32,0,0,0,2,2.53,4,4,0,0,0,2.82-.4c.17-.18-.93-.3-.79-.71s.71-.24,1-.54,1.21-.19,1.44-.2-.12-.2-.12-.2,1.87.05,2.65.09,2.61-.37,3.16-.23,5-.48,5.23-.85S125.33,444.73,124.61,444.83Z"/>
  <path class="cls-1" d="M1397.81,343.38c-2-.34-8.48-2.12-10.68-3.71a45.53,45.53,0,0,0-7-4.19c-1.53-.61-6.47-.76-8.36-1.05a25.28,25.28,0,0,1-2.92-.59,9.38,9.38,0,0,0-1.69-2.47,15.91,15.91,0,0,0-3.72-1.68s.32-2.57-3.41-6-9.71-11.49-10-13.31-2-5-2.08-5.84-1.58,1-.82,3.71a52.24,52.24,0,0,1,1.82,7.31c.12,1.67,1.23,7.57,5.61,10.82s6.46,5,6.11,5.56a2.2,2.2,0,0,1-2.61.7c-1.06-.48-3.71-2.28-4.13-1.72s-.11,6.58,3.18,8.57,7.41,1.64,8,1.3-2.28-1.6-1.56-2.6,2.16-.06,3.26-.6,3.47.5,4.1.68-.15-.65-.15-.65,5.08,1.73,7.17,2.51,7.45,1.22,8.84,2.06,14.21,3,15,2.14C1402.24,343.81,1399.86,343.73,1397.81,343.38Z"/>
  <path class="cls-1" d="M67.47,442.48a5.27,5.27,0,0,1-1-3.18c0-2,0-3.86-.75-5a39.32,39.32,0,0,1-3.85-6.61C61,425.19,60.07,423,59.63,423s-1.88,5.45-1,8.87a26.81,26.81,0,0,0,1.75,4.93c.3,1-.15,1.88.23,4a27.28,27.28,0,0,0,1.56,4.74c.11.41-.35,1-.81,1.47a11,11,0,0,1-2.38,1.32c-.61.27-1.17.34-1.06.68a3.42,3.42,0,0,0,1,1.7,3.18,3.18,0,0,0,1.85.4c.44,0,.7-1.56,1.22-1.72a28.5,28.5,0,0,1,3.34-1,5.54,5.54,0,0,0,3.37.15,5.1,5.1,0,0,1,3.3-.34c1.06.2,3.41,1,3.65,1s-.4-1.08-1-1.49c-.82-.6-1-.65-1.61-1.13a4.54,4.54,0,0,0-2.36-1.09,4.7,4.7,0,0,1,1.11-1.67c.65-.49,1.25-1.28,1.61-1.4s1-.19,1.07-.33-1.34-.21-1.34-.21-.46-.88-2.25-.75A7.34,7.34,0,0,0,67.47,442.48Z"/>
  <path class="cls-1" d="M107.28,392.77a.62.62,0,0,0-.57-.24,2.58,2.58,0,0,1-.72.17,1.44,1.44,0,0,1-1.21-.94c-.25-.78.09-2-.55-2.24a10.64,10.64,0,0,0-4.46-.41c-2,.2-2.21.15-1.56.63a4.07,4.07,0,0,0,2,.61,2.75,2.75,0,0,1,1.4.33,8.43,8.43,0,0,1,.93,1.67,8.26,8.26,0,0,1,1,2,1.22,1.22,0,0,1-.81.77c-.41.14-.75.22-.68.36s.53.33.71.47.45.38.56.23.36-.67.83-.81a4.46,4.46,0,0,0,1.51-.52,4.81,4.81,0,0,0,1.36-1.26c.09-.11.41.08.57.27a4,4,0,0,0,.82,1c.44.33.58.92.91,1s.21-1.34.19-2.05a2.33,2.33,0,0,0-.32-1.4c-.23-.35-.5-.43-.7-.28A4.63,4.63,0,0,1,107.28,392.77Z"/>
</svg>
